<svg xmlns="http://www.w3.org/2000/svg" viewBox="0 0 32 32" width="720" height="720"><rect width="32" height="32" rx="4" fill="#fff"/><path fill="#e83a7e" d="M16 3C8.82 3 3 8.82 3 16s5.82 13 13 13 13-5.82 13-13S23.18 3 16 3zm0 1.3c6.46 0 11.7 5.24 11.7 11.7S22.46 27.7 16 27.7 4.3 22.46 4.3 16 9.54 4.3 16 4.3zM11.5 11a1.5 1.5 0 100 3 1.5 1.5 0 000-3zm9 0a1.5 1.5 0 100 3 1.5 1.5 0 000-3zM16 13.5a1.5 1.5 0 100 3 1.5 1.5 0 000-3zm-4.5 5a1.5 1.5 0 100 3 1.5 1.5 0 000-3zm9 0a1.5 1.5 0 100 3 1.5 1.5 0 000-3zM16 21a1.5 1.5 0 100 3 1.5 1.5 0 000-3z"/><path fill="none" stroke="#e83a7e" stroke-width="0.8" d="M11.5 12.5l4.5 2m0 0l4.5-2m-4.5 2v3m-5.5 1l5.5-1m0 0l5.5 1m-5.5-1v2.5"/></svg>