<svg xmlns="http://www.w3.org/2000/svg" viewBox="0 0 24 32" width="540" height="720"><rect width="24" height="32" rx="4" fill="#fff"/><path fill="#e83a7e" d="M17.182 14.359c0 0 0-7.768-4.943-12.712 0 0 0-0.235-0.235-0.235h-0.235c-0.235 0-0.235 0-0.235 0-0.235 0-0.235 0.235-0.471 0.235-4.708 4.943-4.943 12.712-4.943 12.712v6.121c0 0.235 0.235 0.471 0.235 0.471 0.235 0.235 0.471 0.471 0.706 0.471h9.416c0.235 0 0.471-0.235 0.471-0.471 0.235 0 0.235-0.235 0.235-0.471v-6.121zM10.12 10.358c0 0.471-0.235 0.706-0.706 0.706s-0.706-0.235-0.706-0.706c0-0.706 0.471-1.177 0.941-1.412 0.706-0.235 1.412-0.471 2.119-0.471s1.412 0.235 1.884 0.471c0.706 0.235 1.177 0.706 1.177 1.412 0 0.471-0.235 0.706-0.706 0.706s-0.706-0.235-0.706-0.706c0 0-0.235 0-0.471-0.235-0.235 0-0.706-0.235-1.177-0.235s-0.941 0.235-1.412 0.235c0 0.235-0.235 0.235-0.235 0.235v0zM12.708 24.246c0.235-0.235 0.471-0.706 0.941-0.706 0.235 0.235 0.706 0.471 0.706 0.941 0 0-0.471 5.178 7.062 5.178 0.235 0 0.706 0.235 0.706 0.706s-0.471 0.706-0.706 0.706c-9.181 0-8.71-6.827-8.71-6.827v0.001zM9.177 24.482c0-0.471 0.235-0.706 0.706-0.941 0.471 0 0.706 0.471 0.706 0.706 0 0 0.706 6.827-8.474 6.827-0.471 0-0.706-0.235-0.706-0.706s0.235-0.706 0.706-0.706c7.533 0 7.062-5.178 7.062-5.178v-0.001zM18.594 12.947c1.177 0.471 1.884 0.941 2.825 1.884 0.706 0.706 1.412 1.884 1.884 3.060v2.589c0 0.471-0.235 0.706-0.706 0.706h-2.119c-0.471 0-0.706-0.235-0.706-0.706s0.235-0.706 0.706-0.706h1.412v-1.412c-0.235-0.941-0.941-1.884-1.647-2.59-0.471-0.471-0.941-0.941-1.412-1.177v5.885c0 0.706-0.471 1.177-0.706 1.647-0.471 0.471-0.941 0.706-1.647 0.706h-9.416c-0.706 0-1.177-0.235-1.647-0.706s-0.706-0.941-0.706-1.647v-5.885c-0.471 0.235-0.941 0.706-1.412 1.177-0.706 0.706-1.412 1.647-1.647 2.59v1.412h1.412c0.471 0 0.706 0.235 0.706 0.706s-0.235 0.706-0.706 0.706h-2.119c-0.471 0-0.941-0.235-0.941-0.706v-2.354c0 0 0-0.235 0.235-0.235 0.235-1.177 0.941-2.354 1.884-3.060 0.706-0.941 1.647-1.412 2.825-1.884 0.235-2.59 1.177-8.239 5.178-12.241 0.235-0.235 0.471-0.471 0.706-0.706 0.235 0 0.706 0 0.941 0s0.471 0 0.941 0c0.235 0.235 0.471 0.471 0.706 0.706 4.002 4.002 4.943 9.652 5.178 12.241h-0.001z"/></svg>