<svg xmlns="http://www.w3.org/2000/svg" viewBox="0 0 32 32" width="720" height="720"><rect width="32" height="32" rx="4" fill="#fff"/><path fill="#e83a7e" d="M22.834 26.638c0 0.471-0.235 0.706-0.706 0.706s-0.706-0.235-0.706-0.471l-1.412-14.595h-2.119c-0.471 0-0.706-0.471-0.706-0.706s0-0.471 0.235-0.471l6.121-7.062c0.235-0.235 0.706-0.235 0.941 0h0.235l6.121 7.062c0.235 0.235 0.235 0.706 0 0.941-0.235 0-0.235 0.235-0.471 0.235h-2.119l-1.412 14.595c0 0.235-0.235 0.471-0.706 0.471s-0.706-0.235-0.706-0.706l1.412-15.065c0-0.471 0.471-0.706 0.706-0.706h1.177l-4.708-5.178-4.472 5.178h1.177c0.235 0 0.706 0.235 0.706 0.471l1.412 15.302zM15.302 16.28c0-0.941 0-2.119 0-3.060l-0.235 0.235h-7.062c0 0.941 0 1.884 0 2.825 0 1.177 0 2.119 0 3.060h7.297c0-0.941 0-1.884 0-3.060zM15.065 12.043c-0.235-1.177-0.471-2.354-0.941-3.296-0.706-1.647-1.647-2.825-2.354-2.825-0.941 0-1.884 1.177-2.59 2.825-0.235 0.941-0.706 2.119-0.941 3.296h6.826zM8.239 20.753c0.235 1.177 0.706 2.119 0.941 3.060 0.706 1.884 1.647 2.825 2.354 2.825h0.235c0.941 0 1.647-0.941 2.354-2.825 0.471-0.941 0.706-1.884 0.941-3.060h-6.825zM15.537 8.277c0.706 2.119 1.177 4.943 1.177 8.003 0 3.296-0.471 6.121-1.177 8.24-0.471 0.706-0.706 1.177-1.177 1.883 0.471-0.235 0.706-0.235 1.177-0.471 1.177-0.471 2.119-1.177 3.060-1.883 0.471-0.235 0.706-0.235 1.177 0 0.235 0.235 0.235 0.706-0.235 0.941-0.941 0.941-2.354 1.647-3.531 2.354-1.412 0.471-2.825 0.706-4.237 0.706-0.235 0-0.235 0-0.235 0-3.060 0-6.121-1.412-8.239-3.296-2.119-2.354-3.296-5.178-3.296-8.474s1.177-6.121 3.296-8.239 5.178-3.531 8.474-3.531c0.941 0 1.884 0.235 2.825 0.471 1.177 0.235 2.119 0.706 2.825 1.177 0.471 0.235 0.471 0.471 0.235 0.941 0 0.235-0.471 0.471-0.941 0.235-0.706-0.471-1.412-0.706-2.354-0.941 0.471 0.471 0.706 1.177 1.177 1.884l-0.001 0.001zM8.946 26.403c-0.471-0.706-0.706-1.177-0.941-1.883-0.471-1.177-0.941-2.354-1.177-3.766h-4.472c0.471 1.177 1.177 2.119 1.884 2.825 1.412 1.412 2.825 2.354 4.708 2.825h-0.001zM6.827 19.341c-0.235-0.941-0.235-1.884-0.235-3.060 0-0.941 0-1.884 0.235-2.825h-5.178c-0.235 0.941-0.235 1.884-0.235 2.825 0 1.177 0 2.119 0.235 3.060h5.178zM6.827 12.043c0.235-1.412 0.706-2.825 1.177-3.766 0.235-0.706 0.471-1.412 0.941-1.884-1.884 0.471-3.296 1.412-4.708 2.59-0.706 0.941-1.412 1.884-1.884 3.060h4.473z"/></svg>