<svg width="621" height="77" viewBox="0 0 621 77" fill="none" xmlns="http://www.w3.org/2000/svg">
<path fill-rule="evenodd" clip-rule="evenodd" d="M102.114 11L91 0L79.886 11H33C14.7746 11 0 25.7746 0 44C0 62.2254 14.7746 77 33 77H588C606.225 77 621 62.2254 621 44C621 25.7746 606.225 11 588 11H373C373 17.6274 356.882 23 337 23C317.118 23 301 17.6274 301 11H102.114Z" fill="white"/>
<path d="M33 57.7344V34.166H41.6948C44.301 34.166 46.4804 34.6971 48.2328 35.7593C49.9853 36.7994 51.2996 38.2158 52.1758 40.0083C53.052 41.7787 53.4901 43.7483 53.4901 45.917C53.4901 48.3071 53.0071 50.3873 52.041 52.1577C51.0749 53.9281 49.7044 55.3001 47.9295 56.2739C46.1546 57.2476 44.0764 57.7344 41.6948 57.7344H33ZM48.8057 45.917C48.8057 44.39 48.5249 43.0512 47.9632 41.9004C47.4015 40.7275 46.5927 39.8202 45.5367 39.1784C44.4808 38.5145 43.2001 38.1826 41.6948 38.1826H37.6507V53.7178H41.6948C43.2226 53.7178 44.5145 53.3859 45.5704 52.722C46.6264 52.036 47.424 51.1065 47.9632 49.9336C48.5249 48.7386 48.8057 47.3997 48.8057 45.917Z" fill="#E83A7E"/>
<path d="M75.0864 53.7178V57.7344H58.4718V34.166H74.7831V38.1826H63.1225V43.8589H73.1991V47.5768H63.1225V53.7178H75.0864Z" fill="#E83A7E"/>
<path d="M80.0601 57.7344V34.166H84.7109V57.7344H80.0601Z" fill="#E83A7E"/>
<path d="M95.7018 42.5975V57.7344H91.0511V34.166H94.7582L107.126 49.7012V34.1992H111.777V57.7344H107.902L95.7018 42.5975Z" fill="#E83A7E"/>
<path d="M137.489 57.9004C135.916 57.9004 134.444 57.5906 133.074 56.971C131.703 56.3513 130.49 55.4993 129.434 54.4149C128.401 53.3084 127.592 52.0249 127.008 50.5643C126.423 49.1037 126.131 47.5214 126.131 45.8174C126.131 44.2019 126.423 42.686 127.008 41.2697C127.592 39.8313 128.412 38.5698 129.468 37.4855C130.524 36.4011 131.759 35.5491 133.175 34.9295C134.59 34.3098 136.129 34 137.792 34C140.016 34 141.937 34.4758 143.555 35.4274C145.172 36.3568 146.386 37.5961 147.194 39.1452L143.723 41.668C143.117 40.5173 142.263 39.6321 141.162 39.0124C140.084 38.3707 138.904 38.0498 137.623 38.0498C136.275 38.0498 135.085 38.4149 134.051 39.1452C133.04 39.8755 132.242 40.8382 131.658 42.0332C131.097 43.2282 130.816 44.5339 130.816 45.9502C130.816 47.4329 131.119 48.7718 131.726 49.9668C132.332 51.1618 133.164 52.1134 134.22 52.8216C135.298 53.5076 136.522 53.8506 137.893 53.8506C140.207 53.8506 142.297 52.7773 144.161 50.6307V48.971H139.342V45.6183H148.003V57.7344H144.161V55.0788C142.229 56.9599 140.005 57.9004 137.489 57.9004Z" fill="#E83A7E"/>
<path d="M163.459 57.9004C161.549 57.9004 159.92 57.5906 158.572 56.971C157.247 56.3292 156.168 55.455 155.337 54.3485C154.528 53.242 153.933 51.9917 153.551 50.5975C153.169 49.1812 152.978 47.7095 152.978 46.1826V34.166H157.629V46.1826C157.629 47.4882 157.808 48.7275 158.168 49.9004C158.527 51.0733 159.134 52.0249 159.988 52.7552C160.841 53.4855 161.987 53.8506 163.425 53.8506C164.908 53.8506 166.076 53.4855 166.93 52.7552C167.784 52.0028 168.39 51.0401 168.75 49.8672C169.109 48.6943 169.289 47.4661 169.289 46.1826V34.166H173.906V46.1826C173.906 47.7981 173.704 49.314 173.299 50.7303C172.917 52.1466 172.3 53.397 171.446 54.4813C170.615 55.5436 169.536 56.3845 168.211 57.0042C166.885 57.6017 165.301 57.9004 163.459 57.9004Z" fill="#E83A7E"/>
<path d="M179.939 57.7344V34.166H184.589V57.7344H179.939Z" fill="#E83A7E"/>
<path d="M190.929 57.7344V34.166H199.624C202.23 34.166 204.41 34.6971 206.162 35.7593C207.915 36.7994 209.229 38.2158 210.105 40.0083C210.982 41.7787 211.42 43.7483 211.42 45.917C211.42 48.3071 210.937 50.3873 209.97 52.1577C209.004 53.9281 207.634 55.3001 205.859 56.2739C204.084 57.2476 202.006 57.7344 199.624 57.7344H190.929ZM206.735 45.917C206.735 44.39 206.454 43.0512 205.893 41.9004C205.331 40.7275 204.522 39.8202 203.466 39.1784C202.41 38.5145 201.13 38.1826 199.624 38.1826H195.58V53.7178H199.624C201.152 53.7178 202.444 53.3859 203.5 52.722C204.556 52.036 205.353 51.1065 205.893 49.9336C206.454 48.7386 206.735 47.3997 206.735 45.917Z" fill="#E83A7E"/>
<path d="M233.016 53.7178V57.7344H216.401V34.166H232.713V38.1826H221.052V43.8589H231.129V47.5768H221.052V53.7178H233.016Z" fill="#E83A7E"/>
<path d="M247.434 57.7344V34.166H252.084V57.7344H247.434Z" fill="#E83A7E"/>
<path d="M277.938 57.7344V42.2656L271.804 53.7842H269.209L263.075 42.2656V57.7344H258.425V34.166H263.412L270.49 47.5768L277.634 34.166H282.588V57.7344H277.938Z" fill="#E83A7E"/>
<path d="M312.632 40.3402C312.429 40.1189 312.002 39.8313 311.351 39.4772C310.699 39.101 309.913 38.769 308.992 38.4813C308.093 38.1715 307.161 38.0166 306.195 38.0166C303.656 38.0166 302.387 38.9018 302.387 40.6722C302.387 41.314 302.589 41.823 302.993 42.1992C303.398 42.5754 304.004 42.8963 304.813 43.1618C305.622 43.4274 306.633 43.7151 307.846 44.0249C309.419 44.4232 310.778 44.888 311.924 45.4191C313.092 45.9502 313.98 46.6584 314.586 47.5436C315.215 48.4066 315.53 49.5574 315.53 50.9958C315.53 52.6777 315.114 54.0387 314.283 55.0788C313.474 56.0968 312.396 56.8382 311.048 57.3029C309.7 57.7676 308.239 58 306.667 58C304.869 58 303.083 57.7344 301.308 57.2033C299.556 56.6501 297.994 55.8976 296.624 54.9461L298.679 50.9958C298.882 51.195 299.241 51.4606 299.758 51.7925C300.275 52.1024 300.904 52.4232 301.645 52.7552C302.387 53.065 303.195 53.3306 304.072 53.5519C304.948 53.7732 305.835 53.8838 306.734 53.8838C309.295 53.8838 310.576 53.0761 310.576 51.4606C310.576 50.7745 310.317 50.2213 309.801 49.8008C309.284 49.3804 308.554 49.0263 307.61 48.7386C306.689 48.4509 305.611 48.13 304.375 47.7759C302.847 47.3555 301.578 46.8907 300.567 46.3817C299.578 45.8506 298.837 45.1978 298.342 44.4232C297.848 43.6266 297.601 42.6196 297.601 41.4025C297.601 39.787 297.983 38.4371 298.747 37.3527C299.533 36.2462 300.589 35.4163 301.915 34.8631C303.24 34.2877 304.712 34 306.33 34C307.992 34 309.542 34.2656 310.98 34.7967C312.418 35.3278 313.654 35.9364 314.687 36.6224L312.632 40.3402Z" fill="#E83A7E"/>
<path d="M337.007 53.7178V57.7344H320.392V34.166H336.703V38.1826H325.043V43.8589H335.12V47.5768H325.043V53.7178H337.007Z" fill="#E83A7E"/>
<path d="M351.764 57.9004C350.012 57.9004 348.416 57.5685 346.979 56.9046C345.563 56.2407 344.339 55.3444 343.305 54.2158C342.294 53.065 341.508 51.7815 340.946 50.3651C340.384 48.9267 340.104 47.455 340.104 45.9502C340.104 44.379 340.396 42.8852 340.98 41.4689C341.564 40.0304 342.384 38.758 343.44 37.6515C344.496 36.5228 345.732 35.6376 347.147 34.9959C348.585 34.332 350.158 34 351.865 34C353.595 34 355.168 34.343 356.583 35.029C358.021 35.7151 359.246 36.6335 360.257 37.7842C361.29 38.935 362.077 40.2296 362.616 41.668C363.177 43.0844 363.458 44.5339 363.458 46.0166C363.458 47.5657 363.166 49.0595 362.582 50.4979C361.998 51.9142 361.178 53.1867 360.122 54.3154C359.088 55.4219 357.853 56.296 356.415 56.9378C354.999 57.5795 353.449 57.9004 351.764 57.9004ZM344.822 45.9502C344.822 47.3223 345.091 48.6058 345.631 49.8008C346.192 50.9959 346.99 51.9696 348.023 52.722C349.079 53.4744 350.337 53.8506 351.798 53.8506C353.303 53.8506 354.573 53.4633 355.606 52.6888C356.639 51.9142 357.426 50.9184 357.965 49.7012C358.504 48.4841 358.774 47.2337 358.774 45.9502C358.774 44.5781 358.493 43.2946 357.931 42.0996C357.37 40.9046 356.561 39.9419 355.505 39.2116C354.471 38.4592 353.236 38.083 351.798 38.083C350.292 38.083 349.023 38.4703 347.99 39.2448C346.956 40.0194 346.17 41.0152 345.631 42.2324C345.091 43.4274 344.822 44.6667 344.822 45.9502Z" fill="#E83A7E"/>
<path d="M377.818 57.7344V34.166H386.513C389.119 34.166 391.298 34.6971 393.051 35.7593C394.803 36.7994 396.118 38.2158 396.994 40.0083C397.87 41.7787 398.308 43.7483 398.308 45.917C398.308 48.3071 397.825 50.3873 396.859 52.1577C395.893 53.9281 394.522 55.3001 392.748 56.2739C390.973 57.2476 388.894 57.7344 386.513 57.7344H377.818ZM393.624 45.917C393.624 44.39 393.343 43.0512 392.781 41.9004C392.22 40.7275 391.411 39.8202 390.355 39.1784C389.299 38.5145 388.018 38.1826 386.513 38.1826H382.469V53.7178H386.513C388.041 53.7178 389.333 53.3859 390.388 52.722C391.444 52.036 392.242 51.1065 392.781 49.9336C393.343 48.7386 393.624 47.3997 393.624 45.917Z" fill="#E83A7E"/>
<path d="M417.447 40.3402C417.244 40.1189 416.818 39.8313 416.166 39.4772C415.514 39.101 414.728 38.769 413.807 38.4813C412.908 38.1715 411.976 38.0166 411.01 38.0166C408.471 38.0166 407.202 38.9018 407.202 40.6722C407.202 41.314 407.404 41.823 407.808 42.1992C408.213 42.5754 408.819 42.8963 409.628 43.1618C410.437 43.4274 411.448 43.7151 412.661 44.0249C414.234 44.4232 415.593 44.888 416.739 45.4191C417.907 45.9502 418.795 46.6584 419.401 47.5436C420.03 48.4066 420.345 49.5574 420.345 50.9958C420.345 52.6777 419.929 54.0387 419.098 55.0788C418.289 56.0968 417.211 56.8382 415.863 57.3029C414.515 57.7676 413.054 58 411.482 58C409.684 58 407.898 57.7344 406.123 57.2033C404.371 56.6501 402.809 55.8976 401.439 54.9461L403.494 50.9958C403.697 51.195 404.056 51.4606 404.573 51.7925C405.09 52.1024 405.719 52.4232 406.46 52.7552C407.202 53.065 408.01 53.3306 408.887 53.5519C409.763 53.7732 410.65 53.8838 411.549 53.8838C414.11 53.8838 415.391 53.0761 415.391 51.4606C415.391 50.7745 415.132 50.2213 414.616 49.8008C414.099 49.3804 413.369 49.0263 412.425 48.7386C411.504 48.4509 410.426 48.13 409.19 47.7759C407.662 47.3555 406.393 46.8907 405.382 46.3817C404.393 45.8506 403.652 45.1978 403.157 44.4232C402.663 43.6266 402.416 42.6196 402.416 41.4025C402.416 39.787 402.798 38.4371 403.562 37.3527C404.348 36.2462 405.404 35.4163 406.73 34.8631C408.055 34.2877 409.527 34 411.145 34C412.807 34 414.357 34.2656 415.795 34.7967C417.233 35.3278 418.469 35.9364 419.502 36.6224L417.447 40.3402Z" fill="#E83A7E"/>
<path d="M423.758 45.7842C423.758 44.3458 424.017 42.9295 424.533 41.5353C425.072 40.1411 425.848 38.8797 426.859 37.751C427.87 36.6224 429.105 35.7261 430.566 35.0622C432.026 34.3762 433.689 34.0332 435.553 34.0332C437.733 34.0332 439.631 34.509 441.249 35.4606C442.867 36.4122 444.069 37.6515 444.855 39.1784L441.283 41.6017C440.878 40.7165 440.35 40.0194 439.699 39.5104C439.047 39.0014 438.339 38.6362 437.576 38.4149C436.834 38.1936 436.115 38.083 435.419 38.083C434.25 38.083 433.228 38.3154 432.352 38.7801C431.498 39.2448 430.779 39.8534 430.195 40.6058C429.611 41.3582 429.173 42.1992 428.881 43.1286C428.611 44.0581 428.476 44.9876 428.476 45.917C428.476 47.3112 428.768 48.6169 429.353 49.834C429.937 51.029 430.757 52.0028 431.813 52.7552C432.869 53.5076 434.093 53.8838 435.486 53.8838C436.205 53.8838 436.946 53.7621 437.71 53.5187C438.497 53.2752 439.216 52.888 439.867 52.3568C440.519 51.8257 441.024 51.1397 441.384 50.2988L445.192 52.4564C444.698 53.6293 443.923 54.6252 442.867 55.444C441.811 56.2407 440.62 56.8603 439.294 57.3029C437.969 57.7234 436.654 57.9336 435.351 57.9336C433.644 57.9336 432.082 57.5906 430.667 56.9046C429.274 56.1964 428.061 55.2669 427.027 54.1162C425.994 52.9433 425.185 51.6376 424.601 50.1992C424.039 48.7386 423.758 47.2669 423.758 45.7842Z" fill="#E83A7E"/>
<path d="M469.778 34.166V57.7344H465.161V47.6763H454.31V57.7344H449.659V34.166H454.31V43.6929H465.161V34.166H469.778Z" fill="#E83A7E"/>
<path d="M486.262 57.9004C484.352 57.9004 482.723 57.5906 481.375 56.971C480.05 56.3292 478.971 55.455 478.14 54.3485C477.331 53.242 476.736 51.9917 476.354 50.5975C475.972 49.1812 475.781 47.7095 475.781 46.1826V34.166H480.432V46.1826C480.432 47.4882 480.611 48.7275 480.971 49.9004C481.33 51.0733 481.937 52.0249 482.791 52.7552C483.645 53.4855 484.79 53.8506 486.228 53.8506C487.711 53.8506 488.879 53.4855 489.733 52.7552C490.587 52.0028 491.194 51.0401 491.553 49.8672C491.913 48.6943 492.092 47.4661 492.092 46.1826V34.166H496.709V46.1826C496.709 47.7981 496.507 49.314 496.103 50.7303C495.721 52.1466 495.103 53.397 494.249 54.4813C493.418 55.5436 492.339 56.3845 491.014 57.0042C489.688 57.6017 488.104 57.9004 486.262 57.9004Z" fill="#E83A7E"/>
<path d="M507.392 42.5975V57.7344H502.742V34.166H506.449L518.817 49.7012V34.1992H523.468V57.7344H519.592L507.392 42.5975Z" fill="#E83A7E"/>
<path d="M539.735 57.9004C538.162 57.9004 536.691 57.5906 535.32 56.971C533.95 56.3513 532.736 55.4993 531.681 54.4149C530.647 53.3084 529.838 52.0249 529.254 50.5643C528.67 49.1037 528.378 47.5214 528.378 45.8174C528.378 44.2019 528.67 42.686 529.254 41.2697C529.838 39.8313 530.658 38.5698 531.714 37.4855C532.77 36.4011 534.006 35.5491 535.421 34.9295C536.837 34.3098 538.376 34 540.038 34C542.263 34 544.184 34.4758 545.801 35.4274C547.419 36.3568 548.632 37.5961 549.441 39.1452L545.97 41.668C545.363 40.5173 544.509 39.6321 543.408 39.0124C542.33 38.3707 541.15 38.0498 539.87 38.0498C538.522 38.0498 537.331 38.4149 536.298 39.1452C535.287 39.8755 534.489 40.8382 533.905 42.0332C533.343 43.2282 533.062 44.5339 533.062 45.9502C533.062 47.4329 533.366 48.7718 533.972 49.9668C534.579 51.1618 535.41 52.1134 536.466 52.8216C537.544 53.5076 538.769 53.8506 540.139 53.8506C542.454 53.8506 544.543 52.7773 546.408 50.6307V48.971H541.589V45.6183H550.25V57.7344H546.408V55.0788C544.476 56.9599 542.251 57.9004 539.735 57.9004Z" fill="#E83A7E"/>
<path d="M572.176 53.7178V57.7344H555.561V34.166H571.872V38.1826H560.212V43.8589H570.289V47.5768H560.212V53.7178H572.176Z" fill="#E83A7E"/>
<path d="M577.15 57.7344V34.166H581.8V53.7178H594V57.7344H577.15Z" fill="#E83A7E"/>
</svg>
