<svg width="565" height="382" viewBox="0 0 565 382" fill="none" xmlns="http://www.w3.org/2000/svg">
<path d="M83.9959 273.856C96.327 297.875 112.801 319.569 130.842 339.66C145.602 356.128 163.551 372.571 185.582 374.028C187.197 374.138 189.064 374.028 190.104 372.804C191.145 371.58 190.037 369.016 188.513 369.585C192.3 369.763 196.068 368.949 199.443 367.223C195.159 363.992 190.202 361.715 185.472 359.133C161.488 346.035 142.765 325.055 132.47 299.742C122.175 274.428 120.941 246.336 128.975 220.217C131.056 213.449 133.779 206.54 132.855 199.52C131.527 189.472 122.923 181.773 113.664 177.661C101.761 172.447 88.4086 171.566 75.9241 175.17C61.6776 179.295 58.8381 187.691 61.0534 201.742C64.9883 226.526 72.5093 251.537 83.9959 273.856Z" fill="#14525F"/>
<path d="M181.647 271.2C168.832 295.784 156.014 320.367 143.191 344.947C140.058 350.957 136.857 357.058 132.176 361.966C127.947 366.391 122.66 369.677 117.152 372.37C103.567 378.922 88.5433 381.928 73.4824 381.108L76.7013 377.804C67.879 379.777 58.7617 380.053 49.8361 378.618C49.9227 377.528 50.4072 376.509 51.1972 375.754C51.9873 374.999 53.0276 374.561 54.1199 374.524L49.9708 374.236C54.4075 366.219 65.6982 366.629 74.7492 365.24C89.5832 362.951 102.453 353.001 111.014 340.658C119.576 328.314 124.306 313.731 127.831 299.154C132.142 281.302 134.817 263.094 135.823 244.757C136.435 233.741 136.435 222.616 139.244 211.968C142.053 201.32 148.099 190.965 157.823 185.8C165.895 181.516 175.57 181.278 184.591 182.569C191.983 183.622 199.59 185.831 204.889 191.094C215.599 201.73 206.725 214.96 202.582 226.379C196.94 241.887 189.254 256.574 181.647 271.2Z" fill="#539799"/>
<path d="M391.746 183.07C392.872 195.167 393.994 207.263 395.112 219.36C396.263 231.758 398.356 245.821 408.685 252.773C414.193 256.482 421.059 257.375 427.656 258.366C440.214 260.254 452.655 262.851 464.919 266.145C466.332 266.524 467.868 267.001 468.682 268.219C469.594 269.596 469.294 271.407 468.964 273.029C465.977 288.65 466.994 304.772 471.92 319.893C473.97 326.16 476.717 332.812 474.778 339.115C473.823 342.218 471.816 344.874 469.71 347.346C464.895 353.006 459.424 358.073 453.414 362.443C450.899 364.279 448.004 366.041 444.914 365.699C441.823 365.356 439.076 361.752 440.716 359.108C441.621 357.645 443.414 357.064 444.999 356.354C453.12 352.682 457.441 343.105 456.908 334.201C456.376 325.297 451.811 317.097 446.174 310.188C443.641 307.085 440.801 304.117 437.246 302.281C434.272 300.745 430.936 300.072 427.656 299.423L408.324 295.586C394.861 292.918 380.786 289.913 370.542 280.801C365.646 276.432 361.974 270.9 358.302 265.429C347.642 249.334 337.025 233.062 329.54 215.248C322.056 197.433 317.784 177.918 320.361 158.769C321.585 149.816 324.547 140.643 331.162 134.499C340.023 126.268 367.225 120.307 377.267 128.924C389.806 139.737 390.363 168.126 391.746 183.07Z" fill="#14525F"/>
<path d="M371.992 103.093C382.677 111.226 388.546 124.512 390.118 137.853C391.691 151.194 389.402 164.675 386.318 177.747C380.678 201.627 372.379 224.8 361.576 246.831C355.781 258.654 349.239 270.214 345.439 282.821C337.367 309.588 334.778 323.975 332.686 353.809C332.263 359.928 338.279 365.332 337.918 370.289C337.746 372.676 334.938 375.032 332.557 374.738C319.094 373.104 304.064 372.486 290.582 373.685C278.814 374.732 263.117 376.561 251.356 378.367C250.309 378.526 249.342 377.467 248.853 376.531C248.161 375.215 248.749 373.593 249.556 372.351C257.316 360.406 297.247 367.076 305.019 355.13C307.161 351.832 307.65 347.744 307.907 343.815C308.697 331.625 307.803 319.392 306.61 307.232C302.185 262.167 293.636 217.598 283.563 173.451C280.252 158.953 276.77 143.893 280.002 129.389C281.978 120.491 286.372 112.42 290.919 104.605C293.918 99.4459 296.873 92.1636 303.421 91.0437C309.596 89.985 317.429 91.8392 323.69 91.9922C331.719 92.188 339.79 92.3716 347.74 93.6445C356.387 95.0214 364.948 97.7324 371.992 103.093Z" fill="#539799"/>
<path d="M235.506 45.4029C260.645 53.4502 279.824 64.6737 300.343 81.2701C320.863 97.8666 338.493 118.869 347.55 143.69L343.309 140.6L349.496 153.629L345.47 151.114C347.864 158.38 350.255 165.644 352.642 172.906L335.036 167.447C344.587 188.073 347.27 211.219 342.691 233.484L324.669 225.987C325.964 228.503 326.758 231.247 327.007 234.065L317.038 230.461C317.824 232.049 318.228 233.799 318.219 235.571L310.875 232.388C312.05 236.815 313.223 241.237 314.394 245.656L286.801 240.577C288.178 246.317 293.483 254.652 296.2 257.681C297.198 258.813 226.437 263.299 197.485 250.753C168.533 238.208 143.314 218.374 119.728 197.396C115.708 206.955 70.4654 246.256 45.5156 257.552C42.9148 253.471 38.0681 238.006 39.445 232.027C32.2054 231.556 26.2571 237.596 18.4607 244.469C16.6799 234.959 20.7984 221.183 27.1078 216.049C24.3391 215.468 21.4719 215.553 18.7427 216.298C16.0135 217.043 13.5004 218.426 11.4109 220.333C12.6002 214.765 15.1934 209.593 18.9442 205.309C13.8978 207.239 9.3685 210.314 5.71353 214.293C4.2142 181.546 -3.33743 149.706 11.619 120.54C19.0604 106.03 27.3097 91.7775 38.2272 79.6545C68.4153 46.1067 99.3439 47.5203 143.797 39.8647C172.455 34.9261 205.777 35.8746 235.506 45.4029Z" fill="#66CDD0"/>
<path d="M165.595 17.81C169.742 16.3324 174.18 15.8605 178.544 16.4331C171.749 13.7412 164.569 12.1485 157.273 11.7149L161.556 7.76159C156.477 8.93656 151.436 10.2706 146.435 11.7638C146.218 10.34 146.014 8.91209 145.823 7.48009C145.452 8.17854 144.894 8.75921 144.21 9.1562C143.527 9.55318 142.745 9.75058 141.955 9.726C141.9 9.23031 141.851 8.7285 141.796 8.23281C140.53 9.80629 138.852 10.997 136.949 11.672C134.906 6.68519 131.119 2.61139 126.295 0.209961C127.362 3.79148 127.465 7.59105 126.595 11.2253C123.319 7.57698 118.844 5.22346 113.982 4.59162C114.775 5.7517 115.394 7.02178 115.818 8.36132C107.84 4.39601 98.8264 3.0061 90.0239 4.38355C92.3552 4.89584 94.5849 5.79346 96.6208 7.03948C87.1794 6.52152 77.7769 8.60439 69.4374 13.0612L74.737 12.743C66.6198 13.1467 58.8803 16.2947 52.7859 21.6715C55.8126 21.4625 58.8537 21.6684 61.8246 22.2835C80.7034 25.7275 97.6907 35.9064 109.631 50.9295C111.583 53.3774 114.319 56.3209 117.299 55.3051C118.909 54.7543 119.906 53.206 120.897 51.8291C124.269 47.1353 128.804 43.4207 133.424 39.9448C144.476 31.6325 156.286 24.3793 168.698 18.2812L165.595 17.81Z" fill="#56ABAE"/>
<path d="M407.798 90.511C418.202 80.7196 427.35 68.7067 440.612 63.3521C446.37 61.0266 452.612 60.1148 458.812 59.8394C472.379 59.2274 486.27 61.7242 498.118 68.3702C509.966 75.0161 519.579 86.0498 523.178 99.1458C526.14 109.916 525.014 121.311 525.014 132.486C525.014 143.66 526.47 155.557 533.581 164.185C539.224 171.045 547.656 174.876 554.884 179.998C561.328 184.57 567.484 192.666 563.984 199.789C561.536 204.685 555.202 206.674 549.841 205.511C544.48 204.349 540.007 200.738 536.103 196.889C522.256 183.146 513.195 165.315 510.259 146.028C508.068 131.341 509.396 115.73 503.014 102.322C496.447 88.5282 481.944 79.1652 466.73 77.721C451.517 76.2767 435.997 82.3535 424.964 92.9283C418.605 99.0479 413.685 106.434 407.884 113.068C402.082 119.702 395.033 125.742 386.428 127.755C377.824 129.768 367.604 126.531 363.694 118.661C361.632 114.506 361.534 108.025 365.989 105.259C369.495 103.081 372.647 105.112 376.441 105.259C388.313 105.804 399.518 98.3135 407.798 90.511Z" fill="#56ABAE"/>
<path d="M225.415 281.53C215.461 274.794 206.444 266.769 198.599 257.663C199.973 262.518 201.352 267.367 202.735 272.21C198.817 267.462 194.304 263.237 189.309 259.64C189.065 265.274 189.798 270.907 191.475 276.291C176.837 263.126 164.372 247.728 154.543 230.669C151.953 240.311 151.743 250.438 153.931 260.178C148.48 252.449 144.516 243.773 142.243 234.592C141.81 240.712 141.378 246.831 140.945 252.951C133.123 237.171 126.376 220.88 120.751 204.19C119.239 199.704 117.905 194.435 120.573 190.531C124.422 184.901 133.039 186.516 139.36 189.056C161.447 197.958 181.916 210.438 199.945 225.994C207.062 232.114 217.141 238.686 217.214 248.6C217.343 260.741 219.583 270.374 225.415 281.53Z" fill="#56ABAE"/>
<path d="M338.995 94.8072C337.814 97.8303 338.346 101.27 339.442 104.323C342.618 113.16 349.962 119.708 355.524 127.266C364.122 138.967 368.498 153.238 371.325 167.478C373.675 179.3 375.058 191.293 375.462 203.339C375.493 204.294 375.566 205.365 376.288 205.995C377.616 207.164 379.63 205.811 380.774 204.465C385.553 198.817 388.766 192.012 391.398 185.096C396.342 172.104 399.427 158.219 398.698 144.333C397.97 130.448 393.221 116.532 384.011 106.141C378.068 99.4334 370.357 94.5344 361.76 92.0044C355.708 90.2726 342.006 87.1087 338.995 94.8072Z" fill="#E83A7E"/>
<path d="M316.97 117.939L304.462 110.596C306.954 112.772 309.263 115.151 311.365 117.707L307.546 115.106C315.285 125.319 319.461 137.787 319.437 150.6C317.215 141.653 312.093 133.599 305.729 126.941C299.364 120.283 291.745 114.916 283.875 110.106C286.179 111.056 288.238 112.512 289.903 114.365C291.567 116.219 292.793 118.424 293.489 120.816C287.154 114.978 279.787 110.371 271.765 107.23C273.303 106.871 274.919 107.057 276.336 107.756L265.541 98.8522C274.116 98.9968 282.494 101.449 289.793 105.951C282.501 97.9258 273.924 91.1694 264.415 85.9581C275.402 89.7653 285.561 95.6351 294.346 103.252C288.494 95.8078 281.683 89.1696 274.09 83.5103C280.681 88.406 289.879 90.0154 296.659 94.9356C304.915 100.927 311.885 109.139 316.97 117.939Z" fill="#56ABAE"/>
<path d="M300.38 163.335C304.547 169.204 307.897 175.613 310.337 182.385C308.585 179.059 305.978 176.26 302.785 174.277C304.305 176.588 305.585 179.049 306.604 181.62L304.701 179.564L307.363 188.572C304.963 184.088 301.453 180.295 297.167 177.557C302.987 185.811 307.731 194.773 311.285 204.226C310.319 200.73 309.354 197.236 308.391 193.743C311.202 197.568 313.705 201.609 315.875 205.83C315.135 200.087 313.696 194.456 311.591 189.062C315.642 193.543 318.679 198.845 320.495 204.606C319.749 200.469 319.004 196.336 318.262 192.207C323.769 199.012 327.27 206.546 330.366 214.648C332.692 205.524 326.272 194.937 321.75 187.514C318.884 182.804 315.596 178.363 311.928 174.246C308.587 170.464 303.207 167.313 300.38 163.335Z" fill="#56ABAE"/>
<path d="M189.486 169.344C185.211 164.61 179.911 160.914 173.991 158.537L177.939 164.987C176.505 163.076 174.685 161.489 172.596 160.33C173.233 162.855 173.871 165.381 174.512 167.906C172.215 165.503 169.571 163.458 166.666 161.841C169.469 174.436 172.284 187.342 170.619 200.132C162.973 185.567 152.24 172.846 139.171 162.857C141.991 172.052 142.483 181.802 140.603 191.234C137.58 183.576 133.698 176.285 129.03 169.503C128.443 171.718 127.853 173.938 127.262 176.161C126.901 173.703 126.265 171.293 125.365 168.977C125.148 168.172 124.634 167.478 123.927 167.037C123.039 166.633 122.011 167.037 121.13 167.459C112.893 171.296 104.062 175.696 100.054 183.854C100.319 178.309 101.245 172.815 102.814 167.49C93.339 176.525 86.0764 187.624 81.591 199.924C79.8783 190.365 79.4522 180.619 80.3242 170.947C72.6379 183.862 67.9628 198.343 66.6469 213.314C63.3126 204.283 61.181 194.854 60.3069 185.267C60.5394 188.717 59.9084 192.171 58.471 195.316C57.6836 189.453 57.1879 183.558 56.9839 177.63L53.7956 185.12C53.3876 179.062 52.9633 173.002 52.5227 166.939L45.271 184.625C43.8879 176.057 43.9491 167 47.4802 159.087C53.2449 146.169 67.2894 138.648 81.2422 136.316C95.195 133.985 109.448 135.882 123.578 136.61C133.694 137.13 143.864 137.051 153.901 138.446C162.119 139.584 173.747 141.506 179.885 147.699C181.904 149.737 183.183 152.595 184.56 155.091C185.915 157.38 187.056 159.789 187.969 162.288C188.446 163.775 188.568 168.322 189.486 169.344Z" fill="#56ABAE"/>
<path d="M144.629 17.388C160.834 14.4139 178.049 15.7847 192.974 22.7733C207.9 29.7619 220.256 42.656 225.182 58.3468C224.861 58.0032 224.45 57.7564 223.996 57.6342C223.541 57.512 223.062 57.5193 222.612 57.6552C224.666 60.3877 226.171 63.4926 227.042 66.798L224.442 65.9535C228.113 76.4425 231.801 86.9296 235.506 97.4145C227.926 92.9125 219.825 89.3531 211.382 86.8153C221.574 95.7318 228.977 107.399 232.703 120.418C227.839 116.951 222.512 114.185 216.878 112.2C219.559 113.974 221.904 116.21 223.805 118.803C221.155 117.848 218.647 116.536 216.351 114.904C219.159 117.581 221.301 120.878 222.606 124.531L215.788 121.605C219.077 125.906 221.675 130.695 223.487 135.797L202.466 126.544C206.358 132.713 210.281 138.961 212.521 145.9L199.235 139.322L203.843 148.452L197.656 144.089C198.626 144.93 199.402 145.972 199.931 147.143C200.459 148.314 200.727 149.585 200.716 150.87C198.203 147.62 194.538 145.459 190.478 144.836C192.18 149.424 193.645 154.098 194.865 158.837C191.732 153.06 184.75 150.441 178.195 149.921C171.641 149.401 165.032 150.484 158.49 149.878C152.879 149.352 147.475 147.596 142.224 145.509C131.209 141.103 120.243 134.683 114.38 124.335C111.436 119.133 109.955 113.246 108.719 107.396C106.847 98.5099 105.47 89.3244 107.012 80.3713C109.111 68.1871 116.393 57.5634 120.291 45.8321C121.895 40.9915 122.935 35.9428 125.034 31.2918C128.669 23.1956 136.111 18.9485 144.629 17.388Z" fill="#66CDD0"/>
<path d="M165.962 147.956C172.847 146.365 180.784 143.158 186.341 147.515C182.326 142.363 178.13 137.359 173.753 132.504C181.562 133.132 188.996 136.12 195.067 141.071L185.062 124.628C190.218 126.483 194.725 129.795 198.035 134.162C198.464 133.52 198.005 132.681 197.57 132.039C197.136 131.396 196.738 130.509 197.234 129.921C197.283 129.862 197.347 129.817 197.418 129.79C197.49 129.764 197.568 129.756 197.644 129.768C196.326 127.027 195.006 124.285 193.684 121.544L196.132 123.3C195.294 121.33 194.022 119.575 192.411 118.166L198.702 121.58C194.536 111.459 188.788 102.065 181.672 93.7483C188.657 96.9822 195.098 101.28 200.765 106.489C196.792 96.8568 191.079 88.0382 183.911 80.4748C193.642 84.0738 202.733 89.2102 210.838 95.6882C208.508 92.0654 206.181 88.4405 203.855 84.8136C203.531 84.3118 203.2 83.6448 203.537 83.1491C203.569 83.1011 203.612 83.0608 203.662 83.0311C203.711 83.0015 203.767 82.9833 203.825 82.9778L197.313 75.5057L205.495 79.6058L193.287 68.9393C201.28 71.2421 208.828 74.8727 215.617 79.6793C207.11 70.0554 197.241 61.7281 186.322 54.9621C197.601 56.7783 208.35 61.0232 217.826 67.4033C214.81 62.0347 211.342 56.9329 207.46 52.1531L213.751 55.8249C209.707 50.4926 204.815 45.8597 199.272 42.1108C205.449 43.6438 211.26 46.392 216.364 50.1949C214.369 48.7139 212.508 42.8023 211.021 40.5626C209.001 37.4938 206.751 34.5826 204.29 31.8543C201.879 29.2032 199.262 26.7476 196.463 24.5107C209.804 31.7931 220.672 43.861 225.225 58.3401C224.904 57.9966 224.493 57.7497 224.039 57.6275C223.584 57.5053 223.105 57.5126 222.655 57.6486C224.709 60.381 226.213 63.4859 227.085 66.7913L224.485 65.9468C228.156 76.4359 231.844 86.9229 235.549 97.4079C227.969 92.9058 219.868 89.3464 211.425 86.8086C221.602 95.7324 228.99 107.402 232.703 120.418C227.839 116.951 222.512 114.184 216.878 112.199C219.559 113.974 221.904 116.209 223.805 118.802C221.155 117.847 218.648 116.536 216.352 114.904C219.159 117.58 221.301 120.877 222.606 124.53L215.788 121.605C219.078 125.906 221.675 130.694 223.487 135.796L202.466 126.543C206.358 132.712 210.281 138.96 212.521 145.9L199.235 139.321L203.843 148.452L197.656 144.088C198.626 144.93 199.402 145.972 199.931 147.143C200.459 148.313 200.727 149.585 200.716 150.869C198.203 147.619 194.538 145.459 190.478 144.835C192.18 149.424 193.645 154.097 194.865 158.837C191.732 153.06 184.75 150.441 178.196 149.92C171.641 149.4 165.032 150.483 158.49 149.878C156.009 149.632 153.553 149.179 151.147 148.525C156.078 149.256 161.102 149.063 165.962 147.956Z" fill="#56ABAE"/>
<path d="M100.837 17.7854C84.8222 13.93 67.5648 14.3462 52.284 20.5086C37.0033 26.6711 23.9379 38.8675 18.1548 54.2829C18.4943 53.9564 18.9183 53.7312 19.3789 53.6328C19.8396 53.5344 20.3185 53.5667 20.7618 53.726C18.571 56.346 16.9084 59.3656 15.8661 62.6179L18.5036 61.9141C14.2525 72.1828 9.99529 82.4516 5.73195 92.7204C13.537 88.6368 21.8105 85.5194 30.3696 83.4369C19.697 91.769 11.6546 103.003 7.2068 115.791C12.2648 112.594 17.7463 110.122 23.4911 108.448C20.7163 110.075 18.2509 112.18 16.2088 114.665C18.9084 113.857 21.4859 112.685 23.8706 111.183C20.917 113.699 18.5946 116.872 17.09 120.448L24.0603 117.903C20.5384 122.017 17.6808 126.657 15.5907 131.653L37.089 123.563C32.8725 129.512 28.6072 135.533 25.988 142.338L39.6164 136.5L34.5126 145.368L40.9321 141.353C39.9107 142.14 39.0733 143.14 38.4782 144.283C37.8832 145.427 37.5448 146.687 37.4868 147.975C40.1781 144.87 43.9595 142.918 48.0493 142.522C46.0971 147.01 44.3772 151.596 42.8965 156.261C46.348 150.661 53.459 148.434 60.0315 148.274C66.604 148.115 73.1459 149.56 79.7122 149.309C85.3423 149.101 90.8561 147.638 96.1924 145.845C107.465 142.051 118.737 136.243 125.157 126.262C128.388 121.226 130.187 115.43 131.741 109.653C134.104 100.884 135.982 91.7902 134.93 82.7698C133.51 70.4877 126.821 59.4785 123.578 47.5513C122.238 42.6556 121.479 37.5273 119.637 32.7724C116.43 24.4619 109.258 19.7926 100.837 17.7854Z" fill="#66CDD0"/>
<path d="M30.3696 83.5102C21.8011 85.5825 13.5173 88.6918 5.70134 92.7692C9.96061 82.5005 14.2178 72.2317 18.473 61.963L15.8355 62.6606C16.878 59.4102 18.5405 56.3927 20.7312 53.7749C20.2883 53.6162 19.81 53.5837 19.3497 53.6809C18.8893 53.7782 18.4651 54.0014 18.1242 54.3256C23.9073 38.9042 36.9788 26.7138 52.2534 20.5575L53.0612 20.2393C48.6668 26.0524 43.7684 31.4668 38.4231 36.4196C34.9716 39.614 31.0795 43.0716 30.5654 47.747C36.6227 43.0593 44.1896 40.7577 51.8312 41.2786C46.7396 45.752 40.5894 48.8424 35.1796 52.9059C29.7699 56.9693 24.8925 62.5504 24.0847 69.282C25.8571 66.9669 28.3949 65.3575 31.2447 64.7413C29.4173 66.5165 27.9429 68.6221 26.8998 70.9466C29.713 69.09 32.873 67.8222 36.1894 67.2197C32.575 69.9486 29.6424 73.4782 27.6219 77.5313C32.619 75.2141 38.0556 73.9974 43.5637 73.9636C49.0718 73.9299 54.5229 75.0797 59.548 77.3355C52.8164 78.8225 45.9747 80.3525 39.9652 83.706C33.9557 87.0596 28.7356 92.5611 27.4199 99.3295C31.0293 94.8446 36.2325 91.9284 41.9419 91.1903C37.2239 97.979 33.1955 105.222 29.9167 112.811L37.0461 112.597C36.8014 113.625 36.5504 114.653 36.3057 115.657C37.9905 115.249 39.4876 114.283 40.5527 112.915C40.1916 113.968 39.8367 115.02 39.4756 116.067C41.0609 114.93 42.8224 114.061 44.6896 113.496C42.8863 117.352 41.083 121.211 39.2798 125.075C46.8987 125.907 53.4467 116.183 60.6985 118.637C55.5769 123.472 51.2006 129.041 47.7127 135.16L57.8896 134.915L56.4515 137.712C59.3729 136.375 62.5355 135.647 65.7472 135.57C61.9039 137.263 58.5736 139.937 56.0905 143.324L91.517 144.645C93.3605 144.654 95.1887 144.981 96.9207 145.612L96.1802 145.863C90.8438 147.662 85.3301 149.119 79.7 149.333C73.1336 149.584 66.5917 148.109 60.0192 148.293C53.4468 148.476 46.3357 150.685 42.8843 156.285C44.365 151.618 46.0848 147.03 48.037 142.54C43.9487 142.948 40.1726 144.908 37.4867 148.017C37.5499 146.734 37.8907 145.48 38.4855 144.341C39.0803 143.202 39.915 142.205 40.9321 141.42L34.5126 145.441L39.6164 136.574L25.988 142.412C28.6072 135.607 32.8664 129.56 37.0889 123.637L15.5907 131.721C17.6823 126.727 20.5398 122.089 24.0602 117.976L17.09 120.522C18.5944 116.944 20.9167 113.768 23.8705 111.251C21.4874 112.757 18.9096 113.93 16.2087 114.739C18.2498 112.254 20.7155 110.151 23.4911 108.527C17.7472 110.204 12.266 112.676 7.20679 115.871C11.6517 103.079 19.6945 91.8425 30.3696 83.5102Z" fill="#56ABAE"/>
<path d="M168.643 58.597L163.747 56.908C164.927 57.5635 165.947 58.4727 166.733 59.57L164.83 59.1906L166.054 61.1183C162.368 58.8877 158.033 57.975 153.76 58.5297C162.08 66.1657 167.921 76.1203 170.528 87.1084C169.246 84.6702 167.488 82.5139 165.359 80.7669C163.229 79.0199 160.771 77.7178 158.129 76.9375C161.324 80.0112 163.901 83.6669 165.724 87.7081C164.057 85.6398 162.137 83.7893 160.008 82.2004C160.659 84.0623 161.59 85.8142 162.768 87.396C160.641 84.6802 157.677 82.7438 154.335 81.8883C158.779 87.1817 161.633 93.6255 162.566 100.474C160.797 98.0258 158.894 95.578 156.446 93.84C153.998 92.102 150.773 91.1229 147.842 91.9245C152.24 94.3488 155.66 98.225 157.517 102.891C154.516 100.808 151.072 99.4502 147.457 98.9254C149.604 99.7235 151.44 101.188 152.695 103.105C150.683 101.887 148.498 100.981 146.214 100.419C150.412 104.816 152.904 110.566 153.246 116.636C151.066 113.815 147.862 111.968 144.329 111.495C147.469 114.13 150.051 117.365 151.924 121.011C149.644 118.942 146.812 117.582 143.773 117.095C145.136 118.909 146.363 120.821 147.444 122.816C145.967 121.593 144.497 120.369 143.032 119.145C144.84 120.699 146.072 122.818 146.527 125.159C146.983 127.5 146.635 129.926 145.541 132.045C144.581 129.353 143.063 126.894 141.086 124.83C143.243 128.214 144.111 132.26 143.534 136.231C141.631 131.335 135.615 129.615 131.907 125.876C129.654 123.606 128.302 120.607 127.28 117.59C123.37 106.079 123.608 93.5585 125.444 81.5456C126.258 76.038 127.439 70.4874 130.419 65.7937C134.422 59.4966 142.83 52.2387 149.911 49.5522C153.582 48.1569 157.78 49.032 161.207 50.6843C162.933 51.4739 164.507 52.5591 165.858 53.891C166.458 54.5397 168.3 58.4807 168.643 58.597Z" fill="#56ABAE"/>
<path d="M73.1458 59.3255L78.0415 57.5508C76.8669 58.2182 75.8569 59.1404 75.0857 60.2495L76.9828 59.8273L75.8078 61.7794C79.4528 59.4868 83.7671 58.4966 88.0471 58.9705C79.8856 66.7612 74.2438 76.8172 71.8484 87.843C73.0835 85.3812 74.7999 83.192 76.8958 81.4051C78.9918 79.6182 81.4248 78.2698 84.051 77.4396C80.9039 80.5647 78.3823 84.2618 76.6217 88.3325C78.2491 86.2319 80.1345 84.3444 82.2334 82.7147C81.6185 84.5883 80.7208 86.3569 79.5714 87.9592C81.6423 85.1991 84.5688 83.2022 87.8941 82.2802C83.5562 87.6592 80.828 94.1553 80.0242 101.019C81.75 98.534 83.5859 96.0616 86.0276 94.2869C88.4693 92.5122 91.6515 91.4597 94.5951 92.2063C90.2461 94.716 86.9024 98.6567 85.1341 103.356C88.0943 101.217 91.5112 99.7941 95.1152 99.201C92.9857 100.044 91.1806 101.545 89.9625 103.485C91.9501 102.229 94.1166 101.282 96.3881 100.676C92.2699 105.152 89.8831 110.95 89.6565 117.028C91.7774 114.162 94.9449 112.25 98.4688 111.71C95.3616 114.415 92.8308 117.717 91.0273 121.421C93.2773 119.313 96.0928 117.905 99.1297 117.37C97.7974 119.21 96.6048 121.147 95.562 123.166L99.9069 119.402C98.1284 120.991 96.9379 123.134 96.5281 125.484C96.1184 127.834 96.5132 130.253 97.6488 132.351C98.5491 129.644 100.009 127.157 101.933 125.05C99.8436 128.475 99.0552 132.537 99.7111 136.494C101.516 131.598 107.495 129.726 111.124 125.919C113.327 123.606 114.625 120.583 115.592 117.548C119.263 105.963 118.774 93.4486 116.754 81.4418C115.836 75.977 114.545 70.4265 111.479 65.7939C107.385 59.5702 98.836 52.5082 91.7066 49.9563C88.0348 48.6345 83.8306 49.583 80.4342 51.3026C78.7254 52.129 77.1726 53.2449 75.8445 54.6011C75.2509 55.2253 73.4823 59.2031 73.1458 59.3255Z" fill="#56ABAE"/>
<path d="M132.751 52.0029C129.398 52.6149 126.252 54.1142 122.831 54.3589C120.255 54.5364 117.691 54.004 115.176 53.4777C107.563 51.8805 100.788 52.9392 93.1448 51.342C93.5548 61.2986 99.9437 119.502 104.491 134.128C105.274 136.65 106.327 141.839 113.211 142.794C116.883 143.302 120.408 144.728 123.67 143.198C126.931 141.668 129.257 138.914 131.013 136.087C137.58 125.273 148.76 58.251 150.21 50.3506C145.976 53.1167 137.806 51.036 132.751 52.0029Z" fill="white"/>
<path d="M122.862 61.822C122.923 76.2766 122.905 90.7435 123.921 105.161C124.159 108.545 124.404 112.181 122.66 115.093C120.916 118.006 116.302 119.377 114.092 116.77C112.869 115.289 112.838 113.172 112.869 111.263C113.109 101.663 113.35 92.0612 113.591 82.4575C113.774 75.2363 113.964 67.9478 115.653 60.9286C117.091 55.1088 122.837 56.0023 122.862 61.822Z" fill="#3D392C"/>
<path d="M136.184 124.751C137.263 126.62 137.991 128.671 138.332 130.803C138.944 135.35 136.827 140.025 133.436 143.085C130.046 146.145 125.438 147.718 120.867 148.079C118.003 148.305 115.004 148.079 112.483 146.69C110.084 145.386 108.309 143.189 106.779 140.937C105.262 138.826 104.073 136.496 103.254 134.028C102.453 131.185 102.357 128.189 102.974 125.3C103.592 122.412 104.904 119.717 106.798 117.45C110.133 113.46 117.354 108.882 122.586 111.263C128.223 113.858 133.265 119.359 136.184 124.751Z" fill="#3D392C"/>
<path d="M144.978 53.0468C142.089 53.7811 139.054 53.8056 136.153 54.4971C131.79 55.5375 127.855 58.0465 123.437 58.7809C122.385 59.0168 121.291 58.9746 120.261 58.6585C119.749 58.4899 119.297 58.1774 118.958 57.7584C118.62 57.3395 118.409 56.8319 118.351 56.2963C118.29 54.4604 120.438 53.4139 122.219 52.906C125.028 52.1105 127.855 51.3945 130.707 50.7764C131.859 50.4865 133.038 50.3142 134.226 50.2623C135.806 50.3282 137.379 50.5102 138.932 50.807C141.631 51.16 144.372 51.0336 147.028 50.4337C148.986 49.9931 150.853 49.2098 152.058 47.5269C150.792 50.4949 148.032 52.2696 144.978 53.0468Z" fill="#56ABAE"/>
<path d="M95.4459 52.2263C98.3099 53.0646 101.339 53.1932 104.215 53.9826C108.536 55.2065 112.385 57.8196 116.779 58.7253C117.819 59.0048 118.915 59.0048 119.955 58.7253C120.472 58.5747 120.934 58.2779 121.285 57.8707C121.637 57.4636 121.864 56.9634 121.938 56.4304C122.066 54.5946 119.955 53.4808 118.193 52.9055C115.414 52.0121 112.611 51.1961 109.784 50.4577C108.64 50.1386 107.468 49.9336 106.284 49.8457C104.704 49.8592 103.127 49.986 101.566 50.2251C98.8529 50.4811 96.1164 50.2574 93.4815 49.5642C91.5415 49.0502 89.6995 48.1812 88.549 46.5044C89.7301 49.4785 92.4228 51.3511 95.4459 52.2263Z" fill="#56ABAE"/>
<path d="M142.212 59.748C140.861 61.2036 139.046 62.1446 137.078 62.41C134.752 62.716 132.182 61.9204 130.811 60.0356C129.44 58.1508 129.587 55.1399 131.423 53.714C132.075 53.2511 132.808 52.9148 133.583 52.7226C135.744 52.1107 139.532 51.3396 141.68 52.4228C144.684 53.9343 144.134 57.6551 142.212 59.748Z" fill="#54504D"/>
<path d="M100.188 60.886C101.661 62.2204 103.552 63.0014 105.537 63.0952C107.875 63.1931 110.353 62.1834 111.565 60.1822C112.777 58.1811 112.367 55.207 110.396 53.9402C109.705 53.5385 108.945 53.2668 108.156 53.1385C105.953 52.704 102.11 52.2818 100.066 53.5486C97.2204 55.2865 98.0711 58.9583 100.188 60.886Z" fill="#54504D"/>
<path d="M125.86 116.697C126.503 117.163 127.182 117.768 127.201 118.564C127.133 119.207 126.843 119.807 126.381 120.259L121.822 125.81C121.65 126.024 121.369 126.256 121.136 126.103C120.928 124.304 120.928 122.487 121.136 120.687L121.448 116.777C121.699 113.625 124.386 115.627 125.86 116.697Z" fill="#54504D"/>
<path d="M110.812 116.991C110.2 117.505 109.588 118.16 109.588 118.955C109.703 119.593 110.039 120.169 110.537 120.583L115.481 125.785C115.671 125.981 115.971 126.195 116.191 126.03C116.268 124.219 116.132 122.405 115.787 120.626C115.592 119.335 115.39 118.037 115.175 116.746C114.741 113.625 112.201 115.816 110.812 116.991Z" fill="#54504D"/>
<path d="M119.998 138.373C117.555 138.481 115.118 138.065 112.85 137.153C110.582 136.241 108.535 134.854 106.847 133.085C107.459 134.309 108.603 135.117 109.717 135.882C110.892 136.735 112.135 137.492 113.431 138.146C116.545 139.58 120.033 139.989 123.394 139.315C126.742 138.632 129.85 137.076 132.402 134.805C133.738 133.735 134.789 132.352 135.462 130.778C135.009 132.002 131.711 134.921 128.896 136.286C126.106 137.59 123.076 138.301 119.998 138.373Z" fill="#54504D"/>
<path d="M101 218.589C98.1905 221.591 95.8713 225.018 94.1276 228.742C89.3176 239.206 88.041 251.672 88.6959 263.171C86.5186 258.311 83.73 253.75 80.3976 249.597C80.4162 249.779 80.3831 249.963 80.302 250.127C80.2209 250.291 80.0951 250.429 79.9392 250.525C79.7833 250.621 79.6034 250.671 79.4204 250.669C79.2374 250.667 79.0585 250.614 78.9044 250.515C75.3418 260.256 74.0586 270.683 75.1531 280.997C70.6222 273.028 65.4936 265.413 59.8112 258.22C59.281 265.679 60.2442 273.168 62.6445 280.25C50.1482 266.506 37.2236 251.99 32.6583 233.986C27.8334 241.213 24.2279 249.182 21.9857 257.577C21.5854 254.103 20.7316 250.696 19.446 247.443C19.1156 249.777 18.7831 252.108 18.4485 254.438C16.1908 249.535 14.9533 244.225 14.8112 238.829C14.6692 233.433 15.6256 228.065 17.6224 223.05C15.4734 226.194 13.6661 229.559 12.231 233.086L10.6889 218.589C8.73244 222.217 7.44514 226.168 6.88854 230.253C-1.7891 204.985 -1.7524 177.226 4.12245 151.157C6.23985 141.775 9.29968 132.186 15.915 125.209C9.54175 138.789 7.94379 154.124 11.3804 168.726C11.0355 166.147 11.5725 163.527 12.9042 161.291C14.5007 175.057 17.6204 188.603 22.206 201.68C23.1307 194.856 24.6668 188.127 26.7957 181.577C29.0339 200.366 35.1769 218.478 44.8303 234.751C44.4547 227.119 44.9516 219.469 46.3112 211.949C48.2654 218.779 50.2217 225.608 52.18 232.438C52.9633 227.807 53.7486 223.175 54.536 218.54C54.3116 224.528 55.3047 230.499 57.4551 236.091C62.6577 226.887 70.2559 219.263 79.443 214.03L73.9904 231.024C77.705 223.968 84.4611 218.895 91.7679 215.688C99.0748 212.482 101.602 210.083 112.954 206.142C109.894 210.615 104.556 214.764 101 218.589Z" fill="#56ABAE"/>
</svg>
