<svg width="473" height="406" viewBox="0 0 473 406" fill="none" xmlns="http://www.w3.org/2000/svg">
<path d="M7.28507 295.941C-20.1561 312.224 35.4394 431.098 82.3449 401.118C108.188 384.603 116.235 355.27 238.388 244.094C337.909 153.551 401.487 90.828 469.485 26.3248C490.432 6.45592 409.241 -6.76136 374.673 4.10382C337.06 15.925 239.865 157.921 7.28507 295.941Z" fill="#541C0A"/>
<path d="M469.495 26.3253C401.492 90.8083 337.919 153.531 238.388 244.094C116.205 355.291 108.187 384.593 82.3397 401.114C43.7703 425.773 -0.676798 349.777 0.0263024 312.943C9.63703 351.603 44.8932 402.474 77.6962 382.56C103.928 366.656 112.644 337.541 237.411 229.294C338.577 141.548 403.439 80.5197 472.566 17.9893C473.456 20.5791 472.591 23.3763 469.495 26.3253Z" fill="#741900"/>
<path d="M260.629 96.2608C264.888 68.4858 313.058 85.2084 306.154 99.9634C294.676 124.592 279.491 111.815 277.827 108.669C273.973 101.365 258.985 107.07 260.629 96.2608Z" fill="#56ABAE"/>
<path d="M289.502 103.282C293.68 102.093 295.88 104.683 298.647 106.18C301.318 107.864 303.974 109.584 306.594 111.37C309.214 113.155 311.804 114.992 314.348 116.934C316.892 118.876 319.406 120.814 321.849 122.968C322.359 123.467 322.669 124.134 322.721 124.845C322.773 125.555 322.564 126.261 322.133 126.828C321.832 127.265 321.396 127.592 320.891 127.757C320.387 127.923 319.842 127.918 319.341 127.743C316.371 126.62 313.508 125.3 310.666 123.94C307.823 122.579 305.016 121.092 302.249 119.635C299.482 118.178 296.74 116.6 294.019 114.992C291.399 113.206 288.202 112.518 286.993 108.052C286.734 107.129 286.82 106.144 287.235 105.281C287.651 104.418 288.367 103.736 289.249 103.363C289.332 103.331 289.416 103.304 289.502 103.282Z" fill="white"/>
<path d="M296.604 100.292C300.104 100.838 302.764 102.492 305.233 104.399C307.701 106.306 310.175 108.218 312.598 110.191C313.808 111.179 315.006 112.191 316.189 113.226C317.383 114.238 318.567 115.249 319.73 116.317C322.067 118.401 324.353 120.556 326.533 122.852C326.855 123.19 327.046 123.63 327.073 124.096C327.1 124.561 326.961 125.021 326.68 125.394C326.4 125.766 325.996 126.027 325.541 126.129C325.086 126.231 324.61 126.169 324.196 125.953C321.389 124.491 318.688 122.887 316.037 121.218C314.702 120.394 313.392 119.539 312.092 118.689C310.792 117.839 309.482 116.964 308.202 116.074C305.638 114.288 303.098 112.472 300.615 110.596C298.131 108.719 295.774 106.645 294.282 103.433C294.037 102.903 294.013 102.298 294.214 101.75C294.415 101.202 294.825 100.756 295.354 100.51C295.74 100.314 296.175 100.239 296.604 100.292Z" fill="white"/>
<path d="M303.149 94.7887C305.85 95.4614 307.772 96.9182 309.492 98.5723C311.212 100.226 312.81 101.992 314.414 103.752C316.017 105.512 317.57 107.348 319.062 109.215C320.591 111.083 322.016 113.033 323.331 115.057C323.481 115.286 323.584 115.542 323.634 115.811C323.685 116.08 323.681 116.356 323.624 116.624C323.567 116.891 323.458 117.145 323.303 117.37C323.148 117.595 322.949 117.787 322.719 117.935C322.461 118.104 322.166 118.21 321.859 118.244C321.367 118.318 320.865 118.208 320.448 117.935C318.433 116.613 316.49 115.184 314.626 113.656C312.755 112.139 310.954 110.581 309.178 108.972C307.403 107.364 305.703 105.715 304.019 104.025C303.852 103.858 303.685 103.676 303.513 103.519C301.944 101.891 300.818 99.8885 300.24 97.7023C300.104 97.1776 300.16 96.6215 300.397 96.1342C300.541 95.8043 300.759 95.5116 301.033 95.2785C301.308 95.0453 301.632 94.8778 301.98 94.7887C302.363 94.6863 302.766 94.6863 303.149 94.7887Z" fill="white"/>
<path d="M302.8 102.634C302.8 102.634 314.515 109.038 321.859 118.259L302.8 102.634Z" fill="#1D7284"/>
<path d="M294.393 103.616C294.393 103.616 308 116.975 322.719 125.139C322.719 125.139 303.189 116.034 294.393 103.616Z" fill="#1D7284"/>
<path d="M391.193 284.591C370.707 315.664 362.407 336.433 306.857 374.947C251.307 413.461 150.849 364.785 155.988 333.646C164.395 282.689 181.057 263.179 200.167 252.81C200.491 252.628 204.862 250.422 205.185 250.28C218.741 244.028 233.228 241.241 246.663 234.382C246.764 234.337 254.615 229.734 254.706 229.673C260.648 225.626 265.896 220.643 270.245 214.918C275.146 208.483 280.512 202.415 286.3 196.764C292.955 190.222 300.336 184.462 308.298 179.596C326.296 168.65 338.946 167.76 340.621 160.88C343.185 150.41 377.485 83.8479 426.546 114.779C485.682 152.084 413.662 250.513 391.193 284.591Z" fill="#56ABAE"/>
<path d="M361.521 215.403C362.113 260.275 291.54 231.059 286.3 196.764C292.955 190.222 300.336 184.462 308.298 179.596C330.408 178.974 361.162 189.884 361.521 215.403Z" fill="#14525F"/>
<path d="M154.688 180.142C161.451 155.787 193.733 146.298 194.239 164.33C194.745 182.363 176.186 234.215 225.813 290.509C275.44 346.803 185.058 379.302 165.796 356.434C146.534 333.565 125.057 286.806 154.688 180.142Z" fill="#56ABAE"/>
<path d="M313.544 362.114C313.544 362.114 320.625 366.788 314.601 381.508C314.601 381.508 323.003 365.716 331.662 356.474L313.544 362.114Z" fill="#56ABAE"/>
<path d="M435.979 209.106C435.979 209.106 428.832 226.304 432.352 237.109C434.75 240.801 424.376 228.767 420.066 229.228L435.979 209.106Z" fill="#56ABAE"/>
<path d="M136.868 290.003C136.868 290.003 144.243 285.835 154.628 297.878C154.628 297.878 144.375 283.209 140.08 271.302L136.868 290.003Z" fill="#56ABAE"/>
<path d="M224.189 173.384C224.189 173.384 231.847 169.757 241.332 182.519C241.332 182.519 232.166 167.157 228.737 154.962L224.189 173.384Z" fill="#56ABAE"/>
<path d="M283.007 248.186C271.408 247.711 258.727 243.578 246.683 234.377C246.789 234.334 246.892 234.285 246.992 234.23C246.992 234.23 247.037 234.23 247.053 234.2C249.594 232.903 252.059 231.459 254.433 229.875C260.462 235.439 267.872 240.644 276.922 245.328C278.945 246.39 280.989 247.341 283.007 248.186Z" fill="#14525F"/>
<path d="M240.446 324.075C238.681 316.488 227.088 298.84 221.66 293.174C201.887 272.537 196.713 249.066 194.062 230.351C198.078 248.732 207.097 269.299 225.793 290.544C236.784 302.982 240.902 314.288 240.446 324.075Z" fill="#14525F"/>
<path d="M287.17 250.235C262.652 241.388 252.232 237.69 244.311 217.295C237.356 199.379 224.174 158.225 229.586 128.295C232.297 113.312 252.854 94.6978 259.127 114.961C276.638 171.741 269.749 168.271 309.507 180.456C315.157 182.186 321.763 184.204 329.492 186.809C387.733 206.445 345.532 271.287 287.17 250.235Z" fill="#56ABAE"/>
<path d="M352.427 144.785C345.072 155.913 382.271 184.199 382.271 184.199C382.271 184.199 421.311 204.756 427.684 196.056C431.533 190.8 368.31 155.959 368.31 155.959L352.427 144.785Z" fill="#14525F"/>
<path d="M438.524 137.784C431.204 130.232 421.786 128.942 417.845 125.862C409.545 119.342 405.579 112.037 389.342 113.418C383.651 113.924 377.814 117.005 372.467 121.168C372.23 121.36 371.962 121.552 371.744 121.759C365.689 126.752 360.35 132.554 355.876 139.003C355.73 139.226 355.578 139.433 355.446 139.64C353.388 142.721 352.083 145.205 351.789 146.555C349.285 161.239 417.431 200.507 426.414 197.032C427.795 196.501 429.793 193.491 431.751 190.603C432.12 190.041 432.504 189.475 432.873 188.928C433.885 187.446 442.413 174.259 443.036 167.36C443.042 167.304 443.057 167.249 443.081 167.198C443.273 166.47 443.45 165.746 443.617 165.018C445.959 154.426 444.892 144.36 438.524 137.784Z" fill="white"/>
<path d="M398.437 141.775C392.2 151.836 381.638 139.585 355.441 139.615C355.573 139.408 355.725 139.201 355.871 138.978C360.345 132.529 365.684 126.727 371.739 121.734C380.05 124.162 404.836 131.467 398.437 141.775Z" fill="#1D7284"/>
<path d="M443.612 165.023C443.445 165.752 443.268 166.475 443.076 167.203C443.051 167.254 443.036 167.309 443.031 167.365C442.408 174.27 433.89 187.452 432.869 188.934C432.499 189.48 432.115 190.046 431.746 190.608C426.991 182.252 422.135 172.98 412.428 157.557C408.381 151.158 414.558 144.168 421.493 145.66C428.316 147.142 437.795 157.082 443.612 165.023Z" fill="#1D7284"/>
<path d="M430.865 138.027C434.786 135.842 445.393 152.119 440.476 153.986C433.774 156.53 420.132 136.995 430.865 138.027Z" fill="#1D7284"/>
<path d="M406.56 150.43C403.439 148.219 395.786 150.258 393.839 151.32C390.986 152.878 397.243 163.202 409.059 163.768C414.047 164.021 407.845 151.355 406.56 150.43Z" fill="#E83A7E"/>
<path d="M379.62 139.342C376.924 138.022 377.668 131.001 380.799 130.273C380.928 130.241 381.06 130.221 381.193 130.212C383.788 130.061 389.216 132.327 391.193 135.139C391.737 135.816 391.999 136.676 391.927 137.542C391.623 139.838 382.407 140.713 379.62 139.342Z" fill="#F1E9E4"/>
<path d="M404.35 170.906C400.827 170.95 397.363 170.002 394.355 168.169C388.512 164.553 385.756 158.387 385.159 153.824C385.133 153.63 385.185 153.433 385.304 153.277C385.423 153.12 385.599 153.018 385.794 152.992C385.988 152.966 386.185 153.018 386.341 153.137C386.497 153.256 386.6 153.432 386.626 153.627C387.197 157.855 389.731 163.561 395.134 166.905C399.899 169.854 405.903 170.218 412.494 167.967C412.586 167.935 412.683 167.922 412.78 167.928C412.877 167.934 412.972 167.96 413.06 168.002C413.147 168.045 413.225 168.105 413.289 168.177C413.354 168.25 413.403 168.335 413.435 168.427C413.466 168.519 413.479 168.617 413.473 168.714C413.467 168.811 413.442 168.906 413.399 168.993C413.357 169.08 413.297 169.159 413.224 169.223C413.151 169.287 413.066 169.337 412.974 169.368C410.204 170.353 407.29 170.872 404.35 170.906Z" fill="#E83A7E"/>
<path d="M387.379 139.262C385.899 139.722 384.299 139.598 382.907 138.916C381.515 138.234 380.437 137.046 379.893 135.594C379.566 134.705 379.478 133.747 379.637 132.813C379.795 131.879 380.196 131.004 380.799 130.273C380.928 130.241 381.06 130.221 381.193 130.212C383.788 130.061 389.216 132.327 391.193 135.139C390.984 136.104 390.52 136.996 389.849 137.721C389.179 138.446 388.326 138.978 387.379 139.262Z" fill="black"/>
<path d="M423.521 165.873C426.212 167.542 432.226 163.02 431.159 159.833C431.116 159.702 431.063 159.573 431.002 159.449C429.702 157.056 424.634 153.48 420.966 153.268C420.047 153.158 419.12 153.396 418.366 153.935C416.429 155.488 420.719 164.143 423.521 165.873Z" fill="#F1E9E4"/>
<path d="M419.332 158.923C419.752 160.506 420.762 161.868 422.153 162.731C423.545 163.595 425.214 163.893 426.819 163.566C427.807 163.374 428.728 162.929 429.493 162.274C430.258 161.62 430.84 160.779 431.184 159.833C431.141 159.702 431.088 159.573 431.027 159.449C429.727 157.056 424.659 153.48 420.992 153.268C420.229 153.972 419.672 154.87 419.38 155.866C419.088 156.862 419.072 157.918 419.332 158.923Z" fill="black"/>
<path d="M400.379 129.392C399.059 130.232 398.123 129.392 397.056 129.099C396.014 128.73 394.982 128.305 393.945 127.895C391.852 127.052 389.81 126.088 387.83 125.007C386.976 124.531 386.323 123.762 385.992 122.843C385.661 121.923 385.674 120.915 386.029 120.004C386.31 119.369 386.795 118.846 387.407 118.517C388.019 118.188 388.723 118.072 389.408 118.188C391.582 118.561 393.73 119.068 395.842 119.706C396.899 120.029 397.961 120.333 399.003 120.717C400.015 121.163 401.189 121.046 401.957 122.614C403.217 125.138 402.499 128.057 400.379 129.392Z" fill="#1D7284"/>
</svg>
