<svg width="681" height="430" viewBox="0 0 681 430" fill="none" xmlns="http://www.w3.org/2000/svg">
<path d="M480.151 295.481C496.831 317.481 522.661 372.481 507.151 372.391C488.354 352.455 472.883 329.627 461.331 304.781C472.753 329.859 480.619 356.408 484.701 383.661C486.631 396.591 482.551 421.101 477.861 411.951C464.981 380.951 451.861 358.731 438.951 327.761C445.673 350.647 446.645 374.839 441.781 398.191L419.281 346.451C425.001 377.451 423.401 433.751 412.611 418.981C402.091 373.151 393.401 345.981 386.901 299.431C388.591 319.291 393.061 341.781 388.901 361.291C386.711 371.611 386.401 382.291 384.081 392.671C381.711 403.229 378.542 413.592 374.601 423.671C374.079 425.348 373.175 426.881 371.961 428.151C371.341 428.77 370.534 429.168 369.665 429.283C368.795 429.399 367.913 429.226 367.151 428.791C365.711 427.791 365.491 425.791 365.411 424.001C363.645 389.541 361.881 355.077 360.121 320.611C361.032 349.931 354.832 379.037 342.051 405.441C340.271 409.101 336.721 413.341 333.051 411.661C330.151 410.351 329.841 406.431 329.951 403.251C330.871 377.991 331.785 352.727 332.691 327.461C332.111 343.641 323.771 361.391 315.881 375.181C307.131 390.451 280.241 427.741 282.441 406.361C282.851 397.361 297.251 347.291 304.611 335.121C318.311 312.441 335.031 291.761 359.611 280.121C396.221 262.811 430.611 271.271 470.291 279.221L480.151 295.481Z" fill="#E83A7E"/>
<path d="M462.351 126.991C467.954 141.501 469.678 157.221 467.351 172.601C455.417 165.068 445.677 154.524 439.111 142.031C442.534 154.233 441.698 167.237 436.741 178.901C432.54 175.468 429.067 171.231 426.523 166.439C423.98 161.646 422.419 156.394 421.931 150.991C422.795 164.025 419.941 177.035 413.701 188.511C403.701 174.751 395.941 158.991 393.431 142.151C390.921 125.311 393.991 107.301 403.741 93.341C413.201 79.851 428.261 70.991 444.131 66.421C460.001 61.851 476.751 61.421 493.241 61.951C555.518 64.1945 616.336 81.4177 670.541 112.161C673.661 113.941 676.891 115.881 678.761 118.941C680.631 122.001 680.631 126.531 677.761 128.741C675.341 130.611 671.921 130.211 668.911 129.651C641.704 124.596 615.582 114.851 591.711 100.851L626.711 152.571C610.621 153.421 594.711 147.651 581.051 139.141C567.391 130.631 555.581 119.441 543.901 108.351C548.973 113.026 552.957 118.757 555.573 125.14C558.189 131.522 559.373 138.401 559.041 145.291C530.941 139.701 507.541 120.951 485.361 102.811C494.432 121.182 501.403 140.518 506.141 160.451C506.941 163.811 507.201 168.261 504.141 169.791C501.511 171.081 498.481 169.161 496.241 167.271C482.729 155.877 471.266 142.253 462.351 126.991Z" fill="#66CDD0"/>
<path d="M284.221 171.851C285.822 175.681 287.461 179.751 286.861 183.851C286.261 187.951 282.462 191.851 278.392 191.051C274.982 190.341 273.011 186.831 271.561 183.661C262.897 164.734 256.858 144.713 253.611 124.151C256.084 137.231 256.629 150.603 255.231 163.841C254.821 167.701 253.111 172.581 249.231 172.511C245.751 172.451 244.011 168.371 243.121 165.001C239.981 153.121 236.845 141.238 233.712 129.351C234.584 146.121 231.658 162.871 225.151 178.351C224.231 180.531 222.682 183.041 220.322 182.881C217.632 182.701 216.611 179.341 216.261 176.671L209.931 127.591C210.344 141.366 208.341 155.107 204.011 168.191C202.531 172.651 199.641 177.821 194.951 177.611C192.041 177.481 189.632 175.111 188.551 172.411C187.471 169.711 187.462 166.731 187.471 163.821C187.471 150.588 187.495 137.354 187.541 124.121C186.093 136.878 181.521 149.082 174.231 159.651C173.041 161.371 171.231 163.241 169.231 162.591C167.431 162.001 166.911 159.751 166.681 157.861C165.921 151.588 165.158 145.314 164.391 139.041C163.501 145.301 162.391 151.991 158.111 156.611C153.831 161.231 145.051 162.171 141.701 156.801C139.701 153.611 140.271 149.521 140.961 145.801C143.077 134.441 145.76 123.193 149.001 112.101C142.062 128.412 128.951 141.314 112.531 147.991C109.531 149.191 106.011 150.131 103.231 148.501C98.2315 145.591 100.311 137.751 104.231 133.501C108.151 129.251 113.501 125.371 113.891 119.611C110.918 122.986 107.261 125.69 103.163 127.543C99.0647 129.396 94.6192 130.357 90.1215 130.361C86.8315 130.361 83.1215 129.551 81.3715 126.801C79.3715 123.801 80.6915 119.461 83.3015 116.941C85.9115 114.421 89.5215 113.251 92.9815 112.151C68.2893 111.072 44.3932 103.097 24.0015 89.1311C20.5515 86.7711 16.8015 82.9911 18.2015 79.0711C19.3315 75.8611 23.2015 74.7311 26.5715 74.0711C93.7819 61.6073 163.155 68.6339 226.501 94.3211C241.691 100.511 256.652 107.901 268.882 118.831C281.112 129.761 290.441 144.661 291.882 160.991L284.221 171.851Z" fill="#66CDD0"/>
<path d="M466.551 108.681C469.551 113.451 470.781 120.991 472.551 126.341C474.849 132.647 476.752 139.089 478.251 145.631C478.701 147.821 480.511 154.151 477.361 155.201C474.631 156.111 468.751 150.361 466.751 148.781C462.816 145.672 459.137 142.251 455.751 138.551C454.131 136.771 452.581 134.941 451.101 133.041C451.801 138.374 452.495 143.708 453.181 149.041C453.431 150.971 453.581 153.201 452.181 154.571C451.588 155.071 450.869 155.4 450.102 155.522C449.336 155.643 448.55 155.553 447.831 155.261C446.406 154.65 445.119 153.755 444.051 152.631C435.531 144.541 429.241 134.441 423.051 124.451C428.899 135.712 431.044 148.53 429.181 161.081C428.781 163.681 427.821 166.711 425.301 167.451C423.301 168.041 421.161 166.821 419.531 165.451C411.171 158.571 405.961 146.181 403.031 135.961C403.031 143.174 403.031 150.384 403.031 157.591C403.139 159.593 402.937 161.6 402.431 163.541C402.173 164.509 401.699 165.406 401.044 166.165C400.39 166.924 399.571 167.524 398.651 167.921C395.151 169.181 392.651 165.921 390.901 163.451C387.841 159.061 384.841 154.611 381.811 150.201L364.141 124.291L328.591 72.461C346.651 79.071 367.161 73.091 383.431 62.831C399.701 52.571 413.001 38.361 428.071 26.381C443.141 14.401 461.001 4.29102 480.261 4.67102C502.871 5.11102 522.351 19.671 541.431 31.771C563.131 45.571 599.431 77.341 657.941 96.601C675.791 106.061 639.781 106.761 624.291 103.371C612.901 100.881 600.081 98.201 586.931 90.711C600.931 104.231 652.431 125.171 642.291 129.941C605.561 133.941 578.101 121.371 551.821 103.121L571.901 126.121C574.151 128.711 576.561 132.121 575.271 135.271C573.721 139.081 568.411 139.171 564.351 138.471C538.544 133.963 514.081 123.71 492.771 108.471C500.839 116.862 505.887 127.697 507.121 139.271C506.711 151.131 475.761 123.341 466.551 108.681Z" fill="#56ABAE"/>
<path d="M296.861 132.461C299.214 150.016 297.399 167.878 291.561 184.601C276.561 170.961 271.341 149.941 266.811 130.191C267.565 141.845 267.129 153.545 265.511 165.111C265.071 168.291 263.721 172.251 260.511 172.411C257.661 172.561 255.831 169.521 254.671 166.921C249.411 155.214 244.158 143.504 238.911 131.791C239.349 139.477 238.014 147.162 235.011 154.251C231.032 150.631 227.896 146.182 225.822 141.218C223.749 136.254 222.789 130.896 223.011 125.521L218.541 163.041C218.061 167.041 216.771 171.961 212.821 172.701C208.681 173.481 205.671 168.951 204.071 165.061C198.449 151.45 194.714 137.134 192.971 122.511C192.414 133.362 190.749 144.128 188.001 154.641C187.191 157.801 185.491 161.581 182.231 161.641C179.611 161.711 177.691 159.251 176.441 156.961C171.829 148.512 169.864 138.871 170.801 129.291C171.621 134.621 172.361 140.381 169.801 145.141C167.241 149.901 160.021 152.381 156.401 148.391C154.401 146.161 154.201 142.861 154.191 139.841C154.169 130.538 154.653 121.241 155.641 111.991C153.844 119.434 150.28 126.336 145.251 132.111C143.671 133.911 141.751 135.701 139.361 135.941C135.211 136.361 132.041 131.631 132.421 127.481C132.801 123.331 135.521 119.821 138.131 116.571C133.413 126.173 125.615 133.918 115.981 138.571C112.781 140.111 108.161 140.911 106.331 137.861C105.161 135.931 105.851 133.451 106.571 131.311C109.238 123.451 111.881 115.594 114.501 107.741C110.726 113.139 105.488 117.347 99.4029 119.871C93.3182 122.396 86.6395 123.131 80.1514 121.991C76.3314 121.251 71.9214 118.841 72.1514 114.991C72.3014 112.341 74.6114 110.381 76.7314 108.771L96.1414 93.9908C68.7014 100.521 26.3414 91.1008 4.4414 73.3308C1.6314 71.0508 -1.2886 67.3308 0.601404 64.2008C2.0714 61.8108 5.5414 60.9908 8.2014 61.7908C20.4814 65.6908 47.2614 73.3908 68.6214 66.5208C39.5114 70.5208 10.1214 45.4708 19.6214 45.5208C56.0581 49.687 92.9324 47.8186 128.761 39.9908C144.011 36.6408 159.851 32.2208 174.961 36.1408C188.961 39.7708 200.061 49.9708 211.611 58.6108C234.898 75.9995 261.754 88.0016 290.241 93.7509C294.561 94.6208 299.381 95.6308 301.891 99.2508C303.581 101.711 303.831 104.841 304.021 107.821C304.761 119.521 305.508 131.221 306.261 142.921L296.861 132.461Z" fill="#56ABAE"/>
<path d="M323.361 368.691C320.921 373.691 316.531 379.551 311.141 378.061C311.356 364.285 314.588 350.723 320.611 338.331C309.011 362.121 277.611 400.331 278.441 382.211C284.241 356.711 287.391 347.841 298.441 324.111C309.241 300.864 320.045 277.611 330.851 254.351C335.321 244.711 339.851 234.971 346.521 226.701C353.191 218.431 362.271 211.621 372.751 209.861C388.051 207.291 402.911 215.641 415.701 224.421C445.081 244.591 471.881 269.091 491.701 298.691C494.501 302.861 496.841 309.221 492.811 312.211C489.031 315.001 483.891 311.611 480.481 308.381L447.731 277.381C475.795 303.246 492.738 338.983 495.001 377.081C468.161 351.081 448.091 319.081 428.291 287.451C444.756 317.736 453.352 351.67 453.291 386.141C442.157 375.795 433.281 363.26 427.221 349.321C430.881 357.841 434.581 366.511 435.631 375.731C436.681 384.951 434.711 394.941 428.301 401.641C412.041 364.101 395.791 326.551 379.551 288.991C393.32 328.881 396.083 371.744 387.551 413.071C371.089 380.789 364.393 344.409 368.281 308.381C364.051 337.731 358.811 369.191 338.051 390.381C334.71 363.949 336.903 337.11 344.491 311.571C339.352 331.262 332.274 350.396 323.361 368.691Z" fill="#56ABAE"/>
<path d="M429.211 263.501C428.121 265.501 425.091 264.791 423.091 263.691C411.491 257.261 402.451 247.141 393.661 237.221C408.05 252.977 415.724 273.725 415.051 295.051C400.591 282.881 392.631 264.861 385.161 247.501C388.835 256.464 391.047 265.958 391.711 275.621C391.811 277.101 391.711 278.911 390.381 279.621C388.511 280.621 386.641 278.341 385.731 276.431L374.331 252.531C375.409 265.647 375.583 278.821 374.851 291.961C374.601 296.401 373.921 301.441 370.281 303.961C364.881 289.201 362.811 274.191 362.281 258.651C358.988 268.579 354.853 278.207 349.921 287.431C347.921 291.101 345.121 295.171 340.921 295.211C339.771 278.411 344.791 261.871 349.751 245.781C347.762 254.56 342.732 262.353 335.551 267.781C337.693 254.112 342.086 240.893 348.551 228.661C351.061 223.911 353.941 219.231 358.051 215.781C371.591 204.381 387.941 212.291 399.221 222.341C411.221 233.061 423.021 244.871 428.951 259.851C429.391 261.041 429.801 262.401 429.211 263.501Z" fill="#14525F"/>
<path d="M286.801 63.3911C286.801 63.3911 328.401 76.1811 338.801 75.9811C349.201 75.7811 380.581 123.421 388.001 139.391C395.421 155.361 403.151 203.871 389.581 218.201C376.011 232.531 353.431 233.931 348.161 230.301C342.891 226.671 326.811 221.841 319.161 210.961C311.511 200.081 295.351 174.671 293.401 150.571C291.451 126.471 289.851 109.341 288.221 107.941C286.591 106.541 285.511 63.3311 285.511 63.3311L286.801 63.3911Z" fill="#56ABAE"/>
<path d="M309.251 104.921C308.54 108.759 306.548 112.242 303.601 114.801C300.831 117.111 295.861 117.221 292.351 117.521C283.377 118.299 274.344 117.002 265.951 113.731C269.756 112.785 273.445 111.423 276.951 109.671C279.371 108.541 281.59 107.025 283.521 105.181C286.791 101.861 288.441 97.1808 288.981 92.5808C289.521 87.9808 289.811 81.4608 288.411 77.1108C294.002 79.8248 299.067 83.5084 303.371 87.9908C307.551 92.5208 310.331 98.8108 309.251 104.921Z" fill="#54504D"/>
<path d="M248.901 83.8212C250.281 80.2012 251.061 75.5012 252.441 71.8812C238.543 67.0335 225.272 60.5443 212.911 52.5512C205.201 47.5512 197.911 42.0012 189.911 37.4712C181.911 32.9412 173.141 29.4712 163.971 29.0312C143.971 28.1512 106.291 46.7712 86.2314 46.4712C98.8114 47.8812 127.931 43.7112 140.701 41.0012C150.631 38.9012 159.591 35.1612 169.271 38.2312C178.311 41.1212 221.051 88.5412 248.901 83.8212Z" fill="#14525F"/>
<path d="M294.351 68.3811C294.731 68.6011 281.761 71.0911 289.611 78.8811C297.461 86.6711 304.201 94.1411 299.681 101.551C295.161 108.961 283.681 119.551 262.521 113.861C241.361 108.171 238.391 85.2011 238.391 85.2011C238.391 85.2011 241.921 72.5311 246.951 67.2011C251.981 61.8711 272.131 54.9311 294.351 68.3811Z" fill="white"/>
<path d="M259.271 94.5312C259.271 94.5312 260.401 100.141 261.151 100.941C261.901 101.741 263.831 103.471 264.081 104.351C264.331 105.231 264.721 110.351 262.521 113.861C262.521 113.861 250.941 118.541 243.101 110.631C235.261 102.721 242.281 101.741 242.281 101.741L259.271 94.5312Z" fill="#54504D"/>
<path d="M378.661 181.861C378.761 180.581 376.141 181.511 376.051 182.691C375.051 195.871 366.921 208.431 371.911 221.691C372.331 222.821 374.821 221.561 374.371 220.381C369.541 207.521 377.651 194.691 378.661 181.861Z" fill="#14525F"/>
<path d="M239.921 79.6909C239.531 79.6909 228.601 92.4609 229.101 100.301C229.451 105.871 235.461 117.051 241.981 121.961C242.871 122.631 242.551 108.961 243.981 105.801C244.381 104.921 248.661 107.031 250.911 105.591C254.761 103.131 259.291 94.5309 259.291 94.5309C259.291 94.5309 251.451 80.5709 239.921 79.6909Z" fill="#54504D"/>
<path d="M250.121 106.061C251.501 104.651 253.051 103.411 254.401 101.951C255.911 100.331 257.111 98.451 258.621 96.831C258.731 96.711 259.031 96.831 258.961 97.011C257.148 100.892 254.318 104.209 250.771 106.611C250.471 106.811 249.801 106.391 250.121 106.061Z" fill="#3A3628"/>
<path d="M243.091 72.0612C243.021 70.9049 243.377 69.7631 244.091 68.8512C250.091 59.3912 262.091 55.0512 273.281 55.0712C284.471 55.0912 295.361 58.7712 306.061 62.1812C316.761 65.5912 327.831 68.8312 339.061 67.9212C348.271 67.1712 356.921 64.5412 365.481 61.0612C378.531 55.7712 394.671 49.2612 407.711 43.9712C394.421 57.3712 375.951 69.4412 358.111 75.6012C340.271 81.7612 319.791 81.8312 303.111 72.9512C298.831 70.6712 294.681 67.7712 289.871 67.1512C282.751 66.2312 276.121 70.4612 269.381 72.9512C262.529 75.4694 255.16 76.2527 247.931 75.2312C245.871 74.9312 243.431 74.0912 243.091 72.0612Z" fill="#14525F"/>
<path d="M485.481 15.9911C466.911 12.1611 446.371 20.8711 428.091 25.9111C436.971 17.1511 466.651 -1.08895 477.881 0.0510536C487.931 1.05105 502.221 6.73105 510.701 12.2011C530.881 25.2011 551.181 38.2011 571.541 52.8811C550.291 47.6611 499.441 18.8511 485.481 15.9911Z" fill="#14525F"/>
<path d="M527.551 88.3212C532.021 91.1012 536.551 93.8512 541.131 96.3212C543.709 97.7841 546.382 99.0736 549.131 100.181C557.611 103.461 556.211 92.2912 555.061 88.7012C551.651 78.0012 544.151 68.7012 535.061 62.3712C534.904 62.2905 534.765 62.1774 534.654 62.0393C534.542 61.9013 534.462 61.7413 534.417 61.5699C534.371 61.3985 534.363 61.2195 534.392 61.0446C534.421 60.8697 534.486 60.7029 534.584 60.555C534.681 60.4071 534.809 60.2814 534.959 60.1863C535.108 60.0911 535.276 60.0286 535.451 60.0027C535.627 59.9769 535.805 59.9883 535.976 60.0363C536.147 60.0843 536.305 60.1677 536.441 60.2812C543.083 64.9138 550.225 68.7848 557.731 71.8212C561.869 73.4017 566.202 74.411 570.611 74.8212C573.482 75.1627 576.377 74.4132 578.721 72.7212C582.071 70.3012 582.041 65.0112 577.671 63.5212C577.221 63.3712 577.232 62.6612 577.772 62.7212C581.432 63.1012 583.331 66.1512 583.241 69.7212C583.111 75.0712 576.831 77.2812 572.481 77.5412C564.011 78.0412 555.281 74.5412 547.361 70.1412C553.561 77.1412 558.361 85.7812 558.871 94.6412C559.251 100.861 553.872 103.841 548.522 102.421C545.092 101.521 541.612 99.1412 538.522 97.4212C534.357 95.1384 530.349 92.5828 526.522 89.7712C525.442 88.9912 526.381 87.6012 527.551 88.3212Z" fill="#14525F"/>
<path d="M469.391 100.241C472.175 102.769 475.188 105.032 478.391 107.001C480.551 108.301 492.181 114.081 489.941 106.561C489.313 104.552 488.408 102.64 487.251 100.881C482.823 97.1216 478.725 92.9899 475.001 88.531C474.814 88.3213 474.711 88.049 474.713 87.7675C474.716 87.486 474.823 87.2156 475.015 87.0092C475.206 86.8028 475.468 86.6752 475.748 86.6515C476.029 86.6278 476.308 86.7097 476.531 86.881C480.812 90.0415 484.577 93.8467 487.691 98.161C494.132 103.741 501.28 108.449 508.951 112.161C511.642 113.587 514.492 114.692 517.441 115.451C524.721 117.051 522.771 108.811 521.581 105.091C519.311 98.011 515.231 91.611 510.681 85.781C510.241 85.211 510.941 84.781 511.421 85.191C517.384 91.0249 521.817 98.2373 524.331 106.191C526.391 112.331 525.231 118.721 517.491 117.881C513.881 117.491 510.231 115.351 507.031 113.791C503.039 111.823 499.183 109.588 495.491 107.101C494.141 106.201 492.831 105.251 491.491 104.271C492.491 106.501 493.091 108.871 492.371 111.061C489.581 119.541 470.321 104.251 467.671 101.531C466.551 100.371 468.301 99.261 469.391 100.241Z" fill="#14525F"/>
<path d="M435.191 106.351C438.91 109.601 442.835 112.607 446.941 115.351C450.401 117.601 462.541 125.421 462.941 116.761C463.151 112.281 459.941 106.761 458.391 102.761C456.391 97.4909 454.061 92.3309 452.171 87.0109C451.901 86.2509 453.071 86.1509 453.371 86.7209C456.815 93.3809 459.844 100.247 462.441 107.281C463.751 110.611 468.121 119.041 463.641 122.081C459.471 124.911 454.851 122.581 450.861 120.451C444.45 117.151 438.598 112.862 433.521 107.741C432.351 106.461 434.101 105.421 435.191 106.351Z" fill="#14525F"/>
<path d="M413.141 108.261C416.771 112.851 420.061 117.421 424.431 121.361C426.681 123.361 434.431 129.661 434.991 122.711C435.172 118.811 434.971 114.902 434.391 111.041C434.311 110.371 435.391 110.531 435.501 111.041C436.301 114.211 440.291 132.441 431.371 128.841C423.371 125.611 415.011 117.041 411.371 109.281C411.236 109.046 411.2 108.767 411.27 108.506C411.34 108.244 411.512 108.021 411.746 107.886C411.981 107.751 412.26 107.714 412.522 107.785C412.783 107.855 413.006 108.026 413.141 108.261Z" fill="#14525F"/>
<path d="M385.671 122.051C388.221 125.271 390.491 128.421 393.731 131.051C395.731 132.681 400.291 136.051 402.861 133.171C404.531 131.311 404.081 127.631 404.081 125.371C404.081 115.251 401.411 105.371 397.231 96.181C396.671 94.941 398.401 94.431 398.961 95.501C402.116 101.53 404.37 107.989 405.651 114.671C406.811 120.511 408.021 127.841 406.061 133.601C404.481 138.221 399.111 137.531 395.761 135.541C390.761 132.541 385.981 128.351 383.891 122.791C383.491 121.681 385.101 121.331 385.671 122.051Z" fill="#14525F"/>
<path d="M290.821 122.381C290.911 122.101 291.271 122.241 291.361 122.451C292.541 125.451 292.511 128.721 292.821 131.891C293.221 135.998 293.635 140.108 294.061 144.221C294.488 148.334 294.978 152.428 295.531 156.501C296.061 160.501 297.031 164.651 296.861 168.671C296.811 169.941 295.151 169.571 294.861 168.671C292.321 161.501 292.211 152.931 291.461 145.411C291.061 141.331 290.755 137.238 290.541 133.131C290.331 129.631 289.721 125.731 290.821 122.381Z" fill="#14525F"/>
<path d="M196.181 110.571C196.36 104.507 197.719 98.5355 200.181 92.9909C200.641 91.9909 202.351 92.6409 202.031 93.6909C199.678 101.023 198.596 108.704 198.831 116.401C198.877 118.292 199.125 120.173 199.571 122.011C200.721 126.261 204.571 119.011 204.671 118.841C206.526 115.063 207.585 110.945 207.781 106.741C207.881 105.171 210.111 105.741 210.211 107.061C210.505 111.025 211.049 114.966 211.841 118.861C212.201 120.631 212.661 122.391 213.131 124.131C213.511 125.541 215.281 131.481 216.661 127.321C219.411 119.001 219.891 110.001 220.861 101.321C220.991 100.091 222.861 100.701 222.641 101.651C222.753 107.825 222.204 113.994 221.001 120.051C220.541 122.611 220.061 131.211 216.431 131.831C212.291 132.551 211.431 127.351 210.651 124.411C209.795 121.358 209.127 118.256 208.651 115.121C206.851 121.691 203.461 128.791 198.291 124.421C195.191 121.801 196.081 113.991 196.181 110.571Z" fill="#14525F"/>
<path d="M137.001 91.0609C138.965 85.0872 141.806 79.4387 145.431 74.3009C145.981 73.5709 147.521 74.3009 147.131 75.1709C143.851 82.4309 140.351 89.4409 138.001 97.0809C137.358 98.9469 136.926 100.879 136.711 102.841C138.471 105.508 140.118 106.054 141.651 104.481C142.651 103.751 143.521 102.911 144.431 102.111C147.646 99.1495 150.469 95.7889 152.831 92.1109C153.701 90.8009 155.971 92.3309 155.191 93.6809C153.098 97.3051 151.695 101.286 151.051 105.421C150.78 107.436 150.713 109.473 150.851 111.501C150.889 112.615 151.162 113.709 151.651 114.711C152.941 117.541 155.941 114.711 156.921 113.841C162.921 108.411 166.501 100.841 171.611 94.7509C171.721 94.6437 171.862 94.5739 172.014 94.5515C172.166 94.5291 172.321 94.5552 172.458 94.6262C172.594 94.6971 172.704 94.8091 172.773 94.9464C172.842 95.0838 172.866 95.2393 172.841 95.3909C172.781 95.5609 172.711 95.7309 172.651 95.8909L172.171 97.2509C172.164 97.2854 172.147 97.317 172.122 97.3419C172.097 97.3668 172.066 97.3838 172.031 97.3909C169.841 102.261 166.301 106.771 163.031 110.891C160.451 114.171 157.271 119.061 152.501 118.301C148.261 117.621 147.951 111.781 147.931 108.561C147.937 106.276 148.215 104 148.761 101.781C143.991 107.021 137.931 111.671 134.951 106.041C132.571 101.461 135.441 95.5709 137.001 91.0609Z" fill="#14525F"/>
<path d="M69.7814 55.8712C70.0314 54.9312 71.4114 55.3612 71.6114 56.1112C72.2614 58.6112 72.3714 61.1612 73.2214 63.6312C74.3055 66.5412 76.0595 69.155 78.3414 71.2612C83.3414 76.0912 91.0514 77.1712 97.4614 75.1912C98.4614 74.8812 100.131 76.4312 98.9114 77.1312L98.6714 77.2712C94.9914 79.2712 90.6714 79.4512 87.0714 81.5412C84.4414 83.0712 82.2714 86.8012 85.2614 89.2312C87.0214 90.6712 89.7214 90.7512 91.8714 90.8612C102.261 91.3912 111.671 87.2012 120.071 81.4912C120.611 81.1212 121.351 81.8412 120.881 82.3412C112.881 90.9612 98.1814 95.7912 86.7214 92.5512C83.1014 91.5512 79.7214 87.6612 81.5814 83.7812C83.1514 80.5012 85.8814 79.1312 88.9014 78.1612C84.8293 77.6713 80.9676 76.081 77.7314 73.5612C73.0014 69.9912 68.1414 61.9912 69.7814 55.8712Z" fill="#14525F"/>
<path d="M163.131 108.991C167.991 111.501 173.781 103.331 176.261 100.361C176.326 100.296 176.408 100.254 176.498 100.239C176.588 100.225 176.68 100.239 176.761 100.28C176.842 100.321 176.908 100.387 176.95 100.468C176.991 100.549 177.006 100.641 176.991 100.731C175.641 105.731 167.571 115.231 161.991 110.241C161.001 109.401 162.251 108.521 163.131 108.991Z" fill="#14525F"/>
<path d="M171.641 132.551C171.781 128.651 171.641 124.701 172.121 120.821C172.181 120.391 172.871 120.601 172.931 120.931C173.567 124.865 173.848 128.847 173.771 132.831C173.831 137.251 173.961 141.831 173.051 146.191C172.831 147.191 171.341 146.551 171.281 145.751C171.001 141.371 171.491 136.931 171.641 132.551Z" fill="#14525F"/>
<path d="M111.361 112.221C114.851 106.761 118.211 101.051 122.031 95.8212C122.321 95.4312 123.031 95.8212 122.911 96.2712C120.51 102.433 117.104 108.154 112.831 113.201C112.221 113.991 110.821 113.051 111.361 112.221Z" fill="#14525F"/>
<path d="M127.751 126.851C132.404 123.88 136.36 119.941 139.351 115.301C139.561 114.951 140.211 115.301 140.071 115.671C139.143 118.421 137.662 120.953 135.721 123.111C133.78 125.269 131.418 127.008 128.781 128.221C128.051 128.541 127.001 127.381 127.751 126.851Z" fill="#14525F"/>
<path d="M101.331 55.5411C101.571 54.4711 103.121 55.1711 103.181 56.0111C103.891 65.9411 117.651 63.7511 123.471 60.8111C123.891 60.5911 124.381 61.2111 124.031 61.5511C122.111 63.2922 119.777 64.5138 117.251 65.1001C114.726 65.6864 112.093 65.6179 109.601 64.9011C105.411 63.7311 100.241 60.5911 101.331 55.5411Z" fill="#14525F"/>
<path d="M119.181 65.0411C121.091 65.3111 122.931 65.8111 124.851 66.0411C126.321 66.1911 129.851 66.6011 130.741 65.1211C130.931 64.7911 131.451 65.1211 131.381 65.4511C131.291 65.8332 131.224 66.2206 131.181 66.6111C131.165 66.6783 131.131 66.7401 131.084 66.7908C131.037 66.8416 130.977 66.8795 130.911 66.9011C129.005 67.643 126.97 67.9977 124.925 67.9445C122.88 67.8912 120.867 67.4312 119.001 66.5911C118.251 66.2111 118.051 64.8811 119.181 65.0411Z" fill="#14525F"/>
<path d="M234.341 120.691C234.401 120.161 235.051 120.311 235.201 120.691C237.391 126.271 237.111 133.171 236.121 138.981C235.941 140.041 234.181 139.421 234.211 138.501C234.391 132.651 233.731 126.491 234.341 120.691Z" fill="#14525F"/>
<path d="M264.401 121.101C264.461 120.631 265.231 120.851 265.301 121.221C266.005 125.953 266.269 130.74 266.091 135.521C266.091 136.671 264.371 136.261 264.311 135.291C263.886 130.569 263.916 125.817 264.401 121.101Z" fill="#14525F"/>
<path d="M196.751 86.4308C197.011 86.0308 197.551 86.4308 197.511 86.8108C196.932 90.0302 196.561 93.2837 196.401 96.5508C196.401 100.211 197.511 103.711 198.481 107.201C198.771 108.251 197.291 108.351 196.861 107.601C193.461 101.631 192.901 92.3308 196.751 86.4308Z" fill="#14525F"/>
<path d="M63.5515 66.551C65.2115 66.551 66.8015 67.011 68.4815 66.941C70.4372 66.8493 72.3668 66.4546 74.2015 65.771C74.3315 65.771 74.4815 65.891 74.3715 66.001C71.5615 68.791 66.7915 70.341 63.1115 68.091C62.9353 68.0104 62.7938 67.8693 62.7127 67.6933C62.6317 67.5174 62.6164 67.3182 62.6696 67.1319C62.7228 66.9456 62.8411 66.7846 63.0029 66.678C63.1646 66.5714 63.3593 66.5264 63.5515 66.551Z" fill="#14525F"/>
<path d="M402.801 105.661C404.995 103.771 406.651 101.336 407.601 98.6008C408.531 95.5408 406.951 92.9908 407.151 90.0808C407.151 89.9208 407.321 89.8908 407.441 89.9608C410.051 91.5308 410.811 95.7408 410.391 98.5608C409.811 102.461 407.881 105.861 404.211 107.561C403.141 107.991 401.911 106.531 402.801 105.661Z" fill="#14525F"/>
<path d="M480.631 38.5612C484.131 42.1212 486.861 45.7812 491.131 48.5612C493.414 50.1245 496 51.1908 498.721 51.6912C505.721 52.8012 501.951 44.9112 501.351 42.6912C501.221 42.2212 501.811 42.1412 502.081 42.4012C507.161 47.4012 505.441 55.1412 497.591 54.0812C490.381 53.0812 481.391 45.9812 478.861 39.2212C478.431 38.1212 480.001 37.9912 480.631 38.5612Z" fill="#14525F"/>
<path d="M462.431 45.461C467.531 47.861 487.741 57.871 490.281 49.461C490.451 48.901 491.281 49.161 491.361 49.601C492.901 54.731 486.561 55.441 483.011 54.961C475.442 53.8429 468.17 51.2287 461.621 47.271C460.561 46.591 461.241 44.901 462.431 45.461Z" fill="#14525F"/>
<path d="M408.801 58.8509C412.53 63.3652 417.159 67.0535 422.391 69.6809C426.161 71.5209 432.551 74.1609 434.741 68.9309C436.231 65.3609 433.391 61.5509 431.481 58.7909C430.601 57.5209 432.651 56.5709 433.481 57.6509C435.849 60.7554 438.589 63.5565 441.641 65.9909C444.271 68.0809 449.641 69.5709 448.711 64.2009C448.506 63.4134 448.479 62.5902 448.631 61.7909C448.681 61.4509 449.141 61.5709 449.301 61.7209C452.601 64.7209 451.791 70.2409 447.161 71.0509C443.961 71.6109 440.471 69.1109 437.481 66.0509C437.598 66.8968 437.564 67.7567 437.381 68.5909C436.591 72.0109 434.091 74.8909 430.231 74.3909C420.991 73.1709 412.421 67.2709 407.151 59.7409C406.411 58.7309 408.091 57.9909 408.801 58.8509Z" fill="#14525F"/>
<path d="M571.861 79.4112C578.671 83.8712 585.131 88.8912 591.661 93.7512C592.291 94.2212 591.742 95.0712 591.082 94.6212C584.352 90.0512 577.502 85.6212 571.082 80.6212C570.202 79.9912 570.931 78.8012 571.861 79.4112Z" fill="#14525F"/>
<path d="M378.941 126.511C382.241 131.941 384.301 138.331 387.111 144.051C388.531 146.941 390.011 149.811 391.521 152.651C392.271 154.081 393.051 155.491 393.831 156.901C394.341 157.841 394.831 158.781 395.381 159.711C396.021 161.651 397.531 162.421 399.931 162.031C399.931 161.711 400.371 161.841 400.411 162.091C400.641 163.781 399.961 165.321 397.921 165.091C394.461 164.641 392.371 158.831 390.971 156.351C388.321 151.671 385.861 146.891 383.551 142.041C381.241 137.191 378.381 132.111 377.251 126.971C377.001 125.821 378.461 125.731 378.941 126.511Z" fill="#14525F"/>
<path d="M366.601 122.261C368.311 124.681 369.981 127.101 371.601 129.601C372.515 131.014 373.418 132.428 374.311 133.841C374.722 134.543 375.187 135.211 375.701 135.841C377.155 137.701 378.735 137.554 380.441 135.401C380.601 134.741 381.671 135.111 381.641 135.701C381.451 139.481 377.641 139.581 375.081 137.831C373.331 136.631 372.181 134.221 371.081 132.501C369.021 129.351 367.021 126.171 365.081 122.911C364.421 121.791 366.001 121.431 366.601 122.261Z" fill="#14525F"/>
<path d="M433.001 260.181C441.111 265.041 448.261 272.081 454.691 278.941C461.341 285.853 467.114 293.558 471.881 301.881C472.491 302.971 470.941 303.311 470.351 302.481C465.069 294.701 459.304 287.26 453.091 280.201C446.661 273.201 439.301 267.351 432.271 260.971C431.721 260.461 432.451 259.851 433.001 260.181Z" fill="#14525F"/>
<path d="M424.791 277.331C428.488 283.432 431.759 289.78 434.581 296.331C435.021 297.331 433.641 297.731 433.191 296.881C429.72 290.633 426.696 284.147 424.141 277.471C424.001 277.061 424.611 277.041 424.791 277.331Z" fill="#14525F"/>
<path d="M380.661 270.661L381.791 272.041C382.041 272.291 381.661 272.551 381.421 272.331C380.951 271.891 381.371 277.651 381.421 278.331C381.791 281.711 382.221 285.071 382.801 288.421C383.861 294.261 385.222 300.042 386.881 305.741C387.201 306.841 385.551 306.821 385.241 305.921C381.421 294.781 379.141 282.551 379.641 270.741C379.691 270.191 380.421 270.281 380.661 270.661Z" fill="#14525F"/>
<path d="M410.251 293.601C416.601 305.901 420.861 319.491 425.301 332.601C430.001 346.471 435.301 360.891 437.821 375.321C438.041 376.591 436.351 376.531 435.991 375.531C431.161 362.061 427.891 347.941 423.471 334.321C419.051 320.701 413.471 307.491 409.641 293.781C409.541 293.361 410.101 293.311 410.251 293.601Z" fill="#14525F"/>
<path d="M342.732 307.051C344.282 302.191 346.002 297.391 347.732 292.601C349.462 287.811 351.012 282.601 353.822 278.461C354.022 278.171 354.451 278.461 354.401 278.761C353.601 283.761 351.401 288.611 349.771 293.371C348.141 298.131 346.622 303.081 345.102 307.951C341.922 318.171 339.542 328.641 336.222 338.811C335.882 339.811 334.382 339.101 334.532 338.171C336.202 327.591 339.502 317.241 342.732 307.051Z" fill="#14525F"/>
<path d="M317.001 351.501C319.551 343.401 323.131 335.651 326.441 327.851C329.561 320.481 332.581 313.041 336.131 305.851C336.351 305.391 337.131 305.851 337.021 306.311C334.331 314.311 331.021 322.191 327.861 330.061C324.861 337.501 322.091 345.061 318.391 352.191C318.001 352.921 316.741 352.201 317.001 351.501Z" fill="#14525F"/>
<path d="M365.791 295.991C366.641 303.261 366.741 310.681 366.921 317.991C366.921 318.891 365.571 318.581 365.521 317.811C365.081 310.531 364.521 303.151 364.761 295.811C364.791 295.201 365.721 295.461 365.791 295.991Z" fill="#14525F"/>
<path d="M265.921 84.5308C265.921 84.5308 266.671 76.9708 271.201 76.1608C275.731 75.3508 278.081 79.4008 278.081 79.4008C278.081 79.4008 277.991 85.8708 274.141 87.3008C271.181 88.3908 265.921 84.5308 265.921 84.5308Z" fill="#F2ECD6"/>
<path d="M267.211 83.7808C267.211 83.7808 267.761 78.1108 271.341 77.5308C272.394 77.403 273.461 77.5645 274.428 77.998C275.396 78.4314 276.226 79.1204 276.831 79.9908C276.831 79.9908 276.831 84.8408 273.751 85.8908C271.421 86.7108 267.211 83.7808 267.211 83.7808Z" fill="#54504D"/>
<path d="M271.101 79.5111C271.101 78.9111 271.721 78.6111 272.291 78.5111C272.767 78.4692 273.242 78.589 273.641 78.8511C274.191 79.0411 274.721 79.6911 274.451 80.2511C273.981 81.2511 272.531 81.1111 271.771 80.5711C271.58 80.4645 271.418 80.3117 271.301 80.1265C271.184 79.9413 271.115 79.7297 271.101 79.5111Z" fill="white"/>
<path d="M274.111 91.8308C276.801 90.6808 279.581 90.0008 282.111 88.5208C284.401 87.0231 286.521 85.2794 288.431 83.3209C288.801 82.9809 289.361 83.5408 289.171 83.9408C286.731 89.0508 280.221 93.4408 274.491 93.2308C273.841 93.2008 273.371 92.1408 274.111 91.8308Z" fill="#54504D"/>
<path d="M281.751 95.111C283.478 94.671 285.154 94.051 286.751 93.2609C288.491 92.3909 289.751 90.951 291.321 89.8509C291.641 89.6209 292.241 89.9509 292.101 90.3709C290.881 94.1509 286.101 96.5409 282.431 96.6909C281.671 96.7209 280.691 95.381 281.751 95.111Z" fill="#54504D"/>
<path d="M282.821 101.431C284.696 101.016 286.52 100.399 288.261 99.5909C290.131 98.5909 291.471 97.0809 293.081 95.7909C293.143 95.7544 293.214 95.736 293.285 95.7379C293.357 95.7398 293.426 95.7619 293.486 95.8016C293.545 95.8413 293.593 95.8971 293.622 95.9624C293.651 96.0277 293.661 96.1 293.651 96.1709C292.721 100.401 287.381 103.391 283.281 102.991C282.611 102.931 281.901 101.681 282.821 101.431Z" fill="#54504D"/>
<path d="M372.781 257.531C372.895 257.417 372.99 257.285 373.061 257.141C373.401 256.259 373.401 255.283 373.061 254.401C370.801 246.231 366.491 238.401 361.381 231.341C359.821 229.191 355.041 223.121 351.701 223.761C351.181 223.828 350.706 224.093 350.375 224.501C350.043 224.908 349.881 225.427 349.921 225.951C350.051 225.131 349.091 224.401 348.191 224.491C347.761 224.551 347.358 224.737 347.032 225.025C346.707 225.313 346.473 225.691 346.361 226.111C346.181 226.928 346.261 227.782 346.591 228.551C346.405 227.99 346.015 227.518 345.499 227.23C344.983 226.941 344.377 226.856 343.801 226.991C340.061 227.711 340.391 233.251 341.071 235.721C342.333 239.899 344.368 243.804 347.071 247.231C350.654 251.706 354.604 255.874 358.881 259.691C359.69 260.54 360.628 261.256 361.661 261.811C362.198 262.086 362.788 262.242 363.391 262.266C363.994 262.29 364.594 262.183 365.151 261.951C365.413 261.845 365.65 261.684 365.845 261.48C366.041 261.276 366.191 261.032 366.285 260.766C366.38 260.499 366.417 260.216 366.394 259.934C366.371 259.652 366.288 259.378 366.151 259.131C366.133 259.739 366.301 260.338 366.631 260.849C366.961 261.36 367.439 261.758 368.001 261.991C368.598 262.202 369.247 262.219 369.854 262.04C370.461 261.86 370.996 261.493 371.381 260.991C371.531 260.739 371.627 260.459 371.664 260.169C371.701 259.878 371.678 259.584 371.597 259.302C371.515 259.021 371.377 258.76 371.19 258.534C371.003 258.308 370.772 258.124 370.511 257.991C370.883 258.196 371.315 258.262 371.731 258.177C372.147 258.093 372.519 257.864 372.781 257.531Z" fill="#C4C0AE"/>
<path d="M377.081 216.081C376.845 216.025 376.604 215.988 376.361 215.971C375.941 215.971 375.551 219.801 375.531 220.181C375.411 219.784 375.205 219.419 374.929 219.11C374.652 218.801 374.311 218.557 373.93 218.394C373.549 218.231 373.136 218.153 372.722 218.167C372.308 218.18 371.901 218.284 371.531 218.471C369.941 219.311 369.531 221.981 369.221 223.381C367.311 231.781 371.921 240.731 376.221 248.251C377.36 250.511 379.061 252.44 381.161 253.851C382.051 254.505 383.01 255.058 384.021 255.501C386.251 256.221 386.501 255.031 386.861 253.551C386.271 255.941 389.621 257.621 391.691 255.821C391.936 255.607 392.131 255.343 392.266 255.048C392.4 254.752 392.469 254.431 392.469 254.106C392.469 253.781 392.4 253.46 392.266 253.165C392.131 252.869 391.936 252.605 391.691 252.391C392.137 252.832 392.678 253.166 393.272 253.367C393.867 253.568 394.499 253.631 395.121 253.551C396.521 253.371 396.181 246.551 396.041 245.711C395.621 243.081 395.111 240.461 394.641 237.841C394.072 233.878 393.042 229.995 391.571 226.271C390.758 224.359 389.688 222.565 388.391 220.941C387.191 219.471 386.171 217.581 384.241 216.671C383.241 216.191 378.761 216.011 379.631 218.081C379.386 217.576 379.029 217.134 378.587 216.787C378.145 216.441 377.63 216.199 377.081 216.081Z" fill="#C4C0AE"/>
<path d="M382.271 223.131C384.271 232.001 386.971 240.551 389.341 249.311C389.511 249.931 388.601 249.961 388.341 249.481C384.271 241.481 382.101 231.861 381.341 223.091C381.301 222.531 382.171 222.691 382.271 223.131Z" fill="#A89F7A"/>
<path d="M374.841 223.751C377.706 232.762 381.071 241.606 384.921 250.241C385.161 250.761 384.271 250.941 384.001 250.531C378.911 242.721 374.921 232.931 374.211 223.801C374.181 223.461 374.741 223.481 374.841 223.751Z" fill="#A89F7A"/>
<path d="M352.431 228.931C357.241 237.511 361.651 246.271 366.491 254.841C366.821 255.431 365.851 255.631 365.491 255.181C359.881 247.271 354.701 238.181 351.761 229.081C351.681 228.731 352.281 228.671 352.431 228.931Z" fill="#A89F7A"/>
<path d="M346.081 235.181C351.811 242.721 357.791 250.371 363.151 258.131C363.421 258.521 362.761 258.811 362.461 258.521C355.694 251.677 349.981 243.865 345.511 235.341C345.351 235.041 345.921 234.991 346.081 235.181Z" fill="#A89F7A"/>
<path d="M364.301 85.361C367.874 92.4989 373.049 98.714 379.421 103.521C381.011 104.711 383.541 105.711 384.751 104.121C385.01 103.646 385.166 103.122 385.209 102.583C385.252 102.043 385.181 101.501 385.001 100.991C384.226 97.5681 383.009 94.2604 381.381 91.151C382.741 92.691 384.191 94.291 386.151 94.921C388.111 95.551 390.671 94.741 391.221 92.761C391.402 91.7501 391.287 90.7085 390.891 89.761C388.781 83.4892 384.698 78.069 379.251 74.311L381.251 83.801C381.365 84.092 381.408 84.4054 381.379 84.7162C381.349 85.027 381.247 85.3266 381.081 85.591C380.601 86.161 379.711 86.031 378.991 85.851L369.371 83.471C370.871 85.5185 371.775 87.9414 371.981 90.471C367.441 90.281 367.001 89.091 364.301 85.361Z" fill="#66CDD0"/>
<path d="M507.001 66.751C507.121 70.471 507.251 74.181 507.371 77.901L496.371 73.541C495.371 73.161 494.241 72.791 493.371 73.371C491.611 74.571 493.371 77.821 491.861 79.371C490.731 80.491 488.861 79.681 487.501 78.831L477.501 72.521C483.117 80.1871 490.213 86.6481 498.371 91.521C500.011 92.521 502.121 93.431 503.751 92.411C505.751 91.181 505.311 88.121 504.041 86.181C502.771 84.241 500.871 82.601 500.361 80.331C504.808 84.0111 509.936 86.7804 515.451 88.481C517.321 89.061 519.551 89.481 521.071 88.221C523.271 86.451 522.291 82.901 520.841 80.471C517.479 74.7881 512.713 70.0639 507.001 66.751Z" fill="#66CDD0"/>
<path d="M530.711 47.551C530.905 47.1811 530.944 46.7493 530.819 46.3508C530.694 45.9523 530.416 45.6197 530.046 45.426C529.676 45.2324 529.245 45.1937 528.846 45.3184C528.448 45.4432 528.115 45.7211 527.921 46.091C528.921 47.441 528.131 49.601 526.621 50.381C525.833 50.7114 524.981 50.863 524.127 50.8249C523.273 50.7869 522.437 50.5602 521.681 50.161C520.131 49.461 518.771 48.391 517.271 47.591C515.806 46.6836 514.048 46.3756 512.361 46.731C515.599 51.3515 520.249 54.7971 525.611 56.551C528.171 57.381 531.551 57.551 532.971 55.241C533.315 54.6092 533.506 53.9062 533.53 53.1876C533.554 52.469 533.411 51.7546 533.111 51.101C532.512 49.7937 531.701 48.5943 530.711 47.551Z" fill="#66CDD0"/>
<path d="M433.451 92.3508C434.871 91.1208 434.911 88.9408 434.591 87.0908C433.917 83.2052 432.187 79.5798 429.591 76.6108C430.831 78.2108 429.941 80.7408 428.231 81.8208C426.423 82.7633 424.335 83.0224 422.351 82.5508C418.547 81.9247 414.953 80.3801 411.881 78.0508C415.415 84.2276 420.764 89.1677 427.201 92.2008C429.201 93.1308 431.781 93.8008 433.451 92.3508Z" fill="#66CDD0"/>
<path d="M164.931 55.0411C159.195 58.0666 152.969 60.0539 146.541 60.9111C148.64 56.5724 151.404 52.5878 154.731 49.1011C148.796 52.1292 144.152 57.1957 141.651 63.3711C140.811 65.4511 140.441 68.2711 142.291 69.5411C143.631 70.4611 145.461 70.0211 146.991 69.4411C151.47 67.7415 155.588 65.2141 159.131 61.9911C155.969 65.5713 153.703 69.8525 152.521 74.4811C152.131 76.0411 151.881 77.7911 152.711 79.1711C153.235 79.9071 153.964 80.4724 154.807 80.7962C155.65 81.1199 156.57 81.1877 157.451 80.9911C159.208 80.5695 160.844 79.7482 162.231 78.5911C168.203 74.2232 173.358 68.8375 177.461 62.6811C178.011 61.8511 178.541 60.7311 177.931 59.9411C177.321 59.1511 175.841 59.4811 174.831 60.0011L158.831 68.1911C159.782 63.3823 161.874 58.8724 164.931 55.0411Z" fill="#66CDD0"/>
<path d="M180.621 124.931L188.391 111.371C187.912 114.578 187.811 117.831 188.091 121.061C191.709 115.466 193.533 108.9 193.321 102.241C193.339 102.049 193.318 101.855 193.26 101.672C193.202 101.488 193.107 101.318 192.981 101.171C192.371 100.641 191.491 101.361 190.981 102.011L185.261 109.921C184.901 110.421 184.441 110.921 183.821 110.981C182.901 110.981 182.471 109.841 182.441 108.981C182.411 108.121 182.441 106.981 181.741 106.431C180.641 105.581 179.121 106.881 178.581 108.171C178.041 109.461 177.581 111.081 176.201 111.401C176.131 110.541 176.051 109.691 175.971 108.831C173.863 113.019 172.57 117.57 172.161 122.241C171.966 123.618 172.075 125.021 172.481 126.351C172.692 127.013 173.075 127.607 173.592 128.071C174.109 128.535 174.741 128.853 175.421 128.991C177.761 129.251 179.471 126.991 180.621 124.931Z" fill="#66CDD0"/>
<path d="M69.4113 80.9909L66.4113 82.2309C69.5663 81.6076 72.5462 80.3003 75.1413 78.4009C75.8435 77.9875 76.3673 77.3283 76.6113 76.5509C76.8613 75.2909 75.6113 74.1309 74.3513 73.9409C73.0618 73.8786 71.7761 74.1255 70.6013 74.6609C64.2325 76.8304 57.4397 77.4576 50.7813 76.4909C50.7813 75.9709 50.7813 75.4909 50.8613 74.9409L57.2713 71.9409C51.5834 71.7886 45.9702 73.2631 41.0913 76.1909C39.8513 76.9309 38.5213 78.1409 38.8613 79.5409C39.1213 80.6409 40.3113 81.2209 41.3713 81.6109C50.4715 84.8885 60.4649 84.6675 69.4113 80.9909Z" fill="#66CDD0"/>
<path d="M336.091 272.071C316.038 295.765 304.47 325.476 303.221 356.491C324.561 333.584 336.323 303.377 336.091 272.071Z" fill="#66CDD0"/>
<path d="M370.221 307.051L363.801 323.131C360.072 316.477 357.792 309.109 357.111 301.511C355.91 319.569 357.103 337.707 360.661 355.451C361.571 359.981 363.231 365.191 367.601 366.721C371.907 347.131 372.794 326.944 370.221 307.051Z" fill="#66CDD0"/>
<path d="M392.001 293.871C398.598 315.643 409.203 335.992 423.271 353.871C423.719 330.171 418.12 306.747 407.001 285.811L407.331 307.541L385.841 283.911L392.001 293.871Z" fill="#66CDD0"/>
<path d="M469.581 324.621C470.327 324.478 471.005 324.097 471.514 323.534C472.023 322.971 472.334 322.257 472.401 321.501C472.502 319.982 472.242 318.46 471.641 317.061C465.168 298.556 453.906 282.097 439.001 269.361C437.701 268.261 435.561 267.251 434.531 268.611C433.821 269.561 434.341 270.891 434.881 271.951L442.051 285.951L433.051 280.221C442.451 295.366 453.374 309.509 465.651 322.431C466.761 323.581 468.051 324.771 469.581 324.621Z" fill="#66CDD0"/>
<path d="M355.301 124.261C355.772 125.36 355.799 126.597 355.378 127.716C354.957 128.834 354.119 129.746 353.041 130.261C351.931 130.683 350.705 130.685 349.593 130.267C348.481 129.849 347.559 129.04 347.001 127.991L346.941 135.731C344.861 136.021 343.081 134.321 341.671 132.731L335.841 126.331C337.638 132.607 341.113 138.274 345.891 142.721C346.789 143.696 347.96 144.375 349.251 144.671C351.511 144.991 353.581 143.011 354.191 140.801C354.801 138.591 354.311 136.261 353.831 134.031C353.696 135.142 353.958 136.265 354.571 137.201C354.888 137.659 355.347 137.999 355.876 138.171C356.405 138.343 356.976 138.336 357.501 138.151C358.811 137.571 359.091 135.841 359.031 134.401C358.823 130.726 357.525 127.195 355.301 124.261Z" fill="#66CDD0"/>
<path d="M322.451 188.671C322.517 189.272 322.714 189.851 323.03 190.367C323.346 190.883 323.771 191.322 324.277 191.654C324.782 191.986 325.355 192.202 325.953 192.287C326.552 192.371 327.162 192.323 327.739 192.144C328.317 191.965 328.848 191.661 329.294 191.253C329.74 190.845 330.091 190.343 330.32 189.784C330.55 189.224 330.653 188.621 330.622 188.017C330.591 187.413 330.427 186.824 330.141 186.291C332.391 187.991 332.201 191.371 331.781 194.161C331.749 195.219 331.338 196.231 330.621 197.011C327.471 199.691 322.701 192.911 321.561 190.451C320.881 188.991 318.251 178.711 318.561 178.291C316.651 180.711 318.361 184.891 316.081 186.971C315.386 187.502 314.544 187.804 313.67 187.836C312.796 187.869 311.934 187.629 311.201 187.151C309.75 186.173 308.523 184.898 307.601 183.411C307.939 187.139 309.736 190.582 312.601 192.991C313.931 194.091 315.731 194.991 317.351 194.361C318.971 193.731 319.731 191.881 320.061 190.171V190.081L322.451 188.671Z" fill="#66CDD0"/>
<path d="M334.551 101.121C334.881 100.813 335.129 100.428 335.274 100C335.418 99.5728 335.455 99.1163 335.381 98.6711C335.279 95.9497 334.536 93.2908 333.211 90.9111C334.086 92.2698 334.731 93.7631 335.121 95.3311C333.681 95.7064 332.178 95.7711 330.71 95.5211C329.243 95.2712 327.846 94.7121 326.611 93.8811C327.53 96.5911 329.28 98.9424 331.611 100.601C332.471 101.211 333.671 101.721 334.551 101.121Z" fill="#66CDD0"/>
<path d="M242.881 73.8013C243.941 75.4613 246.131 75.9213 248.101 76.0513C253.223 76.322 258.333 75.3364 262.987 73.1804C267.64 71.0244 271.696 67.7633 274.801 63.6813C270.554 65.8674 265.858 67.0381 261.081 67.1013L265.471 62.9113C261.294 64.5912 256.929 65.7629 252.471 66.4013C252.767 65.0832 253.329 63.8397 254.123 62.7475C254.918 61.6554 255.928 60.7377 257.091 60.0513C252.192 60.7397 247.706 63.176 244.461 66.9113C242.821 68.8313 241.531 71.6613 242.881 73.8013Z" fill="#1D7284"/>
<path d="M266.901 70.0511C266.711 70.0598 266.526 70.1125 266.359 70.2051C266.193 70.2976 266.05 70.4275 265.943 70.5846C265.835 70.7416 265.766 70.9215 265.739 71.11C265.713 71.2986 265.731 71.4906 265.791 71.6711C265.949 72.027 266.207 72.3291 266.534 72.5405C266.861 72.7519 267.242 72.8633 267.631 72.8611C268.412 72.8427 269.18 72.655 269.881 72.3111C273.06 71.1662 275.98 69.4022 278.471 67.1211C275.384 68.9295 271.773 69.6348 268.231 69.1211C268.171 68.9911 266.761 70.1011 266.901 70.0511Z" fill="#1D7284"/>
<path d="M366.401 61.3109C365.408 63.8482 363.931 66.168 362.051 68.1409C362.431 66.5209 364.971 66.2209 366.051 67.5009C366.528 68.1902 366.759 69.0198 366.706 69.8561C366.653 70.6925 366.321 71.4867 365.761 72.1109C364.605 73.3332 363.124 74.2005 361.491 74.6109C370.221 71.2209 379.001 67.8009 387.001 62.9309C395.001 58.0609 402.261 51.6109 406.731 43.3809L362.001 61.8909L366.401 61.3109Z" fill="#1D7284"/>
<path d="M219.831 65.7113C216.494 64.9896 213.335 63.6056 210.541 61.6413L213.421 67.9413C209.564 67.9926 205.795 66.7888 202.681 64.5113C212.736 74.1172 225.472 80.443 239.201 82.6513C240.755 77.8113 242.298 72.9746 243.831 68.1413C235.304 62.9044 226.234 58.606 216.781 55.3213C219.012 57.2686 220.916 59.561 222.421 62.1113C222.961 63.0413 223.421 64.2613 222.821 65.1113C222.221 65.9613 220.881 65.9913 219.831 65.7113Z" fill="#1D7284"/>
<path d="M335.001 290.221C340.783 278.347 344.883 265.726 347.181 252.721C341.621 255.971 338.761 262.411 337.131 268.641C335.301 275.68 334.582 282.961 335.001 290.221Z" fill="#1D7284"/>
<path d="M360.901 302.991C362.111 302.631 362.571 301.191 362.831 299.991C365.383 287.844 365.83 275.349 364.151 263.051C364.021 262.111 363.661 260.941 362.721 260.831C361.781 260.721 361.131 261.831 360.841 262.831C357.235 274.495 356.087 286.781 357.471 298.911C357.513 299.94 357.79 300.946 358.281 301.851C358.544 302.291 358.938 302.638 359.408 302.842C359.878 303.047 360.4 303.099 360.901 302.991Z" fill="#1D7284"/>
<path d="M373.741 253.651C373.615 264.095 376.762 274.317 382.741 282.881C384.293 271.026 381.221 259.03 374.161 249.381C373.711 252.563 373.942 255.805 374.841 258.891L373.741 253.651Z" fill="#1D7284"/>
<path d="M394.551 278.991C397.602 284.594 401.009 289.995 404.751 295.161C406.691 290.641 404.611 285.491 402.561 281.021C398.671 272.521 394.751 263.971 389.461 256.251C387.441 263.931 390.751 271.991 394.551 278.991Z" fill="#1D7284"/>
<path d="M418.851 261.261C412.851 253.621 406.451 245.611 397.331 242.381C400.551 249.211 403.811 256.091 408.331 262.121C412.851 268.151 418.851 273.351 426.031 275.671C425.691 270.231 422.201 265.571 418.851 261.261Z" fill="#1D7284"/>
<path d="M412.871 228.691C406.871 225.091 400.291 222.691 393.731 220.341C400.541 222.961 404.851 229.511 409.861 234.821C416.116 241.435 423.891 246.423 432.511 249.351C427.939 240.825 421.155 233.688 412.871 228.691Z" fill="#1D7284"/>
<path d="M566.461 92.9911C567.991 93.9011 569.901 94.7211 571.461 93.9011C572.122 93.4896 572.64 92.8853 572.945 92.17C573.251 91.4547 573.33 90.6627 573.171 89.9011C572.819 88.3876 572.089 86.9877 571.051 85.8311C564.051 77.0411 553.421 72.1711 543.171 67.6211C549.701 77.2311 556.511 87.1111 566.461 92.9911Z" fill="#14525F"/>
<path d="M610.791 94.5912C603.871 89.8045 596.771 85.2879 589.491 81.0412C583.361 77.4712 576.241 74.0412 569.491 76.0412C579.708 88.2311 593.944 96.3702 609.631 98.9912C610.631 99.1612 611.961 99.2212 612.631 98.3512C613.481 97.0612 612.061 95.4712 610.791 94.5912Z" fill="#14525F"/>
<path d="M290.581 131.351C287.626 144.309 288.527 157.848 293.171 170.301C293.401 170.891 293.781 171.581 294.411 171.551C295.041 171.521 295.411 170.551 295.411 169.771C295.791 158.301 293.341 142.491 290.581 131.351Z" fill="#14525F"/>
</svg>
