<svg width="22" height="22" viewBox="0 0 22 22" fill="none" xmlns="http://www.w3.org/2000/svg">
<path d="M10.366 6.82775L15.001 11.5278M1 20.8618L2.556 19.3068L1 20.8618ZM13.64 12.4998L8.584 17.5568C6.25 19.8898 3.737 20.4868 2.556 19.3068C1.375 18.1248 1.973 15.6107 4.306 13.2778L9.362 8.22175L13.64 12.4998ZM10.384 6.81175L15.39 1.80475C16.463 0.73175 18.205 0.73175 19.28 1.80475L20.057 2.58275C21.131 3.65775 21.131 5.39875 20.057 6.47075L15.074 11.4548L10.384 6.81175Z" stroke="#7F7F7F" stroke-linecap="round" stroke-linejoin="round"/>
<path d="M20.4659 5.94971C21.6359 6.84571 21.8019 8.61671 20.7079 9.70971L17.7229 12.6947" stroke="#7F7F7F" stroke-linecap="round" stroke-linejoin="round"/>
</svg>
