<svg width="413" height="581" viewBox="0 0 413 581" fill="none" xmlns="http://www.w3.org/2000/svg">
<path d="M267.026 337.457C270.358 339.541 273.882 341.303 277.548 342.718C259.73 408.116 234.108 474.933 236.563 552.361C229.548 546.732 222.095 520.636 223.533 488.525C224.445 456.098 234.231 417.638 249.839 379.6C256.17 363.605 262.08 349.698 267.026 337.457Z" fill="#66CDD0"/>
<path d="M287.51 345.489C285.037 363.289 281.512 383.615 276.987 405.642C261.712 473.81 248.822 539.05 236.528 552.396C234.02 474.915 259.713 408.097 277.566 342.7C280.781 343.952 284.112 344.886 287.51 345.489Z" fill="#56ABAE"/>
<g style="mix-blend-mode:multiply">
<g style="mix-blend-mode:multiply">
<path d="M239.282 496.311C239.895 491.541 240.579 486.788 241.351 482.088C242.018 491.33 244.859 504.097 252.154 512.322C251.453 514.901 250.786 517.373 250.12 519.758C244.42 513.445 241.035 504.588 239.282 496.311Z" fill="#9C9BA0"/>
</g>
<g style="mix-blend-mode:multiply">
<path d="M247.226 452.467C246.735 462.183 248.103 480.194 257.941 489.664C256.889 493.99 255.849 498.182 254.82 502.239C247.805 495.908 244.069 485.596 242.543 475.757C243.911 467.848 245.507 460.079 247.226 452.467Z" fill="#9C9BA0"/>
</g>
<g style="mix-blend-mode:multiply">
<path d="M263.22 392.243C264.483 387.946 265.728 383.667 266.991 379.405C265.237 393.435 264.921 417.988 272.954 424.459C272.41 427.02 271.849 429.545 271.305 432.053C263.694 426.353 262.08 407.465 263.22 392.243Z" fill="#9C9BA0"/>
</g>
<g style="mix-blend-mode:multiply">
<path d="M269.393 371.216C270.633 366.972 271.866 362.733 273.094 358.501C271.077 372.759 269.972 397.557 277.18 404.502C277.18 404.87 277.022 405.238 276.952 405.607L275.584 412.131C268.604 406.15 267.815 386.771 269.393 371.216Z" fill="#9C9BA0"/>
</g>
<g style="mix-blend-mode:multiply">
<path d="M285.493 345.068C285.697 347.129 286.097 349.167 286.685 351.153C285.89 356.508 285.014 362.067 284.055 367.831C281.231 362.868 280.302 353.679 280.547 343.735C282.172 344.262 283.823 344.707 285.493 345.068Z" fill="#9C9BA0"/>
</g>
</g>
<g style="mix-blend-mode:multiply">
<g style="mix-blend-mode:multiply">
<path d="M247.945 384.439C254.434 389.437 262.256 383.737 267.745 377.056C266.359 381.791 264.956 386.526 263.571 391.296C257.678 397.241 250.067 401.31 243.455 396.557C244.894 392.524 246.402 388.473 247.945 384.439Z" fill="#9C9BA0"/>
</g>
<g style="mix-blend-mode:multiply">
<path d="M276.461 342.262C276.847 342.437 277.233 342.577 277.636 342.735C275.391 350.89 273.006 359.028 270.621 367.288C265.027 375.32 257.31 381.879 250.769 377.196C253.627 369.901 256.451 362.991 259.134 356.45C265.009 359.957 272.27 350.557 276.461 342.262Z" fill="#9C9BA0"/>
</g>
<g style="mix-blend-mode:multiply">
<path d="M225.971 462.271C233.933 463.148 242.368 454.958 248.559 447.013C247.7 450.661 246.805 454.344 246.086 458.027C240.001 465.27 232.354 471.881 224.761 471.478C225.111 468.444 225.497 465.375 225.971 462.271Z" fill="#9C9BA0"/>
</g>
<g style="mix-blend-mode:multiply">
<path d="M230.618 438.683C239.387 442.19 249.523 429.335 255.539 419.62C254.416 423.723 253.329 427.862 252.259 432.001C245.911 441.173 237.019 450.468 228.601 447.68C229.209 444.698 229.881 441.699 230.618 438.683Z" fill="#9C9BA0"/>
</g>
<g style="mix-blend-mode:multiply">
<path d="M224.603 516.496C230.162 512.287 235.125 505.658 239.036 499.555C238.264 505.974 237.633 512.463 237.282 519.022C234.405 523.335 231.039 527.302 227.251 530.842C226.089 526.116 225.205 521.326 224.603 516.496Z" fill="#9C9BA0"/>
</g>
</g>
<path d="M275.654 341.981C278.991 343.389 282.456 344.47 286.001 345.208C273.725 416.2 257.029 492.944 274.269 570.126C266.552 567.39 254.574 544.451 250.663 512.042C246.209 479.562 249.822 437.595 260.87 395.207C266.096 374.513 271.287 356.976 275.654 341.981Z" fill="#66CDD0"/>
<path d="M295.612 346.226C294.718 365.201 293.192 387.298 291.122 411.623C283.774 483.527 283.266 552.203 274.164 570.127C256.942 492.962 273.602 416.165 285.966 345.173C289.141 345.827 292.371 346.179 295.612 346.226Z" fill="#56ABAE"/>
<g style="mix-blend-mode:multiply">
<g style="mix-blend-mode:multiply">
<path d="M267.043 513.849C266.845 508.903 266.757 503.969 266.78 499.047C268.85 507.938 273.602 519.513 282.108 524.862C281.88 527.633 281.635 530.316 281.407 532.912C274.795 528.878 270.042 521.425 267.043 513.849Z" fill="#9C9BA0"/>
</g>
<g style="mix-blend-mode:multiply">
<path d="M267.938 467.76C268.85 477.511 272.918 494.785 283.985 500.555C283.634 505.232 283.295 509.715 282.967 514.006C275.181 510.323 269.867 501.554 266.833 492.4C266.973 484.157 267.342 475.932 267.938 467.76Z" fill="#9C9BA0"/>
</g>
<g style="mix-blend-mode:multiply">
<path d="M275.865 403.134C276.625 398.528 277.396 393.921 278.18 389.315C277.881 403.678 280.687 427.81 289.474 431.405C289.246 434.088 289.018 436.666 288.807 439.42C280.547 436.473 276.478 418.462 275.865 403.134Z" fill="#9C9BA0"/>
</g>
<g style="mix-blend-mode:multiply">
<path d="M279.618 380.563C280.424 375.986 281.231 371.408 282.038 366.866C281.389 381.475 283.125 406.168 291.14 410.517L291.035 411.692C290.859 413.989 290.666 416.269 290.473 418.549C282.897 414.972 279.758 396.224 279.618 380.563Z" fill="#9C9BA0"/>
</g>
<g style="mix-blend-mode:multiply">
<path d="M292.806 346.102C293.193 349.119 293.99 352.069 295.174 354.871C294.858 360.389 294.507 366.148 294.121 372.145C290.316 367.691 288.457 357.01 288.001 345.523C289.597 345.804 291.21 345.997 292.806 346.102Z" fill="#9C9BA0"/>
</g>
</g>
<g style="mix-blend-mode:multiply">
<g style="mix-blend-mode:multiply">
<path d="M259.59 400.556C266.728 403.327 273.883 395.12 278.688 386.754C277.788 391.84 276.929 396.955 276.11 402.1C270.849 409.886 263.834 416.445 256.609 413.973C257.556 409.501 258.573 405.116 259.59 400.556Z" fill="#9C9BA0"/>
</g>
<g style="mix-blend-mode:multiply">
<path d="M285.668 345.103H286.019C284.265 355.38 282.354 365.71 280.512 376.127C275.707 385.86 268.709 394.857 261.554 392.402C263.571 384.299 265.64 376.618 267.675 369.357C275.251 371.251 282.546 354.854 285.668 345.103Z" fill="#9C9BA0"/>
</g>
<g style="mix-blend-mode:multiply">
<path d="M248.769 485.07C256.556 483.053 263.501 471.952 268.464 461.973C268.131 465.866 267.868 469.777 267.64 473.688C262.764 482.983 256.381 492.26 249.032 494.645C248.892 491.524 248.787 488.314 248.769 485.07Z" fill="#9C9BA0"/>
</g>
<g style="mix-blend-mode:multiply">
<path d="M249.716 460.026C258.836 460.307 266.886 444.243 271.603 432.633C271.025 437.035 270.498 441.402 270.007 445.909C264.992 457.098 257.731 469.391 249.085 469.654C249.237 466.486 249.448 463.277 249.716 460.026Z" fill="#9C9BA0"/>
</g>
<g style="mix-blend-mode:multiply">
<path d="M256.363 539.366C260.951 532.474 264.64 525.024 267.341 517.198C267.657 523.804 268.172 530.422 268.885 537.051C266.862 542.434 264.356 547.623 261.396 552.554C259.444 548.267 257.763 543.863 256.363 539.366Z" fill="#9C9BA0"/>
</g>
</g>
<path d="M314.886 342.718C318.552 341.302 322.075 339.54 325.408 337.457C330.406 349.733 336.246 363.605 342.63 379.547C358.133 417.586 367.919 456.045 368.936 488.472C370.374 520.583 362.956 546.679 355.906 552.309C358.343 474.933 332.721 408.116 314.886 342.718Z" fill="#56ABAE"/>
<path d="M314.938 342.7C332.791 408.097 358.431 474.915 355.993 552.431C343.717 539.085 330.827 473.845 315.552 405.677C310.975 383.65 307.467 363.324 305.03 345.524C308.416 344.907 311.735 343.961 314.938 342.7Z" fill="#66CDD0"/>
<g style="mix-blend-mode:multiply">
<g style="mix-blend-mode:multiply">
<path d="M353.152 496.31C352.539 491.54 351.837 486.787 351.066 482.087C350.417 491.33 347.663 504.097 340.28 512.322C340.964 514.9 341.648 517.373 342.314 519.758C348.014 513.444 351.521 504.588 353.152 496.31Z" fill="#9C9BA0"/>
</g>
<g style="mix-blend-mode:multiply">
<path d="M345.261 452.467C345.769 462.183 344.384 480.194 334.545 489.664C335.609 493.99 336.65 498.181 337.667 502.238C344.682 495.907 348.435 485.595 349.943 475.757C348.593 467.847 346.997 460.078 345.261 452.467Z" fill="#9C9BA0"/>
</g>
<g style="mix-blend-mode:multiply">
<path d="M329.267 392.243C328.021 387.946 326.759 383.667 325.514 379.405C327.267 393.435 327.566 417.988 319.533 424.459C320.095 427.02 320.638 429.545 321.287 432.053C328.723 426.353 330.477 407.465 329.267 392.243Z" fill="#9C9BA0"/>
</g>
<g style="mix-blend-mode:multiply">
<path d="M323.111 371.215C321.866 366.971 320.621 362.727 319.41 358.5C321.427 372.758 322.532 397.556 315.324 404.501C315.324 404.87 315.464 405.238 315.552 405.606C316.008 407.798 316.447 409.973 316.903 412.13C323.9 406.15 324.689 386.771 323.111 371.215Z" fill="#9C9BA0"/>
</g>
<g style="mix-blend-mode:multiply">
<path d="M311.974 343.734C312.185 353.678 311.273 362.868 308.467 367.831C307.508 362.055 306.631 356.496 305.836 351.153C306.413 349.164 306.812 347.127 307.029 345.067C308.66 344.716 310.326 344.26 311.974 343.734Z" fill="#9C9BA0"/>
</g>
</g>
<g style="mix-blend-mode:multiply">
<g style="mix-blend-mode:multiply">
<path d="M344.506 384.438C338 389.437 330.178 383.737 324.706 377.055L328.88 391.296C334.755 397.241 342.367 401.31 348.996 396.557C347.593 392.523 346.085 388.472 344.506 384.438Z" fill="#9C9BA0"/>
</g>
<g style="mix-blend-mode:multiply">
<path d="M316.043 342.261C320.234 350.556 327.495 359.957 333.37 356.414C336.053 362.955 338.877 369.865 341.735 377.161C335.194 381.843 327.477 375.284 321.883 367.252C319.498 359.027 317.113 350.89 314.868 342.7C315.254 342.577 315.657 342.437 316.043 342.261Z" fill="#9C9BA0"/>
</g>
<g style="mix-blend-mode:multiply">
<path d="M366.516 462.27C358.571 463.147 350.136 454.957 343.945 447.013C344.81 450.66 345.635 454.332 346.418 458.026C352.503 465.269 360.15 471.881 367.744 471.477C367.305 468.443 366.989 465.374 366.516 462.27Z" fill="#9C9BA0"/>
</g>
<g style="mix-blend-mode:multiply">
<path d="M361.886 438.682C353.029 442.189 342.963 429.334 336.965 419.619C338.134 423.746 339.227 427.873 340.245 432C346.576 441.172 355.485 450.467 363.903 447.679C363.289 444.697 362.605 441.698 361.886 438.682Z" fill="#9C9BA0"/>
</g>
<g style="mix-blend-mode:multiply">
<path d="M367.901 516.496C362.342 512.269 357.379 505.658 353.468 499.555C354.24 505.973 354.824 512.462 355.222 519.021C358.093 523.339 361.46 527.306 365.253 530.842C366.406 526.114 367.29 521.324 367.901 516.496Z" fill="#9C9BA0"/>
</g>
</g>
<path d="M305.661 345.331C309.215 344.656 312.693 343.628 316.043 342.262C320.322 357.379 325.408 375.004 330.512 395.751C341.332 438.315 344.699 480.334 340.07 512.744C335.983 545.1 323.882 567.829 316.148 570.424C333.809 493.54 317.604 416.533 305.661 345.331Z" fill="#56ABAE"/>
<path d="M305.713 345.331C317.674 416.533 333.896 493.54 316.236 570.459C307.239 552.413 307.116 483.754 300.154 411.692C298.242 387.35 296.839 365.218 296.033 346.225C299.281 346.242 302.523 345.943 305.713 345.331Z" fill="#66CDD0"/>
<g style="mix-blend-mode:multiply">
<g style="mix-blend-mode:multiply">
<path d="M323.689 514.269C323.9 509.336 324.017 504.408 324.04 499.485C321.901 508.342 317.025 519.829 308.572 525.037C308.783 527.826 309.011 530.509 309.221 533.105C315.85 529.211 320.655 521.828 323.689 514.269Z" fill="#9C9BA0"/>
</g>
<g style="mix-blend-mode:multiply">
<path d="M323.058 468.251C322.093 477.984 317.92 495.189 306.818 500.765C307.157 505.442 307.473 509.938 307.765 514.252C315.57 510.744 320.936 501.976 324.023 492.909C323.935 484.613 323.584 476.388 323.058 468.251Z" fill="#9C9BA0"/>
</g>
<g style="mix-blend-mode:multiply">
<path d="M315.482 403.467C314.763 398.837 314.009 394.208 313.255 389.595C313.465 403.976 310.536 428.055 301.715 431.545C301.925 434.246 302.136 436.911 302.346 439.577C310.624 436.683 314.798 418.778 315.482 403.467Z" fill="#9C9BA0"/>
</g>
<g style="mix-blend-mode:multiply">
<path d="M311.764 380.756C310.992 376.161 310.203 371.584 309.431 367.024C309.993 381.633 308.116 406.291 300.084 410.517C300.084 410.921 300.084 411.307 300.084 411.692C300.259 413.99 300.435 416.287 300.628 418.55C308.397 415.182 311.624 396.487 311.764 380.756Z" fill="#9C9BA0"/>
</g>
<g style="mix-blend-mode:multiply">
<path d="M303.679 345.682C303.153 357.151 301.241 367.796 297.418 372.198C297.044 366.2 296.723 360.431 296.454 354.889C297.655 352.089 298.469 349.139 298.874 346.12C300.47 346.067 302.066 345.91 303.679 345.682Z" fill="#9C9BA0"/>
</g>
</g>
<g style="mix-blend-mode:multiply">
<g style="mix-blend-mode:multiply">
<path d="M331.757 401.153C324.619 403.801 317.516 395.488 312.764 387.035C313.605 392.139 314.517 397.26 315.254 402.416C320.515 410.307 327.53 416.972 334.668 414.692C333.756 410.155 332.785 405.642 331.757 401.153Z" fill="#9C9BA0"/>
</g>
<g style="mix-blend-mode:multiply">
<path d="M305.924 345.278C308.993 355.064 316.183 371.585 323.777 369.831C325.759 377.144 327.793 384.86 329.757 392.998C322.602 395.313 315.727 386.211 310.905 376.39C309.151 365.867 307.397 355.59 305.643 345.278H305.924Z" fill="#9C9BA0"/>
</g>
<g style="mix-blend-mode:multiply">
<path d="M342.121 485.789C334.335 483.631 327.46 472.425 322.567 462.376C322.859 466.269 323.111 470.174 323.321 474.091C328.144 483.474 334.457 492.856 341.788 495.364C341.964 492.295 342.069 489.103 342.121 485.789Z" fill="#9C9BA0"/>
</g>
<g style="mix-blend-mode:multiply">
<path d="M341.297 460.78C332.178 460.92 324.233 444.663 319.586 433.018C320.135 437.438 320.644 441.874 321.111 446.329C326.057 457.606 333.388 470.022 341.876 470.425C341.735 467.251 341.543 464.024 341.297 460.78Z" fill="#9C9BA0"/>
</g>
<g style="mix-blend-mode:multiply">
<path d="M334.212 539.997C329.699 533.034 326.087 525.526 323.461 517.654C323.111 524.26 322.561 530.872 321.813 537.489C323.803 542.907 326.274 548.137 329.196 553.115C331.151 548.856 332.827 544.474 334.212 539.997Z" fill="#9C9BA0"/>
</g>
</g>
<path d="M294.788 346.208L292.473 581C279.179 568.566 271.586 498.574 278.794 421.005C281.179 391.069 284.37 365.622 286.948 345.366C289.538 345.837 292.158 346.119 294.788 346.208Z" fill="#66CDD0"/>
<path d="M302.61 345.822C304.784 366.218 307.467 391.841 309.239 421.9C314.903 499.819 305.924 569.355 292.385 581L294.753 346.208C297.378 346.281 300.004 346.152 302.61 345.822Z" fill="#56ABAE"/>
<g style="mix-blend-mode:multiply">
<g style="mix-blend-mode:multiply">
<path d="M292.911 527.773C292.911 523.096 292.958 518.42 293.052 513.743C294.963 522.179 298.769 533.368 306.222 540.049C305.784 542.768 305.328 545.311 304.837 547.889C299.137 542.733 295.402 535.121 292.911 527.773Z" fill="#9C9BA0"/>
</g>
<g style="mix-blend-mode:multiply">
<path d="M293.367 484.035C294.858 493.154 298.909 509.218 309.151 515.69C308.765 520.425 308.292 524.95 307.748 529.316C300.733 524.739 296.033 516.128 293.139 507.535C293.221 499.701 293.297 491.868 293.367 484.035Z" fill="#9C9BA0"/>
</g>
<g style="mix-blend-mode:multiply">
<path d="M293.999 421.11C293.999 416.527 294.045 411.95 294.139 407.378C296.103 420.163 301.733 441.892 310.256 443.067C310.379 445.943 310.466 448.784 310.536 451.625C302.539 450.714 296.769 434.597 293.999 421.11Z" fill="#9C9BA0"/>
</g>
<g style="mix-blend-mode:multiply">
<path d="M294.226 398.593C294.226 394.015 294.226 389.438 294.367 384.861C296.121 397.751 301.382 419.708 309.168 420.655C309.168 421.076 309.168 421.479 309.168 421.9C309.326 424.355 309.449 426.793 309.572 429.213C302.153 428.652 296.734 412.307 294.226 398.593Z" fill="#9C9BA0"/>
</g>
<g style="mix-blend-mode:multiply">
<path d="M298.067 346.19C299.575 353.416 301.75 359.94 304.328 362.325C304.907 367.972 305.486 373.935 306.082 380.178C300.663 378.424 296.664 364.394 294.717 351.434V346.173C295.857 346.225 296.962 346.225 298.067 346.19Z" fill="#9C9BA0"/>
</g>
</g>
<g style="mix-blend-mode:multiply">
<g style="mix-blend-mode:multiply">
<path d="M278.425 425.985C285.44 425.617 291 415.252 294.209 404.8C294.209 409.886 294.209 414.954 294.069 420.04C290.316 429.756 284.581 438.121 277.583 438.314C277.864 434.245 278.11 430.124 278.425 425.985Z" fill="#9C9BA0"/>
</g>
<g style="mix-blend-mode:multiply">
<path d="M280.986 396.733C289.228 393.892 293.402 371.619 294.647 360.729C294.542 371.906 294.431 383.077 294.314 394.243C291.333 406.221 286.107 417.497 279.004 418.497C279.612 410.956 280.273 403.701 280.986 396.733Z" fill="#9C9BA0"/>
</g>
<g style="mix-blend-mode:multiply">
<path d="M276.391 501.572C283.406 499.467 289.597 488.769 293.49 478.422L293.385 489.664C289.298 499.064 283.476 507.798 276.759 509.972C276.619 507.254 276.496 504.448 276.391 501.572Z" fill="#9C9BA0"/>
</g>
<g style="mix-blend-mode:multiply">
<path d="M276.11 479.597C284.476 478.72 290.754 462.463 293.771 450.046C293.771 454.343 293.771 458.657 293.648 462.972C290.14 474.809 283.932 487.033 276.11 488.085C276.11 485.297 276.11 482.456 276.11 479.597Z" fill="#9C9BA0"/>
</g>
<g style="mix-blend-mode:multiply">
<path d="M289.772 345.804C288.805 348.93 287.462 351.927 285.773 354.73C286.177 351.486 286.563 348.382 286.966 345.365C287.895 345.488 288.842 345.681 289.772 345.804Z" fill="#9C9BA0"/>
</g>
<g style="mix-blend-mode:multiply">
<path d="M281.161 549.817C286.002 544.994 290.035 537.769 292.981 530.964C292.981 537.208 292.859 543.451 292.789 549.694C290.428 554.246 287.48 558.467 284.02 562.251C282.968 558.533 282.021 554.377 281.161 549.817Z" fill="#9C9BA0"/>
</g>
</g>
<path d="M165.045 396.576C190.914 390.173 217.456 386.894 244.104 386.807C265.903 386.807 284.441 388.982 302.522 391.069C316.633 393.006 330.845 394.124 345.085 394.418C363.254 394.418 402.064 380.652 402.38 380.564C403.378 380.21 404.475 380.267 405.432 380.722C405.894 380.94 406.306 381.253 406.641 381.639C406.977 382.026 407.227 382.478 407.378 382.967L412.64 400.294C412.905 401.191 412.81 402.157 412.374 402.986C411.938 403.814 411.197 404.44 410.307 404.731C408.553 405.362 367.235 420.023 344.98 420.023C329.863 420.023 315.166 418.269 299.681 416.516C281.26 414.041 262.706 412.682 244.122 412.447C219.296 412.519 194.567 415.563 170.464 421.514C170.162 421.598 169.849 421.639 169.535 421.637C168.81 421.64 168.099 421.44 167.483 421.058C167.043 420.806 166.66 420.466 166.358 420.058C166.056 419.651 165.842 419.185 165.729 418.69L162.064 400.872C161.971 400.394 161.974 399.901 162.074 399.424C162.175 398.947 162.369 398.495 162.647 398.094C162.925 397.694 163.281 397.353 163.693 397.092C164.104 396.831 164.564 396.656 165.045 396.576Z" fill="#541C0A"/>
<g style="mix-blend-mode:soft-light">
<g style="mix-blend-mode:soft-light">
<path d="M173.498 406.431C177.883 408.01 182.267 409.29 186.862 410.5L200.629 414.008L204.575 415.042C198.419 415.866 192.299 416.884 185.985 418.094L184.88 417.831C179.916 416.544 175.182 414.491 170.85 411.745C167.899 409.854 165.285 407.483 163.116 404.73L162.432 401.451C165.994 403.379 169.693 405.044 173.498 406.431Z" fill="#C97900"/>
</g>
<g style="mix-blend-mode:soft-light">
<path d="M175.848 394.138C176.633 394.832 177.478 395.454 178.374 395.997C181.045 397.5 184.08 398.235 187.143 398.119C190.369 398.119 193.894 397.908 197.507 397.908C201.184 397.885 204.856 398.166 208.486 398.75C215.605 399.986 222.568 401.998 229.25 404.748C234.549 406.872 239.664 409.429 244.543 412.394H244.227C241.719 412.394 239.211 412.394 236.703 412.499C233.617 411.833 230.565 411.131 227.514 410.448C220.727 408.922 213.992 407.378 207.328 406.291C204.031 405.73 200.734 405.397 197.314 405.151C193.894 404.906 190.299 404.748 186.599 404.099C184.637 403.764 182.727 403.174 180.917 402.345C179.07 401.493 177.399 400.304 175.989 398.838C174.856 397.59 173.884 396.206 173.095 394.716L175.848 394.138Z" fill="#C97900"/>
</g>
<g style="mix-blend-mode:soft-light">
<path d="M205.715 389.157C213.458 392.235 221.382 394.835 229.443 396.943C234.248 398.206 239.089 399.311 243.964 400.328C248.84 401.345 253.697 402.327 258.608 403.187C268.429 404.853 278.285 406.361 288.194 407.606C298.102 408.851 307.976 410.079 317.797 410.377C322.707 410.535 327.618 410.588 332.528 410.377C337.439 410.167 342.367 409.658 347.348 409.202C357.291 408.202 367.218 406.905 377.389 406.203C382.477 405.879 387.582 405.914 392.664 406.308C395.221 406.522 397.751 406.974 400.223 407.659L400.96 407.904L398.662 408.641C396.64 408.442 394.607 408.383 392.577 408.466C387.616 408.659 382.672 409.169 377.775 409.991C372.865 410.71 367.972 411.745 363.026 412.639C358.081 413.534 353.135 414.393 348.137 415.27C338.056 417.026 327.836 417.86 317.604 417.76C313.22 417.655 308.835 417.392 304.539 417.041L299.786 416.498C295.244 415.972 290.684 415.428 286.037 414.937C276.426 413.586 266.745 412.096 257.293 410.061C252.347 409.027 247.402 407.904 242.473 406.659C237.545 405.414 232.688 403.958 227.847 402.415C218.123 399.369 208.724 395.368 199.787 390.472L199.121 390.086C201.313 389.735 203.523 389.42 205.715 389.157Z" fill="#C97900"/>
</g>
<g style="mix-blend-mode:soft-light">
<path d="M235.055 386.947C240.316 387.912 245.788 388.701 251.172 389.455C261.344 390.735 271.55 391.875 281.81 392.577C292.069 393.278 302.329 393.98 312.606 394.331C322.883 394.681 333.177 395.067 343.489 395.26C353.801 395.453 364.096 395.506 374.425 395.628H389.911H393.804C395.175 395.641 396.545 395.723 397.908 395.874C400.616 396.181 403.284 396.769 405.87 397.628C408.289 398.442 410.635 399.457 412.885 400.662C412.954 401.172 412.909 401.691 412.754 402.182C412.6 402.673 412.339 403.124 411.991 403.503C409.697 402.53 407.319 401.767 404.888 401.223C402.501 400.647 400.063 400.312 397.61 400.223C396.393 400.191 395.176 400.221 393.962 400.311L390.104 400.574C384.948 400.942 379.757 401.188 374.583 401.468C364.219 402.047 353.854 402.222 343.472 402.363C333.089 402.503 322.707 402.205 312.325 401.837C301.943 401.468 291.561 400.679 281.196 399.644C270.831 398.61 260.502 397.207 250.26 395.207C240.163 393.349 230.202 390.812 220.446 387.614C225.252 387.368 230.162 387.088 235.055 386.947Z" fill="#C97900"/>
</g>
<g style="mix-blend-mode:soft-light">
<path d="M389.981 384.65L396.172 386.579C399.837 387.754 403.503 389.017 407.185 390.455L410.132 391.682L411.605 396.47C409.698 396.532 407.79 396.491 405.888 396.347C401.817 395.969 397.8 395.146 393.91 393.892C389.937 392.666 386.154 390.896 382.668 388.631C382.124 388.263 381.598 387.842 381.055 387.438C384.211 386.439 387.245 385.509 389.981 384.65Z" fill="#C97900"/>
</g>
</g>
<path d="M223.603 35.1981C236.09 40.1437 269.201 53.0513 271.077 53.8054L283.441 120.167C283.441 120.167 235.406 144.72 230.829 143.562C230.829 143.562 198.735 131.093 162.608 116.782C96.9825 90.8095 88.8101 80.3396 32.3394 57.9793C24.7106 54.9629 0.000274658 52.3498 0.000274658 52.3498C36.5835 -39.1608 166.045 12.3994 223.603 35.1981Z" fill="#66CDD0"/>
<path d="M12.4341 38.4594C12.4341 38.4594 30.3575 14.8364 49.7188 10.9782C71.7108 6.61135 83.4083 18.607 76.7967 35.3027C68.5716 56.1197 43.2299 28.1825 12.4341 38.4594Z" fill="#14525F"/>
<path d="M230.723 55.8569C227.387 60.2619 224.452 64.9574 221.955 69.8869C219.44 74.725 217.174 79.6888 215.168 84.7587C213.142 89.8241 211.386 94.9932 209.906 100.244C208.35 105.572 207.287 111.032 206.732 116.554C210.063 112.145 212.997 107.45 215.501 102.524C218.022 97.7012 220.287 92.7488 222.288 87.6875C224.316 82.6171 226.072 77.442 227.549 72.1843C229.081 66.8448 230.143 61.3815 230.723 55.8569Z" fill="white"/>
<path d="M209.836 47.5967C206.499 52.0016 203.565 56.6971 201.067 61.6267C198.546 66.4615 196.28 71.4256 194.28 76.4984C192.252 81.5569 190.496 86.7203 189.019 91.9665C187.468 97.2964 186.4 102.755 185.827 108.276C189.163 103.871 192.098 99.1756 194.596 94.2464C197.112 89.4113 199.371 84.4472 201.365 79.3746C203.386 74.3073 205.142 69.1385 206.627 63.889C208.168 58.5619 209.242 53.1105 209.836 47.5967Z" fill="white"/>
<path d="M187.774 42.3354C184.677 46.2739 181.958 50.4957 179.654 54.9449C177.369 59.3155 175.32 63.8057 173.516 68.3962C171.694 72.9814 170.13 77.6655 168.833 82.4261C167.46 87.2395 166.544 92.1719 166.098 97.1576C169.205 93.2298 171.918 89.0064 174.2 84.5482C176.497 80.2047 178.552 75.7375 180.356 71.1671C182.169 66.5787 183.733 61.8952 185.038 57.1371C186.4 52.297 187.315 47.3424 187.774 42.3354Z" fill="white"/>
<path d="M165.151 38.4429C162.461 41.7034 160.111 45.229 158.136 48.9654C156.159 52.5981 154.402 56.3461 152.874 60.1894C151.341 64.0224 150.047 67.9466 148.999 71.9395C147.877 76.0072 147.177 80.1798 146.912 84.3911C149.603 81.1321 151.953 77.6062 153.927 73.8686C155.907 70.238 157.664 66.4896 159.188 62.6446C160.716 58.8097 162.01 54.8858 163.064 50.8945C164.183 46.8262 164.882 42.6538 165.151 38.4429Z" fill="white"/>
<path d="M143.843 31.252C141.263 34.3459 139.007 37.6955 137.108 41.2483C133.363 48.1745 130.455 55.5218 128.445 63.1351C127.384 67.0194 126.737 71.0051 126.516 75.0255C129.109 71.9418 131.366 68.5908 133.25 65.0291C135.132 61.5828 136.796 58.0215 138.231 54.3664C139.683 50.7103 140.907 46.9676 141.896 43.1599C142.964 39.2705 143.616 35.2789 143.843 31.252Z" fill="white"/>
<path d="M122.429 24.3599C119.969 27.2353 117.829 30.3695 116.046 33.7073C112.5 40.1803 109.767 47.0661 107.908 54.2087C106.925 57.8647 106.337 61.6159 106.155 65.3976C108.616 62.541 110.768 59.4311 112.573 56.1202C114.339 52.8879 115.903 49.5494 117.256 46.1239C118.646 42.6941 119.818 39.1796 120.763 35.6014C121.711 31.923 122.27 28.1551 122.429 24.3599Z" fill="white"/>
<path d="M100.35 19.0981C98.1804 21.5096 96.2973 24.1637 94.7376 27.0075C93.1904 29.7508 91.8367 32.5988 90.6865 35.5308C89.5173 38.454 88.5504 41.4541 87.7928 44.51C86.9925 47.6535 86.5513 50.8776 86.4775 54.1205C88.6528 51.71 90.5418 49.0559 92.107 46.2111C93.6472 43.4642 95.0006 40.6167 96.1582 37.6879C97.2961 34.7603 98.2393 31.7607 98.9817 28.7087C99.8082 25.5689 100.267 22.3438 100.35 19.0981Z" fill="white"/>
<g style="mix-blend-mode:multiply">
<path d="M3.05176e-05 52.3499C1.49866 48.6677 3.22659 45.0831 5.17361 41.617C31.4798 36.2681 75.2183 57.2429 125.148 78.2879C171.113 97.6493 236.756 105.225 264.5 106.979L251.873 137.196L249.646 145.123C244.385 158.627 231.056 143.264 226.462 142.107C226.462 142.107 198.752 131.181 162.625 116.87C97.0174 90.8096 88.8274 80.3573 32.3392 57.997C24.7104 54.9806 3.05176e-05 52.3499 3.05176e-05 52.3499Z" fill="#56ABAE"/>
</g>
<g style="mix-blend-mode:soft-light">
<path d="M257.328 59.7503C257.328 59.7503 182.899 20.7821 105.506 8.48828C105.506 8.48828 173.674 36.1274 197.77 51.9812C221.867 67.8351 245.858 88.7398 257.328 59.7503Z" fill="white"/>
</g>
<path d="M250.137 101.963C259.309 89.3365 245.437 62.5918 250.383 51.9466C251.168 50.0183 252.519 48.3734 254.258 47.229L267.675 52.4902C270.391 55.9398 272.232 59.9953 273.041 64.3105L273.216 65.2225C273.889 69.5176 273.959 73.8855 273.427 78.2002V108.733C273.307 114.716 272.441 120.66 270.849 126.428C256.293 133.619 233.827 144.334 230.758 143.562L224.041 140.949C222.937 128.62 241.859 113.38 250.137 101.963Z" fill="#14525F"/>
<path d="M312.816 376.881C314.78 376.67 322.023 376.021 323.497 379.564C321.952 379.489 320.403 379.541 318.867 379.722C302.259 381.475 301.154 402.661 313.272 415.235C311.992 415.691 310.168 415.235 308.099 413.341C295.033 400.907 295.822 378.669 312.816 376.881Z" fill="#66CDD0"/>
<path d="M328.267 414.534C328.267 414.534 316.727 395.593 327.916 395.032C329.126 395.032 334.58 394.892 334.3 388.946C334.3 388.14 334.13 387.343 333.8 386.607C333.471 385.87 332.991 385.212 332.39 384.674C331.789 384.136 331.082 383.731 330.314 383.485C329.546 383.239 328.735 383.158 327.934 383.247C308.484 384.211 309.098 405.625 322.181 418.076C327.355 422.987 331.16 418.111 328.267 414.534Z" fill="#14525F"/>
<path d="M318.867 379.722C321.006 379.494 329.512 378.67 329.863 383.422C329.23 383.283 328.581 383.224 327.934 383.247C309.168 384.177 309.116 404.134 320.919 416.709C320.024 418.462 317.411 419.199 314.184 416.182C301.066 403.731 301.855 381.511 318.867 379.722Z" fill="#56ABAE"/>
<path d="M264.623 376.881C266.587 376.67 273.813 376.021 275.286 379.564C273.741 379.489 272.192 379.541 270.656 379.722C254.066 381.475 252.943 402.661 265.079 415.235C263.781 415.691 261.958 415.235 259.906 413.341C246.823 400.907 247.612 378.669 264.623 376.881Z" fill="#66CDD0"/>
<path d="M280.074 414.534C280.074 414.534 268.534 395.593 279.705 395.032C280.915 395.032 286.387 394.892 286.089 388.947C286.091 388.141 285.924 387.344 285.597 386.608C285.27 385.872 284.791 385.213 284.191 384.675C283.592 384.137 282.885 383.731 282.118 383.485C281.351 383.239 280.541 383.158 279.74 383.247C260.291 384.211 260.888 405.625 273.971 418.076C279.162 422.987 282.967 418.111 280.074 414.534Z" fill="#14525F"/>
<path d="M270.656 379.722C272.796 379.494 281.319 378.67 281.652 383.422C281.025 383.283 280.383 383.224 279.741 383.247C260.958 384.177 260.905 404.134 272.726 416.709C271.831 418.462 269.218 419.199 265.974 416.182C252.856 403.731 253.645 381.511 270.656 379.722Z" fill="#56ABAE"/>
<path d="M335.738 302.031C324.601 348.4 311.413 388.596 324.724 391.788C338.035 394.979 372.847 359.992 383.983 313.623C395.12 267.254 393.366 227.076 380.055 223.866C366.744 220.657 346.839 255.662 335.738 302.031Z" fill="#14525F"/>
<path d="M260.081 302.031C271.235 348.4 284.423 388.596 271.095 391.787C257.766 394.979 222.989 359.992 211.835 313.623C200.682 267.254 202.453 227.075 215.781 223.866C221.534 222.498 228.496 228.215 235.441 238.913C244.543 252.996 253.75 275.672 260.081 302.031Z" fill="#14525F"/>
<path d="M238.247 134.495C253.382 118.712 266.64 92.8089 260.467 49.7894C258.818 38.3199 279.6 35.6016 306.415 50.6488C354.222 77.4987 361.272 119.536 361.272 159.592C361.272 211.257 376.67 246.648 376.67 283.897C376.67 346.296 342.332 404.064 301.715 404.064C251.207 404.064 216.886 342.683 216.886 273.217C216.886 213.151 264.237 167.326 245.297 156.452C225.918 145.281 228.759 144.422 238.247 134.495Z" fill="#56ABAE"/>
<path d="M325.426 195.385C329.038 204.645 332.581 214.08 335.948 223.884C343.98 247.594 351.556 272.69 356.327 303.258C348.049 291.491 341.192 276.408 334.913 260.344C339.808 280.982 343.376 301.912 345.594 323.005C337.316 307.222 330.88 288.071 325.075 268.166C329.332 291.862 332.108 315.8 333.388 339.841C326.741 323.058 321.743 304.1 317.376 284.546C319.948 306.838 321.272 329.257 321.339 351.697C315.043 331.108 310.817 308.572 307.309 285.686C308.993 310.454 309.251 335.299 308.081 360.097C303.547 339.165 300.296 317.975 298.348 296.647C298.593 319.155 297.61 341.66 295.401 364.061C291.677 340.041 289.404 315.819 288.597 291.526C287.775 315.819 285.497 340.041 281.775 364.061C279.561 341.66 278.571 319.155 278.811 296.647C276.868 317.975 273.624 339.165 269.095 360.097C267.916 335.299 268.174 310.454 269.867 285.686C266.359 308.484 262.115 331.108 255.837 351.697C255.91 329.256 257.239 306.838 259.818 284.546C255.451 304.083 250.453 323.128 243.806 339.841C245.075 315.799 247.851 291.86 252.119 268.166C246.314 288.071 239.843 307.187 231.6 323.005C233.815 301.91 237.388 280.979 242.298 260.344C236.002 276.408 229.145 291.491 220.867 303.258C225.637 272.69 233.143 247.577 241.246 223.884C244.648 214.08 248.261 204.592 251.768 195.385C261.835 220.955 275.216 225.778 288.597 225.778C301.978 225.778 315.359 220.972 325.426 195.385Z" fill="#14525F"/>
<path d="M247.261 148.175C236.353 138.441 285.054 97.0002 277.075 70.2731C269.095 43.5459 309.817 56.892 327.144 85.1273C344.471 113.363 339.631 241.614 281.915 227.426C261.782 222.463 239.545 211.117 256.503 178.883C264.921 162.871 261.309 160.749 247.261 148.175Z" fill="white"/>
<path d="M277.128 70.2729C269.201 43.5283 309.817 56.8918 327.145 85.1272C328.808 88.0161 330.115 91.0959 331.038 94.2993C317.288 116.151 292.841 142.142 270.797 99.5605C276.251 89.3187 279.723 79.0066 277.128 70.2729Z" fill="#E83A7E"/>
<path d="M284.879 87.0389C284.879 89.2206 285.526 91.3534 286.738 93.1674C287.95 94.9815 289.673 96.3954 291.689 97.2303C293.705 98.0652 295.923 98.2837 298.062 97.858C300.202 97.4324 302.168 96.3818 303.71 94.8391C305.253 93.2963 306.304 91.3308 306.729 89.191C307.155 87.0511 306.937 84.8332 306.102 82.8175C305.267 80.8018 303.853 79.079 302.039 77.8669C300.225 76.6548 298.092 76.0078 295.91 76.0078C294.461 76.0055 293.026 76.2893 291.686 76.8428C290.347 77.3964 289.13 78.2088 288.105 79.2336C287.08 80.2584 286.268 81.4754 285.714 82.8148C285.161 84.1542 284.877 85.5896 284.879 87.0389Z" fill="white"/>
<path d="M290.526 84.9693C290.739 85.6274 291.157 86.2001 291.719 86.604C292.28 87.0078 292.956 87.2216 293.648 87.2141C294.522 87.2141 295.361 86.8668 295.979 86.2484C296.597 85.6301 296.945 84.7915 296.945 83.9171C296.939 83.4156 296.816 82.9224 296.584 82.4776C296.353 82.0327 296.02 81.6487 295.612 81.3566C295.851 81.3395 296.092 81.3395 296.331 81.3566C297.594 81.3636 298.827 81.7452 299.873 82.4532C300.92 83.1612 301.732 84.1638 302.208 85.3339C302.685 86.504 302.803 87.7891 302.548 89.0265C302.294 90.2638 301.678 91.3979 300.778 92.285C299.879 93.1721 298.737 93.7724 297.496 94.01C296.255 94.2475 294.972 94.1115 293.808 93.6193C292.645 93.127 291.654 92.3006 290.96 91.2447C290.267 90.1888 289.902 88.9509 289.912 87.6876C289.911 86.747 290.12 85.818 290.526 84.9693Z" fill="#0C0800"/>
</svg>
