<svg width="260" height="63" viewBox="0 0 260 63" fill="none" xmlns="http://www.w3.org/2000/svg">
<path d="M0.628778 26.2359C0.628778 20.0817 5.50181 16.6807 11.7896 16.6807C17.6058 16.6807 21.3785 18.7861 23.422 20.7295L20.5925 26.3978C18.7062 24.9403 15.5623 23.4827 12.4184 23.4827C10.0605 23.4827 8.64571 24.7783 8.64571 26.2359C8.64571 31.4184 24.994 28.6652 24.994 39.678C24.994 45.8322 20.1209 49.7191 12.7328 49.7191C7.07376 49.7191 1.41475 46.642 0 44.3746L3.77267 39.1921C5.65901 41.1356 10.2177 43.079 13.2044 43.079C15.4051 43.079 17.1342 42.1073 17.1342 40.1638C16.977 34.8194 0.628778 37.5726 0.628778 26.2359Z" fill="#E83A7E"/>
<path d="M57.6905 45.6704C54.7038 48.2616 50.3023 49.5573 46.0581 49.5573C36.312 49.5573 29.7098 43.0791 29.7098 33.2C29.7098 24.1307 35.8404 16.8428 45.7437 16.8428C53.6034 16.8428 60.2056 22.6731 60.2056 31.4185C60.2056 33.362 60.0484 34.4956 59.734 35.7913H37.7268C38.3555 40.4879 42.1282 43.0791 46.8441 43.0791C50.6167 43.0791 53.6034 41.6216 55.4898 40.164L57.6905 45.6704ZM37.4124 30.1229H52.3459C52.3459 26.236 49.8308 23.3209 45.4293 23.3209C40.7135 23.3209 38.3555 26.0741 37.4124 30.1229Z" fill="#E83A7E"/>
<path d="M80.9553 16.6807C91.0157 16.6807 97.4607 23.6446 97.4607 33.0379C97.4607 42.4312 91.0157 49.5571 80.9553 49.5571C70.8948 49.5571 64.4498 42.5931 64.4498 33.1999C64.4498 23.8066 70.8948 16.6807 80.9553 16.6807ZM80.9553 42.1073C85.8283 42.1073 89.2866 38.5443 89.2866 33.1999C89.2866 27.8554 85.6711 24.2925 80.9553 24.2925C76.3966 24.2925 72.7812 27.8554 72.7812 33.1999C72.624 38.2204 76.2394 42.1073 80.9553 42.1073Z" fill="#E83A7E"/>
<path d="M104.22 0H111.923V36.7633C111.923 40.3263 112.709 41.7839 114.595 41.7839C115.852 41.7839 116.796 41.298 117.739 40.4882L119.311 46.6424C117.739 48.262 115.066 49.3956 111.451 49.3956C106.735 49.3956 104.22 46.4805 104.22 40.0024V0Z" fill="white"/>
<path d="M139.117 16.6807C149.178 16.6807 155.623 23.6446 155.623 33.0379C155.623 42.4312 149.178 49.3952 139.117 49.3952C129.057 49.3952 122.612 42.4312 122.612 33.0379C122.612 23.6446 129.057 16.6807 139.117 16.6807ZM139.117 42.1073C143.99 42.1073 147.449 38.5443 147.449 33.1999C147.449 27.8554 143.833 24.2925 139.117 24.2925C134.559 24.2925 130.943 27.8554 130.943 33.1999C130.943 38.2204 134.401 42.1073 139.117 42.1073Z" fill="white"/>
<path d="M168.356 43.2418C168.041 42.594 167.884 41.7842 167.884 41.1364C167.884 40.3266 168.041 39.5168 168.513 38.869C163.954 36.9256 161.282 32.8768 161.282 28.3421C161.282 22.0259 166.155 16.5195 174.329 16.5195C177.316 16.5195 179.988 17.3293 182.031 18.7869L191.149 16.6815L191.463 23.1596L186.433 24.2933C186.904 25.5889 187.219 26.8845 187.219 28.3421C187.219 34.6583 182.189 39.8407 174.329 39.8407H173.857C173.7 40.3266 173.7 40.6505 173.7 40.9744C173.7 41.4603 173.857 42.1081 174.172 42.5939H174.486C183.289 42.5939 190.363 45.833 190.363 52.797C190.363 59.761 183.446 63 174.486 63C165.526 63 158.609 59.9229 158.609 52.797C158.452 47.7764 162.539 44.5374 168.356 43.2418ZM174.329 56.8458C179.674 56.8458 182.817 55.5502 182.817 52.9589C182.817 50.6916 179.988 49.0721 174.329 49.0721C168.827 49.0721 165.683 50.5296 165.683 52.9589C165.683 55.3882 168.984 56.8458 174.329 56.8458ZM174.172 33.5246C177.473 33.5246 179.831 31.5812 179.831 28.504C179.831 25.5889 177.787 23.1596 174.172 23.1596C170.713 23.1596 168.513 25.5889 168.513 28.504C168.513 31.2572 170.713 33.5246 174.172 33.5246Z" fill="white"/>
<path d="M222.273 45.6704C219.287 48.2616 214.885 49.5573 210.641 49.5573C200.895 49.5573 194.293 43.0791 194.293 33.2C194.293 24.1307 200.423 16.8428 210.326 16.8428C218.186 16.8428 224.788 22.6731 224.788 31.4185C224.788 33.362 224.631 34.4956 224.317 35.7913H202.31C202.938 40.4879 206.711 43.0791 211.427 43.0791C215.2 43.0791 218.186 41.6216 220.073 40.164L222.273 45.6704ZM201.995 30.1229H216.929C216.929 26.236 214.414 23.3209 210.012 23.3209C205.453 23.3209 202.938 26.0741 201.995 30.1229Z" fill="white"/>
<path d="M231.076 17.3285H238.779V20.4056C240.665 18.4621 243.809 16.6807 247.424 16.6807C254.813 16.6807 260 20.4056 260 30.1228V48.5854H252.297V31.7423C252.297 26.7217 249.782 24.2925 245.538 24.2925C242.866 24.2925 240.665 25.4261 238.936 27.2076V48.5854H231.233V17.3285H231.076Z" fill="white"/>
</svg>
