<svg width="26" height="20" viewBox="0 0 26 20" fill="none" xmlns="http://www.w3.org/2000/svg">
<path d="M18.8807 18.833C18.8807 19.2226 18.6863 19.417 18.2967 19.417C17.9071 19.417 17.7128 19.2226 17.7128 19.0274L16.5449 6.95879H14.793C14.4034 6.95879 14.2091 6.56919 14.2091 6.37484C14.2091 6.1805 14.2091 5.98524 14.4034 5.98524L19.4646 0.145759C19.659 -0.0485863 20.0486 -0.0485863 20.2429 0.145759H20.4373L25.4985 5.98524C25.6928 6.17959 25.6928 6.56919 25.4985 6.76353C25.3041 6.76353 25.3041 6.95788 25.1089 6.95788H23.357L22.1891 19.0264C22.1891 19.2208 21.9948 19.4161 21.6052 19.4161C21.2156 19.4161 21.0212 19.2217 21.0212 18.8321L22.1891 6.37484C22.1891 5.98524 22.5787 5.7909 22.7731 5.7909H23.7466L19.8533 1.50891L16.1553 5.7909H17.1288C17.3232 5.7909 17.7128 5.98524 17.7128 6.1805L18.8807 18.833ZM12.6525 10.2681C12.6525 9.48984 12.6525 8.51629 12.6525 7.738L12.4582 7.93234H6.61869C6.61869 8.71064 6.61869 9.48984 6.61869 10.2681C6.61869 11.2417 6.61869 12.02 6.61869 12.7983H12.4582H12.6525C12.6525 12.02 12.6525 11.2408 12.6525 10.2681ZM12.4573 6.76445C12.2629 5.7909 12.0677 4.81826 11.679 4.03905C11.095 2.67681 10.3167 1.70326 9.73277 1.70326C8.95448 1.70326 8.17527 2.67681 7.59133 4.03905C7.39698 4.81734 7.00738 5.7909 6.81303 6.76445H12.4582H12.4573ZM6.81303 13.9671C7.00738 14.9406 7.39698 15.7189 7.59133 16.4972C8.17527 18.0547 8.95357 18.833 9.53752 18.833H9.73186C10.5102 18.833 11.0941 18.0547 11.6781 16.4972C12.0677 15.7189 12.262 14.9397 12.4563 13.9671H6.81121H6.81303ZM12.8469 3.65036C13.4308 5.40221 13.8204 7.738 13.8204 10.2681C13.8204 12.9935 13.4308 15.3293 12.8469 17.0812C12.4573 17.6651 12.2629 18.0547 11.8733 18.6387C12.2629 18.4443 12.4573 18.4443 12.8469 18.2491C13.8204 17.8595 14.5987 17.2755 15.377 16.6916C15.7666 16.4972 15.9609 16.4972 16.3505 16.6916C16.5449 16.8859 16.5449 17.2755 16.1562 17.4699C15.3779 18.2482 14.21 18.8321 13.2365 19.4161C12.0686 19.8057 10.9007 20 9.73277 20C9.53843 20 9.53843 20 9.53843 20C7.00829 20 4.47724 18.8321 2.7254 17.2746C0.973551 15.3284 0 12.9926 0 10.2672C0 7.54183 0.973551 5.20604 2.7254 3.45419C4.47724 1.70235 7.00738 0.53445 9.73277 0.53445C10.5111 0.53445 11.2903 0.728795 12.0686 0.924053C13.0421 1.1184 13.8204 1.508 14.4044 1.8976C14.794 2.09195 14.794 2.28721 14.5987 2.6759C14.5987 2.87024 14.2091 3.0655 13.8204 2.87024C13.2365 2.48064 12.6525 2.28629 11.8742 2.09195C12.2638 2.48155 12.4582 3.0655 12.8478 3.64945L12.8469 3.65036ZM7.39698 18.6387C7.00738 18.0547 6.81303 17.6651 6.61869 17.0812C6.22908 16.1076 5.84039 15.135 5.64514 13.9671H1.9471C2.33671 14.9406 2.92065 15.7189 3.5046 16.3029C4.6725 17.4708 5.84039 18.2491 7.39789 18.6387H7.39698ZM5.64514 12.7992C5.45079 12.0209 5.45079 11.2417 5.45079 10.2691C5.45079 9.49076 5.45079 8.71155 5.64514 7.93326H1.36315C1.16881 8.71155 1.16881 9.49076 1.16881 10.2691C1.16881 11.2426 1.16881 12.0209 1.36315 12.7992H5.64514ZM5.64514 6.76445C5.83948 5.59655 6.22908 4.42865 6.61869 3.65036C6.81303 3.06641 7.00829 2.48246 7.39698 2.09286C5.83948 2.48246 4.67159 3.26076 3.50369 4.23431C2.91974 5.0126 2.33579 5.79181 1.94619 6.76445H5.64422H5.64514Z" fill="#7F7F7F"/>
</svg>
