<svg width="22" height="16" viewBox="0 0 22 16" fill="none" xmlns="http://www.w3.org/2000/svg">
<path d="M4.49965 12.8338C4.49965 12.3341 4.16594 12.0004 3.99986 11.6674C3.66615 11.3337 3.16636 11.1676 2.66657 11.1676C2.33286 11.1676 1.83307 11.3345 1.50014 11.6674C1.33329 12.0011 1.00035 12.3341 1.00035 12.8338C1.00035 13.3336 1.33406 13.6673 1.50014 14.0003C1.83385 14.334 2.33364 14.5001 2.66657 14.5001C3.16636 14.5001 3.66693 14.3332 3.99986 14.0003C4.16671 13.6666 4.49965 13.3336 4.49965 12.8338ZM20.8336 2.83343C20.8336 2.33364 20.6667 1.83307 20.3338 1.50014C20.0001 1.33329 19.6671 1.16643 19.1673 1.16643C18.6676 1.16643 18.3339 1.33329 18.0009 1.50014C17.6672 1.83385 17.5011 2.33364 17.5011 2.83343C17.5011 3.16714 17.668 3.66693 18.0009 3.99986C18.0009 3.99986 18.1678 3.99986 18.1678 4.16671C18.5015 4.33357 18.8344 4.50042 19.1681 4.50042C19.6679 4.50042 20.0016 4.16671 20.3346 4.00064C20.6683 3.66693 20.8343 3.16714 20.8343 2.8342L20.8336 2.83343ZM21.1665 0.833498C21.6663 1.33329 22 1.99993 22 2.83343C22 3.50007 21.6663 4.16671 21.1665 4.6665C20.6667 5.16629 20.0001 5.5 19.1666 5.5C18.8329 5.5 18.3331 5.5 18.0001 5.33315L14.833 9.83357C15.3328 10.3334 15.6665 11 15.6665 11.6666C15.6665 12.5001 15.3328 13.1668 14.833 13.6666C14.3332 14.1664 13.4997 14.5001 12.8331 14.5001C11.9996 14.5001 11.3329 14.1664 10.8331 13.6666C10.3334 13.1668 9.99965 12.5001 9.99965 11.6666C9.99965 11 10.3334 10.1665 10.8331 9.66671C10.8331 9.66671 10.8331 9.66671 11 9.66671L9.49986 7.49993C9.16615 7.66678 8.66636 7.83364 8.33343 7.83364C8.00049 7.83364 7.49993 7.66678 7.167 7.49993L4.83336 10.8331C5.33315 11.3329 5.5 12.1664 5.5 12.8331C5.5 13.6666 5.16629 14.3332 4.6665 14.833C4.16671 15.3328 3.50007 15.6665 2.66657 15.6665C1.99993 15.6665 1.33329 15.3328 0.833498 14.833C0.33371 14.3332 0 13.6666 0 12.8331C0 11.9996 0.33371 11.3329 0.833498 10.8331C1.33329 10.3334 1.99993 9.99965 2.66657 9.99965C3.16636 9.99965 3.50007 10.1665 3.833 10.3334L6.33272 6.83329C5.83293 6.3335 5.49922 5.66686 5.49922 5.00021C5.49922 4.16671 5.83293 3.50007 6.33272 3.00028C6.83251 2.50049 7.49915 2.16678 8.33265 2.16678C9.16615 2.16678 9.83279 2.50049 10.3326 3.00028C10.8324 3.50007 11.1661 4.16671 11.1661 5.00021C11.1661 5.66686 10.8324 6.3335 10.3326 6.83329L11.9996 9.00007C12.1664 9.00007 12.4994 8.83322 12.8331 8.83322C13.1668 8.83322 13.6666 9.00007 13.9995 9.16693L17.1666 4.6665C16.6669 4.16671 16.3331 3.50007 16.3331 2.83343C16.3331 1.99993 16.6669 1.33329 17.1666 0.833498C17.6664 0.33371 18.3331 0 19.1666 0C20.0001 0 20.6667 0.33371 21.1665 0.833498V0.833498ZM9.99965 5.00021C9.99965 4.50042 9.83279 4.16671 9.49986 3.83378C9.16693 3.50085 8.83322 3.33399 8.33343 3.33399C7.83364 3.33399 7.49993 3.50085 7.167 3.83378C6.83406 4.16671 6.66721 4.50042 6.66721 5.00021C6.66721 5.5 6.83406 5.83371 7.167 6.16664L7.33385 6.3335C7.66756 6.50035 8.00049 6.66721 8.3342 6.66721C8.83399 6.66721 9.1677 6.50035 9.50063 6.16742C9.83357 5.83449 10.0004 5.50078 10.0004 5.00099L9.99965 5.00021ZM14.4993 11.6674C14.4993 11.1676 14.3324 10.8339 13.9995 10.501L13.8327 10.3341C13.4989 10.1673 13.166 10.0004 12.8323 10.0004C12.3325 10.0004 11.9988 10.1673 11.6659 10.5002C11.3329 10.8331 11.1661 11.1669 11.1661 11.6666C11.1661 12.1664 11.3329 12.667 11.6659 12.8331C11.9996 13.1668 12.3325 13.3329 12.8323 13.3329C13.3321 13.3329 13.6658 13.166 13.9987 12.8331C14.3324 12.6662 14.4985 12.1664 14.4985 11.6666L14.4993 11.6674Z" fill="#7F7F7F"/>
</svg>
