<svg width="20" height="19" viewBox="0 0 20 19" fill="none" xmlns="http://www.w3.org/2000/svg">
<path d="M2.42407 0H17.4242C18.1819 0 18.788 0.303362 19.2423 0.757699C19.6966 1.21204 20 1.81805 20 2.57575V15.6062C20 16.2122 19.6966 16.8182 19.2423 17.2726C18.788 17.7269 18.1819 18.0303 17.4242 18.0303H2.42407C1.81805 18.0303 1.21204 17.7269 0.757699 17.2726C0.303362 16.8182 0 16.2122 0 15.6062V2.57575C0 1.81805 0.303362 1.21204 0.757699 0.757699C1.21204 0.303362 1.81805 0 2.42407 0ZM12.1211 7.12124C11.8177 7.12124 11.3634 7.12124 11.0607 7.4246C10.7573 7.57628 10.6064 7.87894 10.4547 8.1823C10.303 8.48566 10.0004 8.63664 9.69699 8.48566C9.69699 8.48566 9.54531 8.33398 9.54531 8.1823C9.39363 7.87894 9.09097 7.57628 8.78761 7.4246C8.48425 7.12124 8.18159 7.12124 7.72726 7.12124C7.12124 7.12124 6.6669 7.4246 6.36354 7.72726C6.06018 8.18159 5.75752 8.63664 5.75752 9.24265C5.75752 10.152 6.36354 11.0607 6.96956 11.8184C8.18159 13.1821 9.69699 14.0908 9.99965 14.0908C10.3023 14.0908 11.8177 13.1814 12.8788 11.8184C13.6365 11.0607 14.0908 10.152 14.0908 9.24265C14.0908 8.63664 13.9391 8.1823 13.6365 7.72726C13.1821 7.4239 12.7271 7.12124 12.1211 7.12124V7.12124ZM10.6057 6.51522C11.06 6.21186 11.515 6.06088 12.1211 6.06088H12.2727C13.0304 6.06088 13.7881 6.51522 14.2425 7.12124C14.8485 7.57558 15.1519 8.33328 15.1519 9.24265C15.1519 10.4547 14.5458 11.6667 13.6365 12.5761C12.4244 14.0915 10.4547 15.0002 10.0004 15.0002C9.54602 15.0002 7.57628 14.0908 6.21257 12.5761C5.45487 11.6667 4.84885 10.4547 4.84885 9.24265C4.84885 8.33328 5.15221 7.57628 5.60655 7.12124C6.06088 6.51522 6.81858 6.06088 7.72796 6.06088C8.33398 6.06088 8.94 6.21257 9.39433 6.51522C9.54602 6.6669 9.84867 6.81858 10.0004 7.12124C10.152 6.81788 10.3037 6.6669 10.6064 6.51522H10.6057ZM8.48496 2.57575C8.63664 2.72743 8.63664 2.87911 8.63664 3.03009C8.63664 3.18177 8.63664 3.48443 8.48496 3.63611C8.33327 3.78779 8.18159 3.78779 8.03062 3.78779C7.87964 3.78779 7.57628 3.78779 7.4246 3.63611C7.27292 3.48443 7.27292 3.33275 7.27292 3.18177C7.27292 3.03079 7.27292 3.03009 7.27292 3.03009C7.27292 2.87841 7.27292 2.72673 7.4246 2.57575C7.57628 2.42407 7.72796 2.27239 8.03062 2.27239C8.1823 2.27239 8.33398 2.42407 8.48496 2.57575ZM5.45416 2.2731C5.45416 2.2731 5.45416 2.2731 5.60584 2.2731C5.75752 2.2731 5.9092 2.42478 6.06018 2.57646C6.06018 2.72814 6.21186 2.87982 6.21186 3.0308C6.21186 3.18248 6.06018 3.48513 6.06018 3.63681C5.9085 3.78849 5.60584 3.78849 5.45416 3.78849C5.30248 3.78849 4.99982 3.78849 4.99982 3.63681C4.84814 3.48513 4.69646 3.33345 4.69646 3.18248C4.69646 3.0315 4.69646 3.0308 4.69646 3.0308C4.69646 2.87911 4.84814 2.72743 4.99982 2.57646C4.99982 2.42478 5.30318 2.2731 5.45416 2.2731ZM3.03009 2.2731C3.18177 2.2731 3.33345 2.42478 3.48443 2.57646C3.6354 2.72814 3.63611 2.87982 3.63611 3.0308C3.63611 3.18248 3.63611 3.48513 3.48443 3.63681C3.33275 3.78849 3.18106 3.78849 3.03009 3.78849C2.87911 3.78849 2.57575 3.78849 2.42407 3.63681C2.27239 3.48513 2.27239 3.33345 2.27239 3.18248C2.27239 3.0315 2.27239 3.0308 2.27239 3.0308C2.27239 2.87911 2.27239 2.72743 2.42407 2.57646C2.57575 2.42478 2.72743 2.2731 3.03009 2.2731ZM17.4242 1.06106H2.42407C1.96973 1.06106 1.66637 1.21274 1.36372 1.5154C1.06106 1.81805 0.909379 2.12142 0.909379 2.57575V15.6062C0.909379 15.9096 1.06106 16.3639 1.36372 16.6665C1.66708 16.8182 1.96973 17.1209 2.42407 17.1209H17.4242C17.8786 17.1209 18.1819 16.8175 18.4846 16.6665C18.788 16.3632 18.9389 15.9088 18.9389 15.6062V2.57575C18.9389 2.12142 18.7873 1.81805 18.4846 1.5154C18.1819 1.21274 17.8786 1.06106 17.4242 1.06106Z" fill="#7F7F7F"/>
</svg>
