<svg width="20" height="26" viewBox="0 0 20 26" fill="none" xmlns="http://www.w3.org/2000/svg">
<path d="M8.65321 23.6548H11.1533V21.1546H8.65321V23.6548V23.6548ZM13.6534 6.15398C13.6534 5.76969 14.0377 5.5771 14.4229 5.5771C14.6155 5.5771 14.9998 5.76969 14.9998 6.15398V16.923C14.9998 17.1156 14.6155 17.4999 14.4229 17.4999C14.0386 17.4999 13.6534 17.1156 13.6534 16.923V6.15398V6.15398ZM4.99934 6.15398C4.99934 5.76969 5.19193 5.5771 5.57622 5.5771C5.96051 5.5771 6.1531 5.76969 6.1531 6.15398V16.923C6.1531 17.1156 5.96051 17.4999 5.57622 17.4999C5.19193 17.4999 4.99934 17.1156 4.99934 16.923V6.15398V6.15398ZM7.49945 6.15398C7.49945 5.76969 7.69204 5.5771 8.07633 5.5771C8.46062 5.5771 8.65321 5.76969 8.65321 6.15398V16.923C8.65321 17.1156 8.46062 17.4999 8.07633 17.4999C7.69204 17.4999 7.49945 17.1156 7.49945 16.923V6.15398V6.15398ZM11.1533 6.15398C11.1533 5.76969 11.5376 5.5771 11.9228 5.5771C12.1154 5.5771 12.4997 5.76969 12.4997 6.15398V16.923C12.4997 17.1156 12.1154 17.4999 11.9228 17.4999C11.5385 17.4999 11.1533 17.1156 11.1533 16.923V6.15398V6.15398ZM14.9998 3.07699V1.15376H4.99934V3.07699C4.99934 3.46128 4.61504 3.65387 4.22987 3.65387H2.49923V23.6539H7.49945V20.5769C7.49945 20.1926 7.69204 20 8.07633 20H11.9228C12.1154 20 12.4997 20.1926 12.4997 20.5769V23.6539H17.4999V3.65387H15.5767C15.1924 3.65387 14.9998 3.46128 14.9998 3.07699V3.07699ZM16.1535 0.576881V2.50011H18.0768C18.4611 2.50011 18.6537 2.6927 18.6537 3.07699V23.6548H19.4231C19.6157 23.6548 20 24.039 20 24.4242C20 24.6168 19.6157 25.0011 19.4231 25.0011H0.576881C0.192588 25.0011 0 24.6168 0 24.4242C0 24.0399 0.192588 23.6548 0.576881 23.6548H1.15376V3.07699C1.15376 2.6927 1.53805 2.50011 1.73064 2.50011H3.65387V0.576881C3.65387 0.192588 4.03816 0 4.23075 0H15.5775C15.9618 0 16.1544 0.192588 16.1544 0.576881H16.1535Z" fill="#7F7F7F"/>
</svg>
